%TF.GenerationSoftware,KiCad,Pcbnew,9.0.2-9.0.2-0~ubuntu24.04.1*%
%TF.CreationDate,2025-06-01T16:20:20-04:00*%
%TF.ProjectId,Expansion_Card_rs-probe,45787061-6e73-4696-9f6e-5f436172645f,X1*%
%TF.SameCoordinates,Original*%
%TF.FileFunction,Legend,Bot*%
%TF.FilePolarity,Positive*%
%FSLAX46Y46*%
G04 Gerber Fmt 4.6, Leading zero omitted, Abs format (unit mm)*
G04 Created by KiCad (PCBNEW 9.0.2-9.0.2-0~ubuntu24.04.1) date 2025-06-01 16:20:20*
%MOMM*%
%LPD*%
G01*
G04 APERTURE LIST*
%ADD10C,0.153000*%
%ADD11C,0.100000*%
%ADD12C,0.120000*%
G04 APERTURE END LIST*
D10*
X131711904Y-152854663D02*
X131711904Y-153664186D01*
X131711904Y-153664186D02*
X131664285Y-153759424D01*
X131664285Y-153759424D02*
X131616666Y-153807044D01*
X131616666Y-153807044D02*
X131521428Y-153854663D01*
X131521428Y-153854663D02*
X131330952Y-153854663D01*
X131330952Y-153854663D02*
X131235714Y-153807044D01*
X131235714Y-153807044D02*
X131188095Y-153759424D01*
X131188095Y-153759424D02*
X131140476Y-153664186D01*
X131140476Y-153664186D02*
X131140476Y-152854663D01*
X130188095Y-152854663D02*
X130664285Y-152854663D01*
X130664285Y-152854663D02*
X130711904Y-153330853D01*
X130711904Y-153330853D02*
X130664285Y-153283234D01*
X130664285Y-153283234D02*
X130569047Y-153235615D01*
X130569047Y-153235615D02*
X130330952Y-153235615D01*
X130330952Y-153235615D02*
X130235714Y-153283234D01*
X130235714Y-153283234D02*
X130188095Y-153330853D01*
X130188095Y-153330853D02*
X130140476Y-153426091D01*
X130140476Y-153426091D02*
X130140476Y-153664186D01*
X130140476Y-153664186D02*
X130188095Y-153759424D01*
X130188095Y-153759424D02*
X130235714Y-153807044D01*
X130235714Y-153807044D02*
X130330952Y-153854663D01*
X130330952Y-153854663D02*
X130569047Y-153854663D01*
X130569047Y-153854663D02*
X130664285Y-153807044D01*
X130664285Y-153807044D02*
X130711904Y-153759424D01*
X138761904Y-142954663D02*
X138190476Y-142954663D01*
X138476190Y-143954663D02*
X138476190Y-142954663D01*
X137857142Y-143954663D02*
X137857142Y-142954663D01*
X137857142Y-142954663D02*
X137476190Y-142954663D01*
X137476190Y-142954663D02*
X137380952Y-143002282D01*
X137380952Y-143002282D02*
X137333333Y-143049901D01*
X137333333Y-143049901D02*
X137285714Y-143145139D01*
X137285714Y-143145139D02*
X137285714Y-143287996D01*
X137285714Y-143287996D02*
X137333333Y-143383234D01*
X137333333Y-143383234D02*
X137380952Y-143430853D01*
X137380952Y-143430853D02*
X137476190Y-143478472D01*
X137476190Y-143478472D02*
X137857142Y-143478472D01*
X136952380Y-142954663D02*
X136333333Y-142954663D01*
X136333333Y-142954663D02*
X136666666Y-143335615D01*
X136666666Y-143335615D02*
X136523809Y-143335615D01*
X136523809Y-143335615D02*
X136428571Y-143383234D01*
X136428571Y-143383234D02*
X136380952Y-143430853D01*
X136380952Y-143430853D02*
X136333333Y-143526091D01*
X136333333Y-143526091D02*
X136333333Y-143764186D01*
X136333333Y-143764186D02*
X136380952Y-143859424D01*
X136380952Y-143859424D02*
X136428571Y-143907044D01*
X136428571Y-143907044D02*
X136523809Y-143954663D01*
X136523809Y-143954663D02*
X136809523Y-143954663D01*
X136809523Y-143954663D02*
X136904761Y-143907044D01*
X136904761Y-143907044D02*
X136952380Y-143859424D01*
X134562181Y-141954663D02*
X133990753Y-141954663D01*
X134276467Y-142954663D02*
X134276467Y-141954663D01*
X133657419Y-142954663D02*
X133657419Y-141954663D01*
X133657419Y-141954663D02*
X133276467Y-141954663D01*
X133276467Y-141954663D02*
X133181229Y-142002282D01*
X133181229Y-142002282D02*
X133133610Y-142049901D01*
X133133610Y-142049901D02*
X133085991Y-142145139D01*
X133085991Y-142145139D02*
X133085991Y-142287996D01*
X133085991Y-142287996D02*
X133133610Y-142383234D01*
X133133610Y-142383234D02*
X133181229Y-142430853D01*
X133181229Y-142430853D02*
X133276467Y-142478472D01*
X133276467Y-142478472D02*
X133657419Y-142478472D01*
X132228848Y-142287996D02*
X132228848Y-142954663D01*
X132466943Y-141907044D02*
X132705038Y-142621329D01*
X132705038Y-142621329D02*
X132085991Y-142621329D01*
X139261904Y-148454663D02*
X138690476Y-148454663D01*
X138976190Y-149454663D02*
X138976190Y-148454663D01*
X138357142Y-149454663D02*
X138357142Y-148454663D01*
X138357142Y-148454663D02*
X137976190Y-148454663D01*
X137976190Y-148454663D02*
X137880952Y-148502282D01*
X137880952Y-148502282D02*
X137833333Y-148549901D01*
X137833333Y-148549901D02*
X137785714Y-148645139D01*
X137785714Y-148645139D02*
X137785714Y-148787996D01*
X137785714Y-148787996D02*
X137833333Y-148883234D01*
X137833333Y-148883234D02*
X137880952Y-148930853D01*
X137880952Y-148930853D02*
X137976190Y-148978472D01*
X137976190Y-148978472D02*
X138357142Y-148978472D01*
X137404761Y-148549901D02*
X137357142Y-148502282D01*
X137357142Y-148502282D02*
X137261904Y-148454663D01*
X137261904Y-148454663D02*
X137023809Y-148454663D01*
X137023809Y-148454663D02*
X136928571Y-148502282D01*
X136928571Y-148502282D02*
X136880952Y-148549901D01*
X136880952Y-148549901D02*
X136833333Y-148645139D01*
X136833333Y-148645139D02*
X136833333Y-148740377D01*
X136833333Y-148740377D02*
X136880952Y-148883234D01*
X136880952Y-148883234D02*
X137452380Y-149454663D01*
X137452380Y-149454663D02*
X136833333Y-149454663D01*
X146839663Y-137046666D02*
X147553948Y-137046666D01*
X147553948Y-137046666D02*
X147696805Y-136999047D01*
X147696805Y-136999047D02*
X147792044Y-136903809D01*
X147792044Y-136903809D02*
X147839663Y-136760952D01*
X147839663Y-136760952D02*
X147839663Y-136665714D01*
X146839663Y-137999047D02*
X146839663Y-137522857D01*
X146839663Y-137522857D02*
X147315853Y-137475238D01*
X147315853Y-137475238D02*
X147268234Y-137522857D01*
X147268234Y-137522857D02*
X147220615Y-137618095D01*
X147220615Y-137618095D02*
X147220615Y-137856190D01*
X147220615Y-137856190D02*
X147268234Y-137951428D01*
X147268234Y-137951428D02*
X147315853Y-137999047D01*
X147315853Y-137999047D02*
X147411091Y-138046666D01*
X147411091Y-138046666D02*
X147649186Y-138046666D01*
X147649186Y-138046666D02*
X147744424Y-137999047D01*
X147744424Y-137999047D02*
X147792044Y-137951428D01*
X147792044Y-137951428D02*
X147839663Y-137856190D01*
X147839663Y-137856190D02*
X147839663Y-137618095D01*
X147839663Y-137618095D02*
X147792044Y-137522857D01*
X147792044Y-137522857D02*
X147744424Y-137475238D01*
X134919068Y-148204663D02*
X134347640Y-148204663D01*
X134633354Y-149204663D02*
X134633354Y-148204663D01*
X134014306Y-149204663D02*
X134014306Y-148204663D01*
X134014306Y-148204663D02*
X133633354Y-148204663D01*
X133633354Y-148204663D02*
X133538116Y-148252282D01*
X133538116Y-148252282D02*
X133490497Y-148299901D01*
X133490497Y-148299901D02*
X133442878Y-148395139D01*
X133442878Y-148395139D02*
X133442878Y-148537996D01*
X133442878Y-148537996D02*
X133490497Y-148633234D01*
X133490497Y-148633234D02*
X133538116Y-148680853D01*
X133538116Y-148680853D02*
X133633354Y-148728472D01*
X133633354Y-148728472D02*
X134014306Y-148728472D01*
X132490497Y-149204663D02*
X133061925Y-149204663D01*
X132776211Y-149204663D02*
X132776211Y-148204663D01*
X132776211Y-148204663D02*
X132871449Y-148347520D01*
X132871449Y-148347520D02*
X132966687Y-148442758D01*
X132966687Y-148442758D02*
X133061925Y-148490377D01*
D11*
%TO.C,U5*%
X133200000Y-153900000D02*
X132200000Y-153900000D01*
X132700000Y-152900000D01*
X133200000Y-153900000D01*
G36*
X133200000Y-153900000D02*
G01*
X132200000Y-153900000D01*
X132700000Y-152900000D01*
X133200000Y-153900000D01*
G37*
D12*
%TO.C,TP3*%
X138200000Y-145250000D02*
G75*
G02*
X136800000Y-145250000I-700000J0D01*
G01*
X136800000Y-145250000D02*
G75*
G02*
X138200000Y-145250000I700000J0D01*
G01*
%TO.C,TP4*%
X134000277Y-144326983D02*
G75*
G02*
X132600277Y-144326983I-700000J0D01*
G01*
X132600277Y-144326983D02*
G75*
G02*
X134000277Y-144326983I700000J0D01*
G01*
%TO.C,TP2*%
X138700000Y-147250000D02*
G75*
G02*
X137300000Y-147250000I-700000J0D01*
G01*
X137300000Y-147250000D02*
G75*
G02*
X138700000Y-147250000I700000J0D01*
G01*
%TO.C,J5*%
X151270000Y-135495000D02*
X150635000Y-135495000D01*
X151270000Y-136130000D02*
X151270000Y-135495000D01*
%TO.C,TP1*%
X134357164Y-146866321D02*
G75*
G02*
X132957164Y-146866321I-700000J0D01*
G01*
X132957164Y-146866321D02*
G75*
G02*
X134357164Y-146866321I700000J0D01*
G01*
%TD*%
M02*
