%TF.GenerationSoftware,KiCad,Pcbnew,9.0.0-9.0.0-2~ubuntu24.04.1*%
%TF.CreationDate,2025-03-19T08:39:51-04:00*%
%TF.ProjectId,Expansion_Card_rs-probe,45787061-6e73-4696-9f6e-5f436172645f,X1*%
%TF.SameCoordinates,Original*%
%TF.FileFunction,Legend,Top*%
%TF.FilePolarity,Positive*%
%FSLAX46Y46*%
G04 Gerber Fmt 4.6, Leading zero omitted, Abs format (unit mm)*
G04 Created by KiCad (PCBNEW 9.0.0-9.0.0-2~ubuntu24.04.1) date 2025-03-19 08:39:51*
%MOMM*%
%LPD*%
G01*
G04 APERTURE LIST*
%ADD10C,0.100000*%
%ADD11C,0.150000*%
%ADD12C,0.153000*%
%ADD13C,0.120000*%
G04 APERTURE END LIST*
D10*
X135500000Y-131000000D02*
X135750000Y-131000000D01*
X143750000Y-130750000D02*
X142750000Y-130750000D01*
X133500000Y-145750000D02*
X133750000Y-146000000D01*
X135750000Y-131000000D02*
X136000000Y-131250000D01*
X135500000Y-136250000D02*
X135500000Y-137250000D01*
X140750000Y-131250000D02*
X140750000Y-131750000D01*
X142750000Y-130750000D02*
X142654825Y-130839789D01*
X135500000Y-137250000D02*
X135309701Y-137444477D01*
X140750000Y-131750000D02*
X140621971Y-131891713D01*
X135750000Y-145750000D02*
X136000000Y-146000000D01*
X135250000Y-145750000D02*
X135750000Y-145750000D01*
D11*
X146266666Y-148354819D02*
X146266666Y-149069104D01*
X146266666Y-149069104D02*
X146219047Y-149211961D01*
X146219047Y-149211961D02*
X146123809Y-149307200D01*
X146123809Y-149307200D02*
X145980952Y-149354819D01*
X145980952Y-149354819D02*
X145885714Y-149354819D01*
X147266666Y-149354819D02*
X146695238Y-149354819D01*
X146980952Y-149354819D02*
X146980952Y-148354819D01*
X146980952Y-148354819D02*
X146885714Y-148497676D01*
X146885714Y-148497676D02*
X146790476Y-148592914D01*
X146790476Y-148592914D02*
X146695238Y-148640533D01*
D12*
X134666666Y-130180853D02*
X134333333Y-130180853D01*
X134333333Y-130704663D02*
X134333333Y-129704663D01*
X134333333Y-129704663D02*
X134809523Y-129704663D01*
X135714285Y-130704663D02*
X135142857Y-130704663D01*
X135428571Y-130704663D02*
X135428571Y-129704663D01*
X135428571Y-129704663D02*
X135333333Y-129847520D01*
X135333333Y-129847520D02*
X135238095Y-129942758D01*
X135238095Y-129942758D02*
X135142857Y-129990377D01*
X139488095Y-129954663D02*
X139488095Y-130764186D01*
X139488095Y-130764186D02*
X139535714Y-130859424D01*
X139535714Y-130859424D02*
X139583333Y-130907044D01*
X139583333Y-130907044D02*
X139678571Y-130954663D01*
X139678571Y-130954663D02*
X139869047Y-130954663D01*
X139869047Y-130954663D02*
X139964285Y-130907044D01*
X139964285Y-130907044D02*
X140011904Y-130859424D01*
X140011904Y-130859424D02*
X140059523Y-130764186D01*
X140059523Y-130764186D02*
X140059523Y-129954663D01*
X140440476Y-129954663D02*
X141059523Y-129954663D01*
X141059523Y-129954663D02*
X140726190Y-130335615D01*
X140726190Y-130335615D02*
X140869047Y-130335615D01*
X140869047Y-130335615D02*
X140964285Y-130383234D01*
X140964285Y-130383234D02*
X141011904Y-130430853D01*
X141011904Y-130430853D02*
X141059523Y-130526091D01*
X141059523Y-130526091D02*
X141059523Y-130764186D01*
X141059523Y-130764186D02*
X141011904Y-130859424D01*
X141011904Y-130859424D02*
X140964285Y-130907044D01*
X140964285Y-130907044D02*
X140869047Y-130954663D01*
X140869047Y-130954663D02*
X140583333Y-130954663D01*
X140583333Y-130954663D02*
X140488095Y-130907044D01*
X140488095Y-130907044D02*
X140440476Y-130859424D01*
X140988095Y-145204663D02*
X140988095Y-146014186D01*
X140988095Y-146014186D02*
X141035714Y-146109424D01*
X141035714Y-146109424D02*
X141083333Y-146157044D01*
X141083333Y-146157044D02*
X141178571Y-146204663D01*
X141178571Y-146204663D02*
X141369047Y-146204663D01*
X141369047Y-146204663D02*
X141464285Y-146157044D01*
X141464285Y-146157044D02*
X141511904Y-146109424D01*
X141511904Y-146109424D02*
X141559523Y-146014186D01*
X141559523Y-146014186D02*
X141559523Y-145204663D01*
X142464285Y-145537996D02*
X142464285Y-146204663D01*
X142226190Y-145157044D02*
X141988095Y-145871329D01*
X141988095Y-145871329D02*
X142607142Y-145871329D01*
X146011905Y-132454663D02*
X146011905Y-131454663D01*
X146011905Y-131454663D02*
X146250000Y-131454663D01*
X146250000Y-131454663D02*
X146392857Y-131502282D01*
X146392857Y-131502282D02*
X146488095Y-131597520D01*
X146488095Y-131597520D02*
X146535714Y-131692758D01*
X146535714Y-131692758D02*
X146583333Y-131883234D01*
X146583333Y-131883234D02*
X146583333Y-132026091D01*
X146583333Y-132026091D02*
X146535714Y-132216567D01*
X146535714Y-132216567D02*
X146488095Y-132311805D01*
X146488095Y-132311805D02*
X146392857Y-132407044D01*
X146392857Y-132407044D02*
X146250000Y-132454663D01*
X146250000Y-132454663D02*
X146011905Y-132454663D01*
X147535714Y-132454663D02*
X146964286Y-132454663D01*
X147250000Y-132454663D02*
X147250000Y-131454663D01*
X147250000Y-131454663D02*
X147154762Y-131597520D01*
X147154762Y-131597520D02*
X147059524Y-131692758D01*
X147059524Y-131692758D02*
X146964286Y-131740377D01*
X133666666Y-138430853D02*
X133333333Y-138430853D01*
X133333333Y-138954663D02*
X133333333Y-137954663D01*
X133333333Y-137954663D02*
X133809523Y-137954663D01*
X134523809Y-138430853D02*
X134666666Y-138478472D01*
X134666666Y-138478472D02*
X134714285Y-138526091D01*
X134714285Y-138526091D02*
X134761904Y-138621329D01*
X134761904Y-138621329D02*
X134761904Y-138764186D01*
X134761904Y-138764186D02*
X134714285Y-138859424D01*
X134714285Y-138859424D02*
X134666666Y-138907044D01*
X134666666Y-138907044D02*
X134571428Y-138954663D01*
X134571428Y-138954663D02*
X134190476Y-138954663D01*
X134190476Y-138954663D02*
X134190476Y-137954663D01*
X134190476Y-137954663D02*
X134523809Y-137954663D01*
X134523809Y-137954663D02*
X134619047Y-138002282D01*
X134619047Y-138002282D02*
X134666666Y-138049901D01*
X134666666Y-138049901D02*
X134714285Y-138145139D01*
X134714285Y-138145139D02*
X134714285Y-138240377D01*
X134714285Y-138240377D02*
X134666666Y-138335615D01*
X134666666Y-138335615D02*
X134619047Y-138383234D01*
X134619047Y-138383234D02*
X134523809Y-138430853D01*
X134523809Y-138430853D02*
X134190476Y-138430853D01*
X135714285Y-138954663D02*
X135142857Y-138954663D01*
X135428571Y-138954663D02*
X135428571Y-137954663D01*
X135428571Y-137954663D02*
X135333333Y-138097520D01*
X135333333Y-138097520D02*
X135238095Y-138192758D01*
X135238095Y-138192758D02*
X135142857Y-138240377D01*
X132204663Y-145738094D02*
X133014186Y-145738094D01*
X133014186Y-145738094D02*
X133109424Y-145690475D01*
X133109424Y-145690475D02*
X133157044Y-145642856D01*
X133157044Y-145642856D02*
X133204663Y-145547618D01*
X133204663Y-145547618D02*
X133204663Y-145357142D01*
X133204663Y-145357142D02*
X133157044Y-145261904D01*
X133157044Y-145261904D02*
X133109424Y-145214285D01*
X133109424Y-145214285D02*
X133014186Y-145166666D01*
X133014186Y-145166666D02*
X132204663Y-145166666D01*
X133204663Y-144166666D02*
X133204663Y-144738094D01*
X133204663Y-144452380D02*
X132204663Y-144452380D01*
X132204663Y-144452380D02*
X132347520Y-144547618D01*
X132347520Y-144547618D02*
X132442758Y-144642856D01*
X132442758Y-144642856D02*
X132490377Y-144738094D01*
X133204663Y-143214285D02*
X133204663Y-143785713D01*
X133204663Y-143499999D02*
X132204663Y-143499999D01*
X132204663Y-143499999D02*
X132347520Y-143595237D01*
X132347520Y-143595237D02*
X132442758Y-143690475D01*
X132442758Y-143690475D02*
X132490377Y-143785713D01*
X133954663Y-145738094D02*
X134764186Y-145738094D01*
X134764186Y-145738094D02*
X134859424Y-145690475D01*
X134859424Y-145690475D02*
X134907044Y-145642856D01*
X134907044Y-145642856D02*
X134954663Y-145547618D01*
X134954663Y-145547618D02*
X134954663Y-145357142D01*
X134954663Y-145357142D02*
X134907044Y-145261904D01*
X134907044Y-145261904D02*
X134859424Y-145214285D01*
X134859424Y-145214285D02*
X134764186Y-145166666D01*
X134764186Y-145166666D02*
X133954663Y-145166666D01*
X134954663Y-144166666D02*
X134954663Y-144738094D01*
X134954663Y-144452380D02*
X133954663Y-144452380D01*
X133954663Y-144452380D02*
X134097520Y-144547618D01*
X134097520Y-144547618D02*
X134192758Y-144642856D01*
X134192758Y-144642856D02*
X134240377Y-144738094D01*
X133954663Y-143547618D02*
X133954663Y-143452380D01*
X133954663Y-143452380D02*
X134002282Y-143357142D01*
X134002282Y-143357142D02*
X134049901Y-143309523D01*
X134049901Y-143309523D02*
X134145139Y-143261904D01*
X134145139Y-143261904D02*
X134335615Y-143214285D01*
X134335615Y-143214285D02*
X134573710Y-143214285D01*
X134573710Y-143214285D02*
X134764186Y-143261904D01*
X134764186Y-143261904D02*
X134859424Y-143309523D01*
X134859424Y-143309523D02*
X134907044Y-143357142D01*
X134907044Y-143357142D02*
X134954663Y-143452380D01*
X134954663Y-143452380D02*
X134954663Y-143547618D01*
X134954663Y-143547618D02*
X134907044Y-143642856D01*
X134907044Y-143642856D02*
X134859424Y-143690475D01*
X134859424Y-143690475D02*
X134764186Y-143738094D01*
X134764186Y-143738094D02*
X134573710Y-143785713D01*
X134573710Y-143785713D02*
X134335615Y-143785713D01*
X134335615Y-143785713D02*
X134145139Y-143738094D01*
X134145139Y-143738094D02*
X134049901Y-143690475D01*
X134049901Y-143690475D02*
X134002282Y-143642856D01*
X134002282Y-143642856D02*
X133954663Y-143547618D01*
X145704663Y-145761904D02*
X146514186Y-145761904D01*
X146514186Y-145761904D02*
X146609424Y-145714285D01*
X146609424Y-145714285D02*
X146657044Y-145666666D01*
X146657044Y-145666666D02*
X146704663Y-145571428D01*
X146704663Y-145571428D02*
X146704663Y-145380952D01*
X146704663Y-145380952D02*
X146657044Y-145285714D01*
X146657044Y-145285714D02*
X146609424Y-145238095D01*
X146609424Y-145238095D02*
X146514186Y-145190476D01*
X146514186Y-145190476D02*
X145704663Y-145190476D01*
X146133234Y-144571428D02*
X146085615Y-144666666D01*
X146085615Y-144666666D02*
X146037996Y-144714285D01*
X146037996Y-144714285D02*
X145942758Y-144761904D01*
X145942758Y-144761904D02*
X145895139Y-144761904D01*
X145895139Y-144761904D02*
X145799901Y-144714285D01*
X145799901Y-144714285D02*
X145752282Y-144666666D01*
X145752282Y-144666666D02*
X145704663Y-144571428D01*
X145704663Y-144571428D02*
X145704663Y-144380952D01*
X145704663Y-144380952D02*
X145752282Y-144285714D01*
X145752282Y-144285714D02*
X145799901Y-144238095D01*
X145799901Y-144238095D02*
X145895139Y-144190476D01*
X145895139Y-144190476D02*
X145942758Y-144190476D01*
X145942758Y-144190476D02*
X146037996Y-144238095D01*
X146037996Y-144238095D02*
X146085615Y-144285714D01*
X146085615Y-144285714D02*
X146133234Y-144380952D01*
X146133234Y-144380952D02*
X146133234Y-144571428D01*
X146133234Y-144571428D02*
X146180853Y-144666666D01*
X146180853Y-144666666D02*
X146228472Y-144714285D01*
X146228472Y-144714285D02*
X146323710Y-144761904D01*
X146323710Y-144761904D02*
X146514186Y-144761904D01*
X146514186Y-144761904D02*
X146609424Y-144714285D01*
X146609424Y-144714285D02*
X146657044Y-144666666D01*
X146657044Y-144666666D02*
X146704663Y-144571428D01*
X146704663Y-144571428D02*
X146704663Y-144380952D01*
X146704663Y-144380952D02*
X146657044Y-144285714D01*
X146657044Y-144285714D02*
X146609424Y-144238095D01*
X146609424Y-144238095D02*
X146514186Y-144190476D01*
X146514186Y-144190476D02*
X146323710Y-144190476D01*
X146323710Y-144190476D02*
X146228472Y-144238095D01*
X146228472Y-144238095D02*
X146180853Y-144285714D01*
X146180853Y-144285714D02*
X146133234Y-144380952D01*
X141504761Y-150449901D02*
X141409523Y-150402282D01*
X141409523Y-150402282D02*
X141314285Y-150307044D01*
X141314285Y-150307044D02*
X141171428Y-150164186D01*
X141171428Y-150164186D02*
X141076190Y-150116567D01*
X141076190Y-150116567D02*
X140980952Y-150116567D01*
X141028571Y-150354663D02*
X140933333Y-150307044D01*
X140933333Y-150307044D02*
X140838095Y-150211805D01*
X140838095Y-150211805D02*
X140790476Y-150021329D01*
X140790476Y-150021329D02*
X140790476Y-149687996D01*
X140790476Y-149687996D02*
X140838095Y-149497520D01*
X140838095Y-149497520D02*
X140933333Y-149402282D01*
X140933333Y-149402282D02*
X141028571Y-149354663D01*
X141028571Y-149354663D02*
X141219047Y-149354663D01*
X141219047Y-149354663D02*
X141314285Y-149402282D01*
X141314285Y-149402282D02*
X141409523Y-149497520D01*
X141409523Y-149497520D02*
X141457142Y-149687996D01*
X141457142Y-149687996D02*
X141457142Y-150021329D01*
X141457142Y-150021329D02*
X141409523Y-150211805D01*
X141409523Y-150211805D02*
X141314285Y-150307044D01*
X141314285Y-150307044D02*
X141219047Y-150354663D01*
X141219047Y-150354663D02*
X141028571Y-150354663D01*
X142409523Y-150354663D02*
X141838095Y-150354663D01*
X142123809Y-150354663D02*
X142123809Y-149354663D01*
X142123809Y-149354663D02*
X142028571Y-149497520D01*
X142028571Y-149497520D02*
X141933333Y-149592758D01*
X141933333Y-149592758D02*
X141838095Y-149640377D01*
X144238095Y-129954663D02*
X144238095Y-130764186D01*
X144238095Y-130764186D02*
X144285714Y-130859424D01*
X144285714Y-130859424D02*
X144333333Y-130907044D01*
X144333333Y-130907044D02*
X144428571Y-130954663D01*
X144428571Y-130954663D02*
X144619047Y-130954663D01*
X144619047Y-130954663D02*
X144714285Y-130907044D01*
X144714285Y-130907044D02*
X144761904Y-130859424D01*
X144761904Y-130859424D02*
X144809523Y-130764186D01*
X144809523Y-130764186D02*
X144809523Y-129954663D01*
X145190476Y-129954663D02*
X145857142Y-129954663D01*
X145857142Y-129954663D02*
X145428571Y-130954663D01*
D11*
X149288095Y-140504819D02*
X149288095Y-141314342D01*
X149288095Y-141314342D02*
X149335714Y-141409580D01*
X149335714Y-141409580D02*
X149383333Y-141457200D01*
X149383333Y-141457200D02*
X149478571Y-141504819D01*
X149478571Y-141504819D02*
X149669047Y-141504819D01*
X149669047Y-141504819D02*
X149764285Y-141457200D01*
X149764285Y-141457200D02*
X149811904Y-141409580D01*
X149811904Y-141409580D02*
X149859523Y-141314342D01*
X149859523Y-141314342D02*
X149859523Y-140504819D01*
X150288095Y-140600057D02*
X150335714Y-140552438D01*
X150335714Y-140552438D02*
X150430952Y-140504819D01*
X150430952Y-140504819D02*
X150669047Y-140504819D01*
X150669047Y-140504819D02*
X150764285Y-140552438D01*
X150764285Y-140552438D02*
X150811904Y-140600057D01*
X150811904Y-140600057D02*
X150859523Y-140695295D01*
X150859523Y-140695295D02*
X150859523Y-140790533D01*
X150859523Y-140790533D02*
X150811904Y-140933390D01*
X150811904Y-140933390D02*
X150240476Y-141504819D01*
X150240476Y-141504819D02*
X150859523Y-141504819D01*
X146438095Y-142204819D02*
X146438095Y-143014342D01*
X146438095Y-143014342D02*
X146485714Y-143109580D01*
X146485714Y-143109580D02*
X146533333Y-143157200D01*
X146533333Y-143157200D02*
X146628571Y-143204819D01*
X146628571Y-143204819D02*
X146819047Y-143204819D01*
X146819047Y-143204819D02*
X146914285Y-143157200D01*
X146914285Y-143157200D02*
X146961904Y-143109580D01*
X146961904Y-143109580D02*
X147009523Y-143014342D01*
X147009523Y-143014342D02*
X147009523Y-142204819D01*
X148009523Y-143204819D02*
X147438095Y-143204819D01*
X147723809Y-143204819D02*
X147723809Y-142204819D01*
X147723809Y-142204819D02*
X147628571Y-142347676D01*
X147628571Y-142347676D02*
X147533333Y-142442914D01*
X147533333Y-142442914D02*
X147438095Y-142490533D01*
D12*
X143454663Y-145761904D02*
X144264186Y-145761904D01*
X144264186Y-145761904D02*
X144359424Y-145714285D01*
X144359424Y-145714285D02*
X144407044Y-145666666D01*
X144407044Y-145666666D02*
X144454663Y-145571428D01*
X144454663Y-145571428D02*
X144454663Y-145380952D01*
X144454663Y-145380952D02*
X144407044Y-145285714D01*
X144407044Y-145285714D02*
X144359424Y-145238095D01*
X144359424Y-145238095D02*
X144264186Y-145190476D01*
X144264186Y-145190476D02*
X143454663Y-145190476D01*
X144454663Y-144666666D02*
X144454663Y-144476190D01*
X144454663Y-144476190D02*
X144407044Y-144380952D01*
X144407044Y-144380952D02*
X144359424Y-144333333D01*
X144359424Y-144333333D02*
X144216567Y-144238095D01*
X144216567Y-144238095D02*
X144026091Y-144190476D01*
X144026091Y-144190476D02*
X143645139Y-144190476D01*
X143645139Y-144190476D02*
X143549901Y-144238095D01*
X143549901Y-144238095D02*
X143502282Y-144285714D01*
X143502282Y-144285714D02*
X143454663Y-144380952D01*
X143454663Y-144380952D02*
X143454663Y-144571428D01*
X143454663Y-144571428D02*
X143502282Y-144666666D01*
X143502282Y-144666666D02*
X143549901Y-144714285D01*
X143549901Y-144714285D02*
X143645139Y-144761904D01*
X143645139Y-144761904D02*
X143883234Y-144761904D01*
X143883234Y-144761904D02*
X143978472Y-144714285D01*
X143978472Y-144714285D02*
X144026091Y-144666666D01*
X144026091Y-144666666D02*
X144073710Y-144571428D01*
X144073710Y-144571428D02*
X144073710Y-144380952D01*
X144073710Y-144380952D02*
X144026091Y-144285714D01*
X144026091Y-144285714D02*
X143978472Y-144238095D01*
X143978472Y-144238095D02*
X143883234Y-144190476D01*
X140190476Y-143704663D02*
X140857142Y-144704663D01*
X140857142Y-143704663D02*
X140190476Y-144704663D01*
X141761904Y-144704663D02*
X141190476Y-144704663D01*
X141476190Y-144704663D02*
X141476190Y-143704663D01*
X141476190Y-143704663D02*
X141380952Y-143847520D01*
X141380952Y-143847520D02*
X141285714Y-143942758D01*
X141285714Y-143942758D02*
X141190476Y-143990377D01*
X144238095Y-142204663D02*
X144238095Y-143014186D01*
X144238095Y-143014186D02*
X144285714Y-143109424D01*
X144285714Y-143109424D02*
X144333333Y-143157044D01*
X144333333Y-143157044D02*
X144428571Y-143204663D01*
X144428571Y-143204663D02*
X144619047Y-143204663D01*
X144619047Y-143204663D02*
X144714285Y-143157044D01*
X144714285Y-143157044D02*
X144761904Y-143109424D01*
X144761904Y-143109424D02*
X144809523Y-143014186D01*
X144809523Y-143014186D02*
X144809523Y-142204663D01*
X145714285Y-142204663D02*
X145523809Y-142204663D01*
X145523809Y-142204663D02*
X145428571Y-142252282D01*
X145428571Y-142252282D02*
X145380952Y-142299901D01*
X145380952Y-142299901D02*
X145285714Y-142442758D01*
X145285714Y-142442758D02*
X145238095Y-142633234D01*
X145238095Y-142633234D02*
X145238095Y-143014186D01*
X145238095Y-143014186D02*
X145285714Y-143109424D01*
X145285714Y-143109424D02*
X145333333Y-143157044D01*
X145333333Y-143157044D02*
X145428571Y-143204663D01*
X145428571Y-143204663D02*
X145619047Y-143204663D01*
X145619047Y-143204663D02*
X145714285Y-143157044D01*
X145714285Y-143157044D02*
X145761904Y-143109424D01*
X145761904Y-143109424D02*
X145809523Y-143014186D01*
X145809523Y-143014186D02*
X145809523Y-142776091D01*
X145809523Y-142776091D02*
X145761904Y-142680853D01*
X145761904Y-142680853D02*
X145714285Y-142633234D01*
X145714285Y-142633234D02*
X145619047Y-142585615D01*
X145619047Y-142585615D02*
X145428571Y-142585615D01*
X145428571Y-142585615D02*
X145333333Y-142633234D01*
X145333333Y-142633234D02*
X145285714Y-142680853D01*
X145285714Y-142680853D02*
X145238095Y-142776091D01*
D13*
%TO.C,TP7*%
X144600000Y-127350000D02*
X146500000Y-127350000D01*
X144600000Y-129250000D02*
X144600000Y-127350000D01*
X146500000Y-127350000D02*
X146500000Y-129250000D01*
X146500000Y-129250000D02*
X144600000Y-129250000D01*
%TO.C,TP5*%
X133500000Y-127350000D02*
X135400000Y-127350000D01*
X133500000Y-129250000D02*
X133500000Y-127350000D01*
X135400000Y-127350000D02*
X135400000Y-129250000D01*
X135400000Y-129250000D02*
X133500000Y-129250000D01*
%TO.C,J1*%
X143490000Y-150815000D02*
X144540000Y-150815000D01*
X143490000Y-153315000D02*
X143490000Y-150815000D01*
X144540000Y-150815000D02*
X144540000Y-149825000D01*
X144660000Y-155285000D02*
X148540000Y-155285000D01*
X149710000Y-150815000D02*
X148660000Y-150815000D01*
X149710000Y-153315000D02*
X149710000Y-150815000D01*
%TO.C,U12*%
X133540000Y-131750000D02*
X133540000Y-131150000D01*
X134960000Y-132350000D02*
X134960000Y-131150000D01*
%TO.C,F1*%
X135390000Y-132587221D02*
X135390000Y-132912779D01*
X136410000Y-132587221D02*
X136410000Y-132912779D01*
D11*
%TO.C,U3*%
X137250000Y-134350000D02*
X140350000Y-134350000D01*
X137800000Y-132050000D02*
X140300000Y-132050000D01*
%TO.C,U4*%
X137750000Y-146950000D02*
X137750000Y-148550000D01*
X142250000Y-146650000D02*
X142250000Y-148550000D01*
D13*
%TO.C,U13*%
X130840000Y-131450000D02*
X130840000Y-130850000D01*
X132260000Y-132050000D02*
X132260000Y-130850000D01*
%TO.C,D1*%
X147550000Y-132950000D02*
X146400000Y-132950000D01*
X148000000Y-134850000D02*
X146400000Y-134850000D01*
%TO.C,U11*%
X133100000Y-146350000D02*
X133100000Y-147650000D01*
X133100000Y-147650000D02*
X134900000Y-147650000D01*
X134500000Y-146350000D02*
X133100000Y-146350000D01*
X134900000Y-147650000D02*
X134900000Y-146650000D01*
%TO.C,U10*%
X135350000Y-146350000D02*
X135350000Y-147650000D01*
X135350000Y-147650000D02*
X137150000Y-147650000D01*
X136750000Y-146350000D02*
X135350000Y-146350000D01*
X137150000Y-147650000D02*
X137150000Y-146650000D01*
D10*
%TO.C,D3*%
X128410000Y-131800000D02*
G75*
G02*
X128310000Y-131800000I-50000J0D01*
G01*
X128310000Y-131800000D02*
G75*
G02*
X128410000Y-131800000I50000J0D01*
G01*
D13*
%TO.C,U8*%
X145284924Y-146372478D02*
X145284924Y-147672478D01*
X145284924Y-147672478D02*
X147084924Y-147672478D01*
X146684924Y-146372478D02*
X145284924Y-146372478D01*
X147084924Y-147672478D02*
X147084924Y-146672478D01*
%TO.C,U14*%
X130790000Y-137500000D02*
X130790000Y-136900000D01*
X132210000Y-138100000D02*
X132210000Y-136900000D01*
%TO.C,SW1*%
X129250000Y-151200000D02*
X132550000Y-151200000D01*
X129250000Y-151500000D02*
X129250000Y-151200000D01*
X129250000Y-153700000D02*
X129250000Y-154000000D01*
X129250000Y-154000000D02*
X132550000Y-154000000D01*
X132550000Y-151200000D02*
X132550000Y-151500000D01*
X132550000Y-154000000D02*
X132550000Y-153700000D01*
D11*
%TO.C,Q1*%
X140600000Y-151500000D02*
X142200000Y-151500000D01*
X142200000Y-153300000D02*
X141000000Y-153300000D01*
%TO.C,U7*%
X141650000Y-131200000D02*
X142850000Y-131200000D01*
X143250000Y-133000000D02*
X141650000Y-133000000D01*
D13*
%TO.C,U2*%
X149980000Y-142330000D02*
X149980000Y-143770000D01*
X149980000Y-143770000D02*
X151500000Y-143770000D01*
X151500000Y-141830000D02*
X150470000Y-141830000D01*
X151500000Y-143770000D02*
X151500000Y-141830000D01*
X150140000Y-141960000D02*
X149860000Y-141960000D01*
X150140000Y-141680000D01*
X150140000Y-141960000D01*
G36*
X150140000Y-141960000D02*
G01*
X149860000Y-141960000D01*
X150140000Y-141680000D01*
X150140000Y-141960000D01*
G37*
%TO.C,U1*%
X148180000Y-141830000D02*
X148180000Y-143770000D01*
X148180000Y-143770000D02*
X149210000Y-143770000D01*
X149700000Y-141830000D02*
X148180000Y-141830000D01*
X149700000Y-143270000D02*
X149700000Y-141830000D01*
X149540000Y-143920000D02*
X149540000Y-143640000D01*
X149820000Y-143640000D01*
X149540000Y-143920000D01*
G36*
X149540000Y-143920000D02*
G01*
X149540000Y-143640000D01*
X149820000Y-143640000D01*
X149540000Y-143920000D01*
G37*
D10*
%TO.C,D2*%
X149140000Y-145200000D02*
G75*
G02*
X149040000Y-145200000I-50000J0D01*
G01*
X149040000Y-145200000D02*
G75*
G02*
X149140000Y-145200000I50000J0D01*
G01*
D13*
%TO.C,U9*%
X143034924Y-146372478D02*
X143034924Y-147672478D01*
X143034924Y-147672478D02*
X144834924Y-147672478D01*
X144434924Y-146372478D02*
X143034924Y-146372478D01*
X144834924Y-147672478D02*
X144834924Y-146672478D01*
D11*
%TO.C,X1*%
X136950000Y-145550000D02*
X136950000Y-146050000D01*
X136950000Y-146050000D02*
X137400000Y-146050000D01*
D13*
%TO.C,U6*%
X136390000Y-143110000D02*
X136390000Y-142460000D01*
X137040000Y-135890000D02*
X136390000Y-135890000D01*
X137040000Y-143110000D02*
X136390000Y-143110000D01*
X142960000Y-135890000D02*
X143610000Y-135890000D01*
X142960000Y-143110000D02*
X143610000Y-143110000D01*
X143610000Y-135890000D02*
X143610000Y-136540000D01*
X143610000Y-143110000D02*
X143610000Y-142460000D01*
%TD*%
M02*
