M48
; DRILL file {KiCad 9.0.0-9.0.0-2~ubuntu24.04.1} date 2025-03-19T08:39:53-0400
; FORMAT={-:-/ absolute / inch / decimal}
; #@! TF.CreationDate,2025-03-19T08:39:53-04:00
; #@! TF.GenerationSoftware,Kicad,Pcbnew,9.0.0-9.0.0-2~ubuntu24.04.1
; #@! TF.FileFunction,Plated,1,2,PTH
FMAT,2
INCH
; #@! TA.AperFunction,Plated,PTH,ViaDrill
T1C0.0118
; #@! TA.AperFunction,Plated,PTH,ComponentDrill
T2C0.0118
; #@! TA.AperFunction,Plated,PTH,ViaDrill
T3C0.0138
%
G90
G05
T1
X5.0709Y-5.1586
X5.0712Y-5.6969
X5.0849Y-5.2656
X5.0849Y-5.5
X5.0849Y-5.6218
X5.0944Y-5.4018
X5.0944Y-5.3462
X5.0945Y-5.2283
X5.0945Y-5.4331
X5.1024Y-5.6614
X5.1102Y-5.5984
X5.1157Y-5.635
X5.125Y-5.4362
X5.1299Y-5.8898
X5.1299Y-5.9213
X5.1299Y-5.9528
X5.1299Y-5.9843
X5.1329Y-5.3888
X5.1378Y-5.6693
X5.139Y-5.3465
X5.1535Y-6.0079
X5.1673Y-5.6496
X5.1732Y-5.7087
X5.1732Y-5.748
X5.1732Y-5.7874
X5.1813Y-6.0079
X5.1953Y-5.3624
X5.1967Y-5.9291
X5.1969Y-5.6908
X5.2067Y-5.6496
X5.2087Y-5.8307
X5.2167Y-5.1991
X5.2205Y-5.7087
X5.2205Y-5.7402
X5.2244Y-5.9291
X5.2264Y-5.5807
X5.2265Y-5.4297
X5.2362Y-5.3898
X5.2369Y-5.2382
X5.2372Y-5.2953
X5.2374Y-5.5513
X5.2375Y-5.5118
X5.2414Y-5.477
X5.2418Y-5.6068
X5.2559Y-5.5807
X5.2677Y-5.126
X5.2744Y-5.7258
X5.2756Y-5.2953
X5.2756Y-5.8256
X5.277Y-5.3383
X5.2773Y-5.661
X5.2931Y-5.7488
X5.2933Y-5.0512
X5.3023Y-5.6948
X5.3052Y-5.8256
X5.3054Y-5.5789
X5.3071Y-5.1181
X5.3141Y-5.2075
X5.3224Y-5.7533
X5.3346Y-5.5742
X5.3386Y-5.4567
X5.3413Y-5.5454
X5.3465Y-5.1339
X5.3542Y-5.8256
X5.3579Y-5.653
X5.3656Y-5.3293
X5.3812Y-5.7451
X5.3818Y-5.6181
X5.3839Y-5.8256
X5.3869Y-5.1969
X5.4114Y-5.2992
X5.4173Y-5.1181
X5.418Y-5.5236
X5.431Y-5.4528
X5.4409Y-5.2441
X5.4528Y-5.7165
X5.4528Y-5.7402
X5.4591Y-5.1523
X5.4626Y-5.4113
X5.4882Y-5.2362
X5.4921Y-5.4113
X5.4938Y-5.3174
X5.4961Y-5.9488
X5.4986Y-5.151
X5.5039Y-5.8976
X5.5197Y-6.0197
X5.5355Y-5.5859
X5.5455Y-5.3993
X5.5457Y-5.6625
X5.5528Y-5.7319
X5.5741Y-5.3919
X5.5786Y-5.6624
X5.5807Y-5.3031
X5.5823Y-5.719
X5.6093Y-5.2393
X5.6121Y-5.4409
X5.6121Y-5.5107
X5.6181Y-6.0551
X5.6378Y-5.8898
X5.6417Y-5.2441
X5.6496Y-5.6299
X5.6535Y-5.1811
X5.6643Y-5.8277
X5.6693Y-5.2441
X5.6693Y-5.748
X5.6811Y-5.1181
X5.6811Y-5.1457
X5.6811Y-5.6614
X5.689Y-5.6003
X5.6939Y-5.8277
X5.6989Y-5.748
X5.7008Y-5.4567
X5.7087Y-5.1181
X5.7087Y-5.1457
X5.7126Y-5.9764
X5.7185Y-5.3051
X5.7205Y-5.6378
X5.7283Y-5.0492
X5.7283Y-5.5216
X5.7283Y-5.5512
X5.7323Y-5.3609
X5.7355Y-5.8277
X5.7382Y-5.4345
X5.7441Y-5.6614
X5.748Y-5.1575
X5.7499Y-5.7472
X5.752Y-5.9764
X5.7652Y-5.8277
X5.7771Y-5.6884
X5.7795Y-5.748
X5.7795Y-5.5039
X5.7795Y-5.5317
X5.78Y-5.7179
X5.7845Y-5.8475
X5.7874Y-5.1969
X5.8031Y-5.8031
X5.8071Y-5.4705
X5.8071Y-5.5
X5.8189Y-5.6142
X5.8189Y-5.6419
X5.8268Y-5.1575
X5.8386Y-5.5591
X5.8386Y-5.8071
X5.8638Y-5.6614
X5.8661Y-5.1969
X5.8661Y-5.8661
X5.8819Y-5.7244
X5.8874Y-5.5748
X5.8949Y-5.6614
X5.8976Y-5.622
X5.9055Y-5.1575
X5.9055Y-5.2362
X5.9189Y-5.5748
X5.9252Y-6.0118
X5.9346Y-5.6614
X5.937Y-5.6969
X5.9449Y-5.1969
X5.9504Y-5.5748
T2
X5.4616Y-5.4419
X5.4616Y-5.4921
X5.4616Y-5.5423
X5.5118Y-5.4419
X5.5118Y-5.4921
X5.5118Y-5.5423
X5.562Y-5.4419
X5.562Y-5.4921
X5.562Y-5.5423
T3
X5.4605Y-5.1186
X5.5945Y-5.1188
M30
