%TF.GenerationSoftware,KiCad,Pcbnew,9.0.0-9.0.0-2~ubuntu24.04.1*%
%TF.CreationDate,2025-03-19T08:39:51-04:00*%
%TF.ProjectId,Expansion_Card_rs-probe,45787061-6e73-4696-9f6e-5f436172645f,X1*%
%TF.SameCoordinates,Original*%
%TF.FileFunction,Copper,L2,Bot*%
%TF.FilePolarity,Positive*%
%FSLAX46Y46*%
G04 Gerber Fmt 4.6, Leading zero omitted, Abs format (unit mm)*
G04 Created by KiCad (PCBNEW 9.0.0-9.0.0-2~ubuntu24.04.1) date 2025-03-19 08:39:51*
%MOMM*%
%LPD*%
G01*
G04 APERTURE LIST*
G04 Aperture macros list*
%AMRoundRect*
0 Rectangle with rounded corners*
0 $1 Rounding radius*
0 $2 $3 $4 $5 $6 $7 $8 $9 X,Y pos of 4 corners*
0 Add a 4 corners polygon primitive as box body*
4,1,4,$2,$3,$4,$5,$6,$7,$8,$9,$2,$3,0*
0 Add four circle primitives for the rounded corners*
1,1,$1+$1,$2,$3*
1,1,$1+$1,$4,$5*
1,1,$1+$1,$6,$7*
1,1,$1+$1,$8,$9*
0 Add four rect primitives between the rounded corners*
20,1,$1+$1,$2,$3,$4,$5,0*
20,1,$1+$1,$4,$5,$6,$7,0*
20,1,$1+$1,$6,$7,$8,$9,0*
20,1,$1+$1,$8,$9,$2,$3,0*%
G04 Aperture macros list end*
%TA.AperFunction,SMDPad,CuDef*%
%ADD10R,0.380000X1.000000*%
%TD*%
%TA.AperFunction,SMDPad,CuDef*%
%ADD11R,0.700000X1.150000*%
%TD*%
%TA.AperFunction,ComponentPad*%
%ADD12C,0.600000*%
%TD*%
%TA.AperFunction,SMDPad,CuDef*%
%ADD13R,1.500000X1.500000*%
%TD*%
%TA.AperFunction,SMDPad,CuDef*%
%ADD14C,1.000000*%
%TD*%
%TA.AperFunction,SMDPad,CuDef*%
%ADD15RoundRect,0.125000X-0.125000X-1.725000X0.125000X-1.725000X0.125000X1.725000X-0.125000X1.725000X0*%
%TD*%
%TA.AperFunction,ConnectorPad*%
%ADD16C,0.787400*%
%TD*%
%TA.AperFunction,ViaPad*%
%ADD17C,0.600000*%
%TD*%
%TA.AperFunction,ViaPad*%
%ADD18C,0.650000*%
%TD*%
%TA.AperFunction,Conductor*%
%ADD19C,0.152400*%
%TD*%
%TA.AperFunction,Conductor*%
%ADD20C,0.203200*%
%TD*%
%TA.AperFunction,Conductor*%
%ADD21C,0.127000*%
%TD*%
%TA.AperFunction,Conductor*%
%ADD22C,0.254000*%
%TD*%
%TA.AperFunction,Conductor*%
%ADD23C,0.200000*%
%TD*%
G04 APERTURE END LIST*
D10*
%TO.P,P1,B1,GND*%
%TO.N,GND*%
X142750000Y-129040000D03*
%TO.P,P1,B2*%
%TO.N,N/C*%
X142250000Y-129040000D03*
%TO.P,P1,B3*%
X141750000Y-129040000D03*
%TO.P,P1,B4,VBUS*%
%TO.N,+5V*%
X141250000Y-129040000D03*
%TO.P,P1,B5,VCONN*%
%TO.N,unconnected-(P1-VCONN-PadB5)*%
X140750000Y-129040000D03*
%TO.P,P1,B8*%
%TO.N,N/C*%
X139250000Y-129040000D03*
%TO.P,P1,B9,VBUS*%
%TO.N,+5V*%
X138750000Y-129040000D03*
%TO.P,P1,B10*%
%TO.N,N/C*%
X138250000Y-129040000D03*
%TO.P,P1,B11*%
X137750000Y-129040000D03*
%TO.P,P1,B12,GND*%
%TO.N,GND*%
X137250000Y-129040000D03*
D11*
%TO.P,P1,S1,SHIELD*%
X143420000Y-129880000D03*
%TD*%
D12*
%TO.P,U6,57,GND*%
%TO.N,GND*%
X138725000Y-138225000D03*
X138725000Y-139500000D03*
X138725000Y-140775000D03*
X140000000Y-138225000D03*
X140000000Y-139500000D03*
X140000000Y-140775000D03*
X141275000Y-138225000D03*
X141275000Y-139500000D03*
X141275000Y-140775000D03*
%TD*%
D13*
%TO.P,TP6,1,1*%
%TO.N,GND*%
X134450000Y-128300000D03*
%TD*%
%TO.P,TP8,1,1*%
%TO.N,GND*%
X145550000Y-128300000D03*
%TD*%
D14*
%TO.P,TP3,1,1*%
%TO.N,/SWDCLK_JCLK*%
X137500000Y-145250000D03*
%TD*%
%TO.P,TP4,1,1*%
%TO.N,/SWDIO_TMS*%
X133300277Y-144326983D03*
%TD*%
%TO.P,TP2,1,1*%
%TO.N,/DIR_SWDCLK_JCLK*%
X138000000Y-147250000D03*
%TD*%
D15*
%TO.P,U5,1,T_VCC*%
%TO.N,/T_VCC*%
X133660000Y-152060203D03*
%TO.P,U5,3,GND*%
%TO.N,GND*%
X134930000Y-152060203D03*
%TO.P,U5,5,GND*%
X136200000Y-152060203D03*
%TO.P,U5,7,T_JRCLK*%
%TO.N,/5V_KEY*%
X137470000Y-152060203D03*
%TO.P,U5,9,GNDDetect*%
%TO.N,/T_GNDDetect*%
X138740000Y-152060203D03*
%TD*%
D16*
%TO.P,J5,1,VCC*%
%TO.N,+3.3V*%
X150635000Y-136130000D03*
%TO.P,J5,2,SWDIO*%
%TO.N,/P_SWDIO*%
X149365000Y-136130000D03*
%TO.P,J5,3,~{RESET}*%
%TO.N,unconnected-(J5-~{RESET}-Pad3)*%
X150635000Y-137400000D03*
%TO.P,J5,4,SWCLK*%
%TO.N,/P_SWCLK*%
X149365000Y-137400000D03*
%TO.P,J5,5,GND*%
%TO.N,GND*%
X150635000Y-138670000D03*
%TO.P,J5,6,SWO*%
%TO.N,unconnected-(J5-SWO-Pad6)*%
X149365000Y-138670000D03*
%TD*%
D14*
%TO.P,TP1,1,1*%
%TO.N,/DIR_SWDIO_TMS*%
X133657164Y-146866321D03*
%TD*%
D17*
%TO.N,GND*%
X130300000Y-152000000D03*
X130300000Y-151200000D03*
X130300000Y-150400000D03*
X130300000Y-149600000D03*
X133029146Y-141003147D03*
X137600000Y-130000000D03*
X131400000Y-145000000D03*
X129800000Y-142200000D03*
X129155600Y-142793288D03*
X148000000Y-131000000D03*
X144000000Y-146000000D03*
X129398549Y-135794230D03*
X145000000Y-130000000D03*
X145000000Y-130700000D03*
X129400000Y-138000000D03*
X129398367Y-137205725D03*
X144000000Y-133200000D03*
X149000000Y-149000000D03*
X139800000Y-149800000D03*
X135600000Y-138600000D03*
X133800000Y-130200000D03*
X129155600Y-139700000D03*
X130900000Y-152600000D03*
X142700000Y-153800000D03*
X132750000Y-141750000D03*
X143300000Y-133200000D03*
X146046590Y-145979190D03*
X136089666Y-143587221D03*
X132600000Y-145000000D03*
X132600000Y-145800000D03*
X144300000Y-130000000D03*
X147000000Y-132000000D03*
X149000000Y-132000000D03*
X149400000Y-145400000D03*
X133000000Y-136900000D03*
X133032200Y-140000000D03*
X132700000Y-150600000D03*
X132250000Y-143500000D03*
X134000000Y-134500000D03*
X143500000Y-143000000D03*
X146000000Y-131000000D03*
X150800000Y-144700000D03*
X144300000Y-143800000D03*
X131400000Y-147000000D03*
X133017329Y-133050000D03*
X145300000Y-143200000D03*
X147500000Y-138950000D03*
X145100000Y-151800000D03*
X144300000Y-130700000D03*
X145500000Y-128250000D03*
X145900000Y-143800000D03*
X150000000Y-133000000D03*
X145250000Y-134750000D03*
X138660401Y-130868788D03*
X134450000Y-128300000D03*
X150000000Y-131000000D03*
X131400000Y-146000000D03*
X137450000Y-134600000D03*
X138500000Y-145800000D03*
X130500000Y-144000000D03*
X130531800Y-135800000D03*
X129600000Y-143800000D03*
X149800000Y-142800000D03*
X151000000Y-132000000D03*
X134035608Y-135592601D03*
X128800000Y-131027610D03*
X143200000Y-149600000D03*
X135800000Y-130400000D03*
X148300000Y-141200000D03*
X150500000Y-152700000D03*
X129155600Y-133746848D03*
X138500000Y-145200000D03*
X133500000Y-141750000D03*
X136697460Y-142698600D03*
X138200000Y-133200000D03*
X133969800Y-145435700D03*
X134800000Y-130000000D03*
X131250000Y-143500000D03*
X147500000Y-139700000D03*
%TO.N,+3.3V*%
X139665697Y-130834303D03*
X137947600Y-138500000D03*
X149729949Y-143800000D03*
X133025000Y-134500000D03*
X145600000Y-136166600D03*
X149540000Y-141600000D03*
X146798738Y-145998663D03*
X136682054Y-145926335D03*
X139500000Y-137447600D03*
X144752403Y-146000000D03*
X134445425Y-146018699D03*
X138750000Y-137447600D03*
%TO.N,/FUSED_5V*%
X136286510Y-135363766D03*
X134977879Y-132271704D03*
X130375000Y-136875000D03*
X146811147Y-145233852D03*
%TO.N,+1V1*%
X142548388Y-138200000D03*
X142548388Y-139971400D03*
X141750000Y-134700000D03*
X144800000Y-138600000D03*
X140600936Y-141882600D03*
%TO.N,/TRANS_VCC*%
X129938460Y-143128022D03*
X130176200Y-138080514D03*
X148300000Y-147500000D03*
X136750000Y-147971400D03*
X146434924Y-148022478D03*
X150340000Y-141600000D03*
X148940000Y-143800000D03*
X134752403Y-147971400D03*
X144625321Y-148022478D03*
X132300000Y-148100000D03*
%TO.N,/T_VCC_MEAS*%
X145749643Y-138037000D03*
X134755897Y-141704627D03*
%TO.N,/T_VCC*%
X129400000Y-132800000D03*
X146100000Y-151800000D03*
X128807291Y-144702387D03*
X131995997Y-150600000D03*
D18*
%TO.N,+5V*%
X138696400Y-130013392D03*
X142100000Y-130017402D03*
D17*
%TO.N,/5V_KEY*%
X140200000Y-152900000D03*
%TO.N,/P_SWDIO*%
X141697350Y-143824877D03*
%TO.N,/P_SWCLK*%
X140861494Y-143827382D03*
%TO.N,/5V_KEY_EN*%
X146737509Y-144485064D03*
X137617400Y-140300000D03*
%TO.N,/PWM_VS*%
X131960129Y-136205826D03*
X132752124Y-137915197D03*
%TO.N,Net-(R2-Pad2)*%
X131604003Y-152600000D03*
X131999999Y-144546008D03*
X133142199Y-142411882D03*
X136827400Y-132000000D03*
%TO.N,/DIR_SWDIO_TMS*%
X134677556Y-144648348D03*
X134000000Y-147971400D03*
%TO.N,/DIR_SWDCLK_JCLK*%
X144501223Y-142248777D03*
X135997597Y-147971400D03*
%TO.N,/SWDCLK_JCLK*%
X135188779Y-146135033D03*
%TO.N,/SWDIO_TMS*%
X134042554Y-143788242D03*
%TO.N,Net-(U1-B)*%
X147800000Y-142600000D03*
X147400000Y-147400000D03*
%TO.N,/DIR_VCP_RX*%
X147800000Y-143304003D03*
X146800000Y-139800000D03*
%TO.N,/DIR_VCP_TX*%
X151140000Y-141600000D03*
X146800000Y-140504003D03*
%TO.N,Net-(U3-IO3)*%
X139542800Y-135062000D03*
X139400000Y-133000000D03*
%TO.N,/~{RESET}*%
X141790523Y-145261923D03*
X135498724Y-141584972D03*
%TO.N,/T_GNDDetect*%
X139600000Y-151100000D03*
%TO.N,/GNDDetect*%
X135669212Y-140852142D03*
X141041501Y-145589053D03*
%TO.N,/T_VCC_EN*%
X132504947Y-132057959D03*
X133131821Y-139115734D03*
%TO.N,/DIR_TDI*%
X145682521Y-148022478D03*
X145500000Y-140247597D03*
%TO.N,/DIR_SWO_TDO*%
X143872918Y-148022478D03*
X145500000Y-141000000D03*
%TO.N,/D_FS_N*%
X141583305Y-136954867D03*
X143600000Y-131600000D03*
%TO.N,/D_FS_P*%
X140854753Y-137142800D03*
X142475259Y-133078730D03*
%TO.N,Net-(U2-B)*%
X150740000Y-143800000D03*
X146925824Y-148527093D03*
%TD*%
D19*
%TO.N,/T_VCC*%
X133660000Y-152060203D02*
X133660000Y-150240000D01*
X139019480Y-149700000D02*
X139600680Y-150281200D01*
X133660000Y-150240000D02*
X134200000Y-149700000D01*
X134200000Y-149700000D02*
X139019480Y-149700000D01*
X139600680Y-150281200D02*
X139881200Y-150281200D01*
X139881200Y-150281200D02*
X141881200Y-152281200D01*
X141881200Y-152281200D02*
X145618800Y-152281200D01*
X145618800Y-152281200D02*
X146100000Y-151800000D01*
%TO.N,/5V_KEY*%
X137470000Y-152060203D02*
X137470000Y-150210204D01*
X139799320Y-150618800D02*
X140200000Y-151019480D01*
X137470000Y-150210204D02*
X137660763Y-150019441D01*
X137660763Y-150019441D02*
X138980559Y-150019441D01*
X138980559Y-150019441D02*
X139579918Y-150618800D01*
X140200000Y-151019480D02*
X140200000Y-152900000D01*
X139579918Y-150618800D02*
X139799320Y-150618800D01*
%TO.N,/T_GNDDetect*%
X138879797Y-152060203D02*
X138740000Y-152060203D01*
X139600000Y-151100000D02*
X139600000Y-151340000D01*
X139600000Y-151340000D02*
X138879797Y-152060203D01*
%TO.N,/T_VCC*%
X131995997Y-150600000D02*
X131995997Y-151095997D01*
X133100000Y-152200000D02*
X133520203Y-152200000D01*
X133520203Y-152200000D02*
X133660000Y-152060203D01*
X131995997Y-151095997D02*
X133100000Y-152200000D01*
%TO.N,+3.3V*%
X149729949Y-143800000D02*
X149729949Y-143549157D01*
D20*
X133025000Y-135365468D02*
X133806133Y-136146601D01*
D19*
X146037827Y-134920225D02*
X146037827Y-135562173D01*
D21*
X134445425Y-146274202D02*
X134822156Y-146650933D01*
D19*
X145600000Y-136000000D02*
X145600000Y-136166600D01*
X150280200Y-142340200D02*
X149540000Y-141600000D01*
D21*
X135649374Y-146650933D02*
X136373972Y-145926335D01*
D20*
X133806133Y-136146601D02*
X134146601Y-136146601D01*
X137947600Y-137802400D02*
X137947600Y-138500000D01*
D19*
X149729949Y-143549157D02*
X150280200Y-142998906D01*
D21*
X134445425Y-146018699D02*
X134445425Y-146274202D01*
D19*
X140071400Y-136876200D02*
X140071400Y-131240006D01*
D20*
X133025000Y-134500000D02*
X133025000Y-135365468D01*
D19*
X146037827Y-135562173D02*
X145600000Y-136000000D01*
D21*
X136373972Y-145926335D02*
X136682054Y-145926335D01*
D20*
X134146601Y-136146601D02*
X135802400Y-137802400D01*
D19*
X145260193Y-146507790D02*
X146289611Y-146507790D01*
X150508748Y-133934800D02*
X147023252Y-133934800D01*
D20*
X135802400Y-137802400D02*
X137947600Y-137802400D01*
D19*
X144752403Y-146000000D02*
X145260193Y-146507790D01*
D20*
X138750000Y-137447600D02*
X138302400Y-137447600D01*
X139500000Y-137447600D02*
X138750000Y-137447600D01*
D19*
X139500000Y-137447600D02*
X140071400Y-136876200D01*
X150635000Y-136130000D02*
X150952500Y-135812500D01*
X150952500Y-135812500D02*
X150952500Y-134378552D01*
D20*
X138302400Y-137447600D02*
X137947600Y-137802400D01*
D19*
X150952500Y-134378552D02*
X150508748Y-133934800D01*
X147023252Y-133934800D02*
X146037827Y-134920225D01*
X140071400Y-131240006D02*
X139665697Y-130834303D01*
D21*
X134822156Y-146650933D02*
X135649374Y-146650933D01*
D19*
X146289611Y-146507790D02*
X146798738Y-145998663D01*
X150280200Y-142998906D02*
X150280200Y-142340200D01*
D22*
%TO.N,/FUSED_5V*%
X136286510Y-135363766D02*
X136286510Y-134944094D01*
D20*
X137577626Y-142144600D02*
X139393094Y-143960068D01*
X130730200Y-142496944D02*
X131063456Y-142830200D01*
D22*
X134977879Y-133635463D02*
X134977879Y-132271704D01*
D20*
X140182701Y-145944781D02*
X140685773Y-146447853D01*
X139393094Y-143960068D02*
X139393094Y-144435614D01*
X133774129Y-142563427D02*
X135936573Y-142563427D01*
X140182701Y-145225221D02*
X140182701Y-145944781D01*
X133371674Y-142965882D02*
X133774129Y-142563427D01*
X140685773Y-146447853D02*
X142352147Y-146447853D01*
X132777042Y-142830200D02*
X132912724Y-142965882D01*
X135936573Y-142563427D02*
X136355400Y-142144600D01*
X146433852Y-145233852D02*
X146811147Y-145233852D01*
D22*
X136286510Y-134944094D02*
X134977879Y-133635463D01*
D20*
X142352147Y-146447853D02*
X144141200Y-144658800D01*
X145858800Y-144658800D02*
X146433852Y-145233852D01*
X130730200Y-137230200D02*
X130730200Y-142496944D01*
X144141200Y-144658800D02*
X145858800Y-144658800D01*
X136355400Y-142144600D02*
X137577626Y-142144600D01*
X131063456Y-142830200D02*
X132777042Y-142830200D01*
X132912724Y-142965882D02*
X133371674Y-142965882D01*
X130375000Y-136875000D02*
X130730200Y-137230200D01*
X139393094Y-144435614D02*
X140182701Y-145225221D01*
D19*
%TO.N,+1V1*%
X142548388Y-138200000D02*
X142548388Y-136548388D01*
X144800000Y-138906888D02*
X143103444Y-140603444D01*
X141071780Y-142353444D02*
X140600936Y-141882600D01*
X143103444Y-140603444D02*
X141353443Y-142353444D01*
X142548388Y-136548388D02*
X141984756Y-135984756D01*
X141984756Y-135984756D02*
X141984756Y-134934756D01*
X144800000Y-138600000D02*
X144800000Y-138906888D01*
X141984756Y-134934756D02*
X141750000Y-134700000D01*
X142548388Y-140048388D02*
X143103444Y-140603444D01*
X142548388Y-139971400D02*
X142548388Y-140048388D01*
X141353443Y-142353444D02*
X141071780Y-142353444D01*
%TO.N,/TRANS_VCC*%
X130400000Y-142800000D02*
X130071978Y-143128022D01*
X148300000Y-147500000D02*
X148020894Y-147500000D01*
X145138722Y-148535879D02*
X144625321Y-148022478D01*
X130071978Y-143128022D02*
X129938460Y-143128022D01*
X143011852Y-148180800D02*
X136959400Y-148180800D01*
X149928855Y-144280200D02*
X149420200Y-144280200D01*
X149420200Y-144280200D02*
X148940000Y-143800000D01*
X134271203Y-148452600D02*
X134752403Y-147971400D01*
X148000000Y-147156948D02*
X148600000Y-146556948D01*
X148020894Y-147500000D02*
X148000000Y-147479106D01*
X145921523Y-148535879D02*
X146434924Y-148022478D01*
X150210149Y-143589851D02*
X150210149Y-143998906D01*
X144096721Y-148551078D02*
X143382130Y-148551078D01*
X150210149Y-143998906D02*
X149928855Y-144280200D01*
X132652600Y-148452600D02*
X134271203Y-148452600D01*
X134752403Y-147971400D02*
X135281003Y-148500000D01*
X145138722Y-148535879D02*
X145921523Y-148535879D01*
X132300000Y-148100000D02*
X132652600Y-148452600D01*
X136959400Y-148180800D02*
X136750000Y-147971400D01*
X136221400Y-148500000D02*
X136750000Y-147971400D01*
X143382130Y-148551078D02*
X143011852Y-148180800D01*
X147456628Y-148022478D02*
X148000000Y-147479106D01*
X150340000Y-141600000D02*
X150532601Y-141792601D01*
X148000000Y-147479106D02*
X148000000Y-147156948D01*
X130400000Y-138304314D02*
X130400000Y-142800000D01*
X150532601Y-143267399D02*
X150210149Y-143589851D01*
X150532601Y-141792601D02*
X150532601Y-143267399D01*
X148600000Y-144140000D02*
X148940000Y-143800000D01*
X148600000Y-146556948D02*
X148600000Y-144140000D01*
X130176200Y-138080514D02*
X130400000Y-138304314D01*
X135281003Y-148500000D02*
X136221400Y-148500000D01*
X144625321Y-148022478D02*
X144096721Y-148551078D01*
X146434924Y-148022478D02*
X147456628Y-148022478D01*
%TO.N,/T_VCC_MEAS*%
X135140612Y-141071096D02*
X135140612Y-140633188D01*
X138102446Y-140900000D02*
X140402446Y-143200000D01*
X140402446Y-143200000D02*
X140937939Y-143200000D01*
X140937939Y-143200000D02*
X145749643Y-138388296D01*
X136073542Y-140323542D02*
X136650000Y-140900000D01*
X135450258Y-140323542D02*
X136073542Y-140323542D01*
X136650000Y-140900000D02*
X138102446Y-140900000D01*
X145749643Y-138388296D02*
X145749643Y-138037000D01*
X135140612Y-140633188D02*
X135450258Y-140323542D01*
X134755897Y-141455811D02*
X135140612Y-141071096D01*
X134755897Y-141704627D02*
X134755897Y-141455811D01*
D20*
%TO.N,/T_VCC*%
X129179783Y-132800000D02*
X129400000Y-132800000D01*
X128807291Y-144702387D02*
X128601600Y-144496696D01*
X128601600Y-144496696D02*
X128601600Y-133378183D01*
X128601600Y-133378183D02*
X129179783Y-132800000D01*
%TO.N,+5V*%
X142100000Y-130017402D02*
X141529402Y-130017402D01*
X142100000Y-130017402D02*
X142095990Y-130013392D01*
X138750000Y-129040000D02*
X138750000Y-129959792D01*
X141250000Y-129738000D02*
X141250000Y-129040000D01*
X141529402Y-130017402D02*
X141250000Y-129738000D01*
X138750000Y-129959792D02*
X138696400Y-130013392D01*
X142095990Y-130013392D02*
X138696400Y-130013392D01*
D19*
%TO.N,/P_SWDIO*%
X146800000Y-136168440D02*
X147056920Y-135911520D01*
X149135000Y-134380000D02*
X149135000Y-135380000D01*
X148153080Y-135606720D02*
X146416920Y-135606720D01*
X147378840Y-135180000D02*
X147439800Y-135180000D01*
X148476120Y-134501920D02*
X148476120Y-135058080D01*
X146800000Y-138199999D02*
X146800000Y-136168440D01*
X149135000Y-135900000D02*
X149365000Y-136130000D01*
X146935000Y-134380000D02*
X147135000Y-134380000D01*
X148780920Y-135058080D02*
X148780920Y-134501920D01*
X148902840Y-134380000D02*
X148963800Y-134380000D01*
X147056920Y-135911520D02*
X148153080Y-135911520D01*
X147866520Y-134501920D02*
X147866520Y-135058080D01*
X141697350Y-143824877D02*
X141697350Y-143302693D01*
X146935000Y-135180000D02*
X146935000Y-134380000D01*
X149135000Y-135380000D02*
X149135000Y-135900000D01*
X147256920Y-134501920D02*
X147256920Y-135058080D01*
X148171320Y-135058080D02*
X148171320Y-134501920D01*
X146295000Y-135484800D02*
X146295000Y-135423840D01*
X141697350Y-143302693D02*
X146800022Y-138200021D01*
X148598040Y-135180000D02*
X148659000Y-135180000D01*
X146800022Y-138200021D02*
X146800000Y-138199999D01*
X147561720Y-135058080D02*
X147561720Y-134501920D01*
X148963800Y-134380000D02*
X149135000Y-134380000D01*
X147683640Y-134380000D02*
X147744600Y-134380000D01*
X148293240Y-134380000D02*
X148354200Y-134380000D01*
X148275000Y-135789600D02*
X148275000Y-135728640D01*
X147988440Y-135180000D02*
X148049400Y-135180000D01*
X146416920Y-135301920D02*
X146813080Y-135301920D01*
X148153080Y-135911520D02*
G75*
G03*
X148275020Y-135789600I20J121920D01*
G01*
X148476120Y-135058080D02*
G75*
G03*
X148598040Y-135179980I121880J-20D01*
G01*
X148659000Y-135180000D02*
G75*
G03*
X148780900Y-135058080I0J121900D01*
G01*
X148275000Y-135728640D02*
G75*
G03*
X148153080Y-135606700I-121900J40D01*
G01*
X146295000Y-135423840D02*
G75*
G02*
X146416920Y-135301900I121900J40D01*
G01*
X147256920Y-135058080D02*
G75*
G03*
X147378840Y-135179980I121880J-20D01*
G01*
X147561720Y-134501920D02*
G75*
G02*
X147683640Y-134380020I121880J20D01*
G01*
X146813080Y-135301920D02*
G75*
G03*
X146935020Y-135180000I20J121920D01*
G01*
X147439800Y-135180000D02*
G75*
G03*
X147561700Y-135058080I0J121900D01*
G01*
X146416920Y-135606720D02*
G75*
G02*
X146294980Y-135484800I-20J121920D01*
G01*
X148171320Y-134501920D02*
G75*
G02*
X148293240Y-134380020I121880J20D01*
G01*
X147135000Y-134380000D02*
G75*
G02*
X147256900Y-134501920I0J-121900D01*
G01*
X148354200Y-134380000D02*
G75*
G02*
X148476100Y-134501920I0J-121900D01*
G01*
X147866520Y-135058080D02*
G75*
G03*
X147988440Y-135179980I121880J-20D01*
G01*
X148780920Y-134501920D02*
G75*
G02*
X148902840Y-134380020I121880J20D01*
G01*
X147744600Y-134380000D02*
G75*
G02*
X147866500Y-134501920I0J-121900D01*
G01*
X148049400Y-135180000D02*
G75*
G03*
X148171300Y-135058080I0J121900D01*
G01*
%TO.N,/P_SWCLK*%
X150687400Y-133682400D02*
X151257300Y-134252300D01*
X140861494Y-143707497D02*
X146278243Y-138290748D01*
X151257300Y-136387766D02*
X150892766Y-136752300D01*
X145071400Y-135947646D02*
X145730200Y-135288846D01*
X150892766Y-136752300D02*
X150012700Y-136752300D01*
X145730200Y-134870904D02*
X146918704Y-133682400D01*
X145730200Y-135288846D02*
X145730200Y-134870904D01*
X145071400Y-136502452D02*
X145071400Y-135947646D01*
X146918704Y-133682400D02*
X150687400Y-133682400D01*
X140861494Y-143827382D02*
X140861494Y-143707497D01*
X146278243Y-138290748D02*
X146278243Y-137709295D01*
X146278243Y-137709295D02*
X145071400Y-136502452D01*
X151257300Y-134252300D02*
X151257300Y-136387766D01*
X150012700Y-136752300D02*
X149365000Y-137400000D01*
%TO.N,/5V_KEY_EN*%
X139723294Y-143823294D02*
X137714400Y-141814400D01*
X142182347Y-146117653D02*
X140822547Y-146117653D01*
X137714400Y-141814400D02*
X136185600Y-141814400D01*
X134227297Y-141929582D02*
X134227297Y-141115451D01*
X143971400Y-144328600D02*
X142182347Y-146117653D01*
X135766773Y-142233227D02*
X134530942Y-142233227D01*
X140512901Y-145088447D02*
X139723294Y-144298840D01*
X146622573Y-144600000D02*
X146266974Y-144600000D01*
X135324006Y-140018742D02*
X137336142Y-140018742D01*
X146266974Y-144600000D02*
X145995574Y-144328600D01*
X134227297Y-141115451D02*
X135324006Y-140018742D01*
X146737509Y-144485064D02*
X146622573Y-144600000D01*
X140512901Y-145808007D02*
X140512901Y-145088447D01*
X140822547Y-146117653D02*
X140512901Y-145808007D01*
X145995574Y-144328600D02*
X143971400Y-144328600D01*
X134530942Y-142233227D02*
X134227297Y-141929582D01*
X139723294Y-144298840D02*
X139723294Y-143823294D01*
X137336142Y-140018742D02*
X137617400Y-140300000D01*
X136185600Y-141814400D02*
X135766773Y-142233227D01*
%TO.N,/PWM_VS*%
X132195200Y-137358273D02*
X132195200Y-136440897D01*
X132195200Y-136440897D02*
X131960129Y-136205826D01*
X132752124Y-137915197D02*
X132195200Y-137358273D01*
%TO.N,Net-(R2-Pad2)*%
X131060400Y-142360170D02*
X131060400Y-132754952D01*
X130918800Y-145800680D02*
X131238280Y-145481200D01*
X130918800Y-151914797D02*
X130918800Y-145800680D01*
X136356759Y-131529359D02*
X136827400Y-132000000D01*
X133054081Y-142500000D02*
X131200230Y-142500000D01*
X131599320Y-145481200D02*
X131999999Y-145080521D01*
X132285993Y-131529359D02*
X136356759Y-131529359D01*
X131604003Y-152600000D02*
X130918800Y-151914797D01*
X131999999Y-145080521D02*
X131999999Y-144546008D01*
X131200230Y-142500000D02*
X131060400Y-142360170D01*
X133142199Y-142411882D02*
X133054081Y-142500000D01*
X131060400Y-132754952D02*
X132285993Y-131529359D01*
X131238280Y-145481200D02*
X131599320Y-145481200D01*
%TO.N,/DIR_SWDIO_TMS*%
X133441200Y-145216457D02*
X133441200Y-145654654D01*
X134009309Y-144648348D02*
X133441200Y-145216457D01*
X134677556Y-144648348D02*
X134009309Y-144648348D01*
X133441200Y-145654654D02*
X133657164Y-145870618D01*
X133657164Y-147628564D02*
X134000000Y-147971400D01*
X133657164Y-145870618D02*
X133657164Y-147628564D01*
D21*
%TO.N,/DIR_SWDCLK_JCLK*%
X137396893Y-147888700D02*
X138000000Y-147888700D01*
X146992383Y-146466163D02*
X147327047Y-146131499D01*
X147327047Y-146131499D02*
X147327047Y-144345008D01*
X146697334Y-146466163D02*
X146992383Y-146466163D01*
X138000000Y-147888700D02*
X143277103Y-147888700D01*
X136963693Y-147455500D02*
X137396893Y-147888700D01*
X138000000Y-147888700D02*
X138000000Y-147250000D01*
X136513497Y-147455500D02*
X136963693Y-147455500D01*
X146338207Y-146825290D02*
X146697334Y-146466163D01*
X143277103Y-147888700D02*
X144340513Y-146825290D01*
X135997597Y-147971400D02*
X136513497Y-147455500D01*
X145230816Y-142248777D02*
X144501223Y-142248777D01*
X144340513Y-146825290D02*
X146338207Y-146825290D01*
X147327047Y-144345008D02*
X145230816Y-142248777D01*
D19*
%TO.N,/SWDCLK_JCLK*%
X135752182Y-146135033D02*
X136223051Y-145664164D01*
X136500000Y-145250000D02*
X137500000Y-145250000D01*
X136223051Y-145664164D02*
X136223051Y-145526949D01*
X136223051Y-145526949D02*
X136500000Y-145250000D01*
X135188779Y-146135033D02*
X135752182Y-146135033D01*
%TO.N,/SWDIO_TMS*%
X133839018Y-143788242D02*
X133300277Y-144326983D01*
X134042554Y-143788242D02*
X133839018Y-143788242D01*
%TO.N,Net-(U1-B)*%
X148280200Y-146519800D02*
X148280200Y-143080200D01*
X148280200Y-143080200D02*
X147800000Y-142600000D01*
X147400000Y-147400000D02*
X148280200Y-146519800D01*
%TO.N,/DIR_VCP_RX*%
X146319800Y-142119800D02*
X147504003Y-143304003D01*
X146319800Y-140280200D02*
X146319800Y-142119800D01*
X147504003Y-143304003D02*
X147800000Y-143304003D01*
X146800000Y-139800000D02*
X146319800Y-140280200D01*
%TO.N,/DIR_VCP_TX*%
X148379155Y-140504003D02*
X148993952Y-141118800D01*
X148993952Y-141118800D02*
X150658800Y-141118800D01*
X146800000Y-140504003D02*
X148379155Y-140504003D01*
X150658800Y-141118800D02*
X151140000Y-141600000D01*
%TO.N,Net-(U3-IO3)*%
X139542800Y-135062000D02*
X139500000Y-135019200D01*
X139500000Y-135019200D02*
X139500000Y-133100000D01*
X139500000Y-133100000D02*
X139400000Y-133000000D01*
%TO.N,/~{RESET}*%
X141461923Y-145261923D02*
X141790523Y-145261923D01*
X140860782Y-144660782D02*
X141461923Y-145261923D01*
X135498724Y-141584972D02*
X135574096Y-141509600D01*
X140028094Y-144172588D02*
X140516288Y-144660782D01*
X140516288Y-144660782D02*
X140860782Y-144660782D01*
X135574096Y-141509600D02*
X137849942Y-141509600D01*
X140028094Y-143687752D02*
X140028094Y-144172588D01*
X137849942Y-141509600D02*
X140028094Y-143687752D01*
%TO.N,/GNDDetect*%
X137976194Y-141204800D02*
X140332894Y-143561500D01*
X142319123Y-145480877D02*
X142009477Y-145790523D01*
X140332894Y-144046336D02*
X140642540Y-144355982D01*
X142319123Y-145042969D02*
X142319123Y-145480877D01*
X141242971Y-145790523D02*
X141041501Y-145589053D01*
X142009477Y-144733323D02*
X142319123Y-145042969D01*
X142009477Y-145790523D02*
X141242971Y-145790523D01*
X141364375Y-144733323D02*
X142009477Y-144733323D01*
X135852142Y-140852142D02*
X136204800Y-141204800D01*
X140332894Y-143561500D02*
X140332894Y-144046336D01*
X136204800Y-141204800D02*
X137976194Y-141204800D01*
X140642540Y-144355982D02*
X140987034Y-144355982D01*
X140987034Y-144355982D02*
X141364375Y-144733323D01*
X135669212Y-140852142D02*
X135852142Y-140852142D01*
%TO.N,/T_VCC_EN*%
X133131821Y-139115734D02*
X133131821Y-139042448D01*
X131431529Y-133131377D02*
X132504947Y-132057959D01*
X131431529Y-137342156D02*
X131431529Y-133131377D01*
X133131821Y-139042448D02*
X131431529Y-137342156D01*
%TO.N,/DIR_TDI*%
X147196218Y-146958263D02*
X146901168Y-146958263D01*
X145500000Y-140247597D02*
X145980200Y-140727797D01*
X146542041Y-147317390D02*
X146387609Y-147317390D01*
X145980200Y-140727797D02*
X145980200Y-142302226D01*
X145980200Y-142302226D02*
X147923947Y-144245973D01*
X147923947Y-146230534D02*
X147196218Y-146958263D01*
X146901168Y-146958263D02*
X146542041Y-147317390D01*
X146387609Y-147317390D02*
X145682521Y-148022478D01*
X147923947Y-144245973D02*
X147923947Y-146230534D01*
%TO.N,/DIR_SWO_TDO*%
X145600000Y-142278974D02*
X147619147Y-144298121D01*
X146796620Y-146705863D02*
X146437493Y-147064990D01*
X146437493Y-147064990D02*
X144830406Y-147064990D01*
X145600000Y-141100000D02*
X145600000Y-142278974D01*
X145500000Y-141000000D02*
X145600000Y-141100000D01*
X144830406Y-147064990D02*
X143872918Y-148022478D01*
X147619147Y-144298121D02*
X147619147Y-146178386D01*
X147619147Y-146178386D02*
X147091670Y-146705863D01*
X147091670Y-146705863D02*
X146796620Y-146705863D01*
D23*
%TO.N,/D_FS_N*%
X140622008Y-133214713D02*
X140672919Y-133163803D01*
X141583305Y-136954867D02*
X140400000Y-135771562D01*
X141665455Y-132628984D02*
X141747219Y-132547219D01*
X141156337Y-132934455D02*
X141131091Y-132909209D01*
X140876567Y-133163802D02*
X140901780Y-133189015D01*
X141385651Y-132654650D02*
X141410898Y-132679897D01*
X141156337Y-133138102D02*
X141156337Y-133138101D01*
X141131092Y-132705561D02*
X141182003Y-132654651D01*
X140647219Y-133443573D02*
X140622007Y-133418361D01*
X140400000Y-135771562D02*
X140400000Y-133894438D01*
X141747219Y-132547219D02*
X142694438Y-131600000D01*
X140400000Y-133894438D02*
X140647219Y-133647219D01*
X141105426Y-133189016D02*
X141156337Y-133138102D01*
X142694438Y-131600000D02*
X143600000Y-131600000D01*
X141614544Y-132679898D02*
X141665455Y-132628984D01*
X140647219Y-133647219D02*
G75*
G03*
X140647215Y-133443577I-101819J101819D01*
G01*
X141182003Y-132654651D02*
G75*
G02*
X141385624Y-132654677I101797J-101849D01*
G01*
X141410898Y-132679897D02*
G75*
G03*
X141614522Y-132679877I101802J101797D01*
G01*
X140672919Y-133163803D02*
G75*
G02*
X140876523Y-133163845I101781J-101797D01*
G01*
X140622007Y-133418361D02*
G75*
G02*
X140621970Y-133214675I101793J101861D01*
G01*
X141156337Y-133138101D02*
G75*
G03*
X141156315Y-132934477I-101837J101801D01*
G01*
X140901780Y-133189015D02*
G75*
G03*
X141105422Y-133189013I101820J101815D01*
G01*
X141131091Y-132909209D02*
G75*
G02*
X141131106Y-132705576I101809J101809D01*
G01*
%TO.N,/D_FS_P*%
X142475259Y-133078730D02*
X141921270Y-133078730D01*
X141398856Y-135898856D02*
X141314003Y-135983708D01*
X140800000Y-135300000D02*
X141050000Y-135550000D01*
X141398855Y-135898857D02*
X141398856Y-135898856D01*
X141560474Y-135438221D02*
X141610310Y-135488057D01*
X141732892Y-136232892D02*
X141812372Y-136312372D01*
X141812117Y-137507267D02*
X141219220Y-137507267D01*
X141314003Y-136153414D02*
X141393481Y-136232892D01*
X141498529Y-135799183D02*
X141398855Y-135898857D01*
X142171400Y-137147984D02*
X141812117Y-137507267D01*
X141249348Y-135550001D02*
X141361126Y-135438220D01*
X142171400Y-136671400D02*
X142171400Y-137147984D01*
X140800000Y-134200000D02*
X140800000Y-135300000D01*
X141900000Y-136400000D02*
X142171400Y-136671400D01*
X141921270Y-133078730D02*
X140800000Y-134200000D01*
X141812372Y-136312372D02*
X141900000Y-136400000D01*
X141219220Y-137507267D02*
X140854753Y-137142800D01*
X141610310Y-135687405D02*
X141498529Y-135799183D01*
X141314003Y-135983708D02*
G75*
G03*
X141313964Y-136153453I84897J-84892D01*
G01*
X141610310Y-135488057D02*
G75*
G02*
X141610279Y-135687374I-99710J-99643D01*
G01*
X141393481Y-136232892D02*
G75*
G03*
X141563187Y-136232892I84853J84854D01*
G01*
X141050000Y-135550000D02*
G75*
G03*
X141249373Y-135550027I99700J99700D01*
G01*
X141361126Y-135438220D02*
G75*
G02*
X141560475Y-135438220I99674J-99680D01*
G01*
X141563187Y-136232892D02*
G75*
G02*
X141732892Y-136232891I84853J-84853D01*
G01*
D19*
%TO.N,Net-(U2-B)*%
X149967417Y-144600000D02*
X150740000Y-143827417D01*
X147953427Y-148527093D02*
X148853400Y-147627120D01*
X149100000Y-144600000D02*
X149967417Y-144600000D01*
X146925824Y-148527093D02*
X147953427Y-148527093D01*
X148853400Y-144846600D02*
X149100000Y-144600000D01*
X150740000Y-143827417D02*
X150740000Y-143800000D01*
X148853400Y-147627120D02*
X148853400Y-144846600D01*
%TD*%
%TA.AperFunction,Conductor*%
%TO.N,GND*%
G36*
X145080914Y-140241710D02*
G01*
X145095500Y-140276924D01*
X145095500Y-140300851D01*
X145123064Y-140403723D01*
X145123065Y-140403725D01*
X145123066Y-140403728D01*
X145131288Y-140417969D01*
X145176319Y-140495965D01*
X145251631Y-140571277D01*
X145267900Y-140580670D01*
X145291103Y-140610909D01*
X145286128Y-140648698D01*
X145267902Y-140666925D01*
X145251631Y-140676319D01*
X145176319Y-140751631D01*
X145123068Y-140843865D01*
X145123064Y-140843873D01*
X145095500Y-140946745D01*
X145095500Y-141053254D01*
X145123064Y-141156126D01*
X145123065Y-141156128D01*
X145123066Y-141156131D01*
X145141307Y-141187725D01*
X145171278Y-141239637D01*
X145176320Y-141248369D01*
X145251631Y-141323680D01*
X145343869Y-141376934D01*
X145384789Y-141387898D01*
X145415027Y-141411099D01*
X145421700Y-141436000D01*
X145421700Y-142085239D01*
X145407114Y-142120453D01*
X145371900Y-142135039D01*
X145336686Y-142120453D01*
X145324621Y-142108388D01*
X145263756Y-142083177D01*
X145263755Y-142083177D01*
X144901442Y-142083177D01*
X144866228Y-142068591D01*
X144858314Y-142058277D01*
X144824903Y-142000408D01*
X144749591Y-141925096D01*
X144657357Y-141871845D01*
X144657354Y-141871843D01*
X144657351Y-141871842D01*
X144657349Y-141871841D01*
X144554477Y-141844277D01*
X144554476Y-141844277D01*
X144447970Y-141844277D01*
X144447968Y-141844277D01*
X144345096Y-141871841D01*
X144345088Y-141871845D01*
X144252854Y-141925096D01*
X144177542Y-142000408D01*
X144124291Y-142092642D01*
X144124287Y-142092650D01*
X144096723Y-142195522D01*
X144096723Y-142302031D01*
X144124287Y-142404903D01*
X144124288Y-142404905D01*
X144124289Y-142404908D01*
X144177543Y-142497146D01*
X144252854Y-142572457D01*
X144345092Y-142625711D01*
X144447970Y-142653277D01*
X144554476Y-142653277D01*
X144657354Y-142625711D01*
X144749592Y-142572457D01*
X144824903Y-142497146D01*
X144858314Y-142439277D01*
X144888553Y-142416074D01*
X144901442Y-142414377D01*
X145141594Y-142414377D01*
X145176808Y-142428963D01*
X146743395Y-143995550D01*
X146757981Y-144030764D01*
X146743395Y-144065978D01*
X146708181Y-144080564D01*
X146684254Y-144080564D01*
X146581382Y-144108128D01*
X146581374Y-144108132D01*
X146489140Y-144161383D01*
X146413828Y-144236695D01*
X146360577Y-144328929D01*
X146360574Y-144328935D01*
X146359123Y-144334353D01*
X146335919Y-144364591D01*
X146298130Y-144369566D01*
X146275806Y-144356677D01*
X146096573Y-144177445D01*
X146095332Y-144176931D01*
X146031040Y-144150300D01*
X144006866Y-144150300D01*
X143935934Y-144150300D01*
X143909178Y-144161383D01*
X143870400Y-144177445D01*
X142582437Y-145465408D01*
X142547223Y-145479994D01*
X142512009Y-145465408D01*
X142497423Y-145430194D01*
X142497423Y-145007504D01*
X142497423Y-145007503D01*
X142482729Y-144972028D01*
X142470279Y-144941970D01*
X142110476Y-144582168D01*
X142044943Y-144555023D01*
X142044942Y-144555023D01*
X141458858Y-144555023D01*
X141423644Y-144540437D01*
X141273080Y-144389873D01*
X141107242Y-144224036D01*
X141092657Y-144188823D01*
X141107243Y-144153609D01*
X141107832Y-144153092D01*
X141109860Y-144151063D01*
X141109863Y-144151062D01*
X141185174Y-144075751D01*
X141237017Y-143985955D01*
X141267256Y-143962753D01*
X141305045Y-143967728D01*
X141323273Y-143985956D01*
X141369473Y-144065978D01*
X141373670Y-144073246D01*
X141448981Y-144148557D01*
X141541219Y-144201811D01*
X141644097Y-144229377D01*
X141750603Y-144229377D01*
X141853481Y-144201811D01*
X141945719Y-144148557D01*
X142021030Y-144073246D01*
X142074284Y-143981008D01*
X142101850Y-143878130D01*
X142101850Y-143771624D01*
X142074284Y-143668746D01*
X142021030Y-143576508D01*
X141945719Y-143501197D01*
X141945718Y-143501196D01*
X141900550Y-143475118D01*
X141896453Y-143469779D01*
X141890236Y-143467204D01*
X141885260Y-143455192D01*
X141877347Y-143444879D01*
X141875650Y-143431990D01*
X141875650Y-143397174D01*
X141890235Y-143361961D01*
X145010486Y-140241709D01*
X145045700Y-140227124D01*
X145080914Y-140241710D01*
G37*
%TD.AperFunction*%
%TA.AperFunction,Conductor*%
G36*
X148319887Y-140696889D02*
G01*
X148842797Y-141219799D01*
X148892953Y-141269955D01*
X148958486Y-141297100D01*
X149161547Y-141297100D01*
X149196761Y-141311686D01*
X149211347Y-141346900D01*
X149204675Y-141371800D01*
X149163068Y-141443865D01*
X149163064Y-141443873D01*
X149135500Y-141546745D01*
X149135500Y-141653254D01*
X149163064Y-141756126D01*
X149163068Y-141756134D01*
X149207643Y-141833341D01*
X149216320Y-141848369D01*
X149291631Y-141923680D01*
X149383869Y-141976934D01*
X149486747Y-142004500D01*
X149593252Y-142004500D01*
X149593253Y-142004500D01*
X149643633Y-141991000D01*
X149681420Y-141995974D01*
X149691735Y-142003889D01*
X150087314Y-142399468D01*
X150101900Y-142434682D01*
X150101900Y-142904424D01*
X150087314Y-142939638D01*
X149628947Y-143398005D01*
X149624323Y-143402628D01*
X149602004Y-143415513D01*
X149589130Y-143418962D01*
X149573818Y-143423066D01*
X149573815Y-143423067D01*
X149573814Y-143423068D01*
X149481580Y-143476319D01*
X149406269Y-143551630D01*
X149378102Y-143600417D01*
X149347863Y-143623619D01*
X149310073Y-143618644D01*
X149291846Y-143600416D01*
X149276682Y-143574152D01*
X149263680Y-143551631D01*
X149188369Y-143476320D01*
X149188368Y-143476319D01*
X149121893Y-143437940D01*
X149096131Y-143423066D01*
X149096128Y-143423065D01*
X149096126Y-143423064D01*
X148993254Y-143395500D01*
X148993253Y-143395500D01*
X148886747Y-143395500D01*
X148886745Y-143395500D01*
X148783873Y-143423064D01*
X148783865Y-143423068D01*
X148691631Y-143476319D01*
X148616319Y-143551631D01*
X148563068Y-143643865D01*
X148563064Y-143643873D01*
X148556403Y-143668736D01*
X148533200Y-143698975D01*
X148495411Y-143703950D01*
X148465172Y-143680747D01*
X148458500Y-143655847D01*
X148458500Y-143044735D01*
X148458500Y-143044734D01*
X148431355Y-142979201D01*
X148381199Y-142929045D01*
X148203889Y-142751735D01*
X148189303Y-142716521D01*
X148190998Y-142703639D01*
X148204500Y-142653253D01*
X148204500Y-142546747D01*
X148176934Y-142443869D01*
X148123680Y-142351631D01*
X148048369Y-142276320D01*
X148048368Y-142276319D01*
X147956134Y-142223068D01*
X147956131Y-142223066D01*
X147956128Y-142223065D01*
X147956126Y-142223064D01*
X147853254Y-142195500D01*
X147853253Y-142195500D01*
X147746747Y-142195500D01*
X147746745Y-142195500D01*
X147643873Y-142223064D01*
X147643865Y-142223068D01*
X147551631Y-142276319D01*
X147476319Y-142351631D01*
X147423068Y-142443865D01*
X147423064Y-142443873D01*
X147395500Y-142546745D01*
X147395500Y-142653254D01*
X147423064Y-142756126D01*
X147423065Y-142756128D01*
X147423066Y-142756131D01*
X147427918Y-142764534D01*
X147476319Y-142848368D01*
X147544738Y-142916787D01*
X147559324Y-142952001D01*
X147546369Y-142983278D01*
X147544739Y-142987214D01*
X147527269Y-143004685D01*
X147492055Y-143019272D01*
X147456841Y-143004687D01*
X146512686Y-142060532D01*
X146498100Y-142025318D01*
X146498100Y-140883033D01*
X146512686Y-140847819D01*
X146547900Y-140833233D01*
X146572799Y-140839904D01*
X146643869Y-140880937D01*
X146746747Y-140908503D01*
X146853253Y-140908503D01*
X146956131Y-140880937D01*
X147048369Y-140827683D01*
X147123680Y-140752372D01*
X147149759Y-140707203D01*
X147179998Y-140684000D01*
X147192887Y-140682303D01*
X148284673Y-140682303D01*
X148319887Y-140696889D01*
G37*
%TD.AperFunction*%
%TA.AperFunction,Conductor*%
G36*
X148352981Y-135235736D02*
G01*
X148364002Y-135246755D01*
X148383097Y-135273036D01*
X148383099Y-135273038D01*
X148460062Y-135328939D01*
X148460064Y-135328940D01*
X148550534Y-135358312D01*
X148550537Y-135358313D01*
X148598099Y-135358300D01*
X148623534Y-135358300D01*
X148638353Y-135358300D01*
X148638401Y-135358319D01*
X148659000Y-135358319D01*
X148659000Y-135358320D01*
X148706555Y-135358319D01*
X148797009Y-135328925D01*
X148867038Y-135278038D01*
X148877122Y-135270712D01*
X148878422Y-135272502D01*
X148906851Y-135260694D01*
X148942079Y-135275245D01*
X148956700Y-135310445D01*
X148956700Y-135832252D01*
X148950028Y-135857152D01*
X148902990Y-135938624D01*
X148902986Y-135938632D01*
X148869200Y-136064725D01*
X148869200Y-136195274D01*
X148902986Y-136321367D01*
X148902987Y-136321369D01*
X148902988Y-136321372D01*
X148907030Y-136328373D01*
X148963887Y-136426853D01*
X148968261Y-136434428D01*
X149060572Y-136526739D01*
X149173628Y-136592012D01*
X149299727Y-136625800D01*
X149315200Y-136625800D01*
X149350414Y-136640386D01*
X149365000Y-136675600D01*
X149365000Y-136854400D01*
X149350414Y-136889614D01*
X149315200Y-136904200D01*
X149299725Y-136904200D01*
X149173632Y-136937986D01*
X149173624Y-136937990D01*
X149060572Y-137003260D01*
X148968260Y-137095572D01*
X148902990Y-137208624D01*
X148902986Y-137208632D01*
X148869200Y-137334725D01*
X148869200Y-137465274D01*
X148902986Y-137591367D01*
X148902987Y-137591369D01*
X148902988Y-137591372D01*
X148910125Y-137603734D01*
X148967772Y-137703582D01*
X148968261Y-137704428D01*
X149060572Y-137796739D01*
X149173628Y-137862012D01*
X149299727Y-137895800D01*
X149315200Y-137895800D01*
X149350414Y-137910386D01*
X149365000Y-137945600D01*
X149365000Y-138124400D01*
X149350414Y-138159614D01*
X149315200Y-138174200D01*
X149299725Y-138174200D01*
X149173632Y-138207986D01*
X149173624Y-138207990D01*
X149060572Y-138273260D01*
X148968260Y-138365572D01*
X148902990Y-138478624D01*
X148902986Y-138478632D01*
X148869200Y-138604725D01*
X148869200Y-138735274D01*
X148902986Y-138861367D01*
X148902987Y-138861369D01*
X148902988Y-138861372D01*
X148914199Y-138880790D01*
X148968260Y-138974427D01*
X149060572Y-139066739D01*
X149127019Y-139105102D01*
X149150222Y-139135341D01*
X149145247Y-139173130D01*
X149115008Y-139196333D01*
X149092404Y-139197073D01*
X149057851Y-139190200D01*
X149057849Y-139190200D01*
X148910151Y-139190200D01*
X148910148Y-139190200D01*
X148765300Y-139219011D01*
X148765290Y-139219014D01*
X148628836Y-139275535D01*
X148506033Y-139357588D01*
X148506031Y-139357591D01*
X148401591Y-139462031D01*
X148401588Y-139462033D01*
X148319535Y-139584836D01*
X148263014Y-139721290D01*
X148263011Y-139721300D01*
X148234200Y-139866148D01*
X148234200Y-140013851D01*
X148263011Y-140158699D01*
X148263014Y-140158709D01*
X148299520Y-140246842D01*
X148303664Y-140256845D01*
X148303664Y-140294961D01*
X148276713Y-140321912D01*
X148257655Y-140325703D01*
X147192887Y-140325703D01*
X147157673Y-140311117D01*
X147149759Y-140300803D01*
X147123680Y-140255634D01*
X147055261Y-140187215D01*
X147040675Y-140152001D01*
X147055260Y-140116788D01*
X147123680Y-140048369D01*
X147176934Y-139956131D01*
X147204500Y-139853253D01*
X147204500Y-139746747D01*
X147176934Y-139643869D01*
X147123680Y-139551631D01*
X147048369Y-139476320D01*
X147048368Y-139476319D01*
X146956134Y-139423068D01*
X146956131Y-139423066D01*
X146956128Y-139423065D01*
X146956126Y-139423064D01*
X146853254Y-139395500D01*
X146853253Y-139395500D01*
X146746747Y-139395500D01*
X146746745Y-139395500D01*
X146643873Y-139423064D01*
X146643865Y-139423068D01*
X146551631Y-139476319D01*
X146476319Y-139551631D01*
X146423068Y-139643865D01*
X146423064Y-139643873D01*
X146395500Y-139746745D01*
X146395500Y-139853256D01*
X146408998Y-139903633D01*
X146404023Y-139941422D01*
X146396109Y-139951735D01*
X146218801Y-140129045D01*
X146168645Y-140179200D01*
X146141500Y-140244733D01*
X146141500Y-140516715D01*
X146126914Y-140551929D01*
X146091700Y-140566515D01*
X146056486Y-140551929D01*
X145903889Y-140399332D01*
X145889303Y-140364118D01*
X145890998Y-140351236D01*
X145904500Y-140300850D01*
X145904500Y-140194344D01*
X145876934Y-140091466D01*
X145823680Y-139999228D01*
X145748369Y-139923917D01*
X145748368Y-139923916D01*
X145656134Y-139870665D01*
X145656131Y-139870663D01*
X145656128Y-139870662D01*
X145656126Y-139870661D01*
X145553254Y-139843097D01*
X145553253Y-139843097D01*
X145529327Y-139843097D01*
X145494113Y-139828511D01*
X145479527Y-139793297D01*
X145494113Y-139758083D01*
X146147094Y-139105102D01*
X146951177Y-138301020D01*
X146978322Y-138235487D01*
X146978322Y-138164555D01*
X146978322Y-138159838D01*
X146978300Y-138159610D01*
X146978300Y-136262922D01*
X146992886Y-136227708D01*
X147116189Y-136104406D01*
X147151403Y-136089820D01*
X148193548Y-136089820D01*
X148193678Y-136089805D01*
X148200603Y-136089807D01*
X148291056Y-136060430D01*
X148368002Y-136004537D01*
X148423908Y-135927600D01*
X148453299Y-135837152D01*
X148453299Y-135834974D01*
X148453300Y-135834969D01*
X148453300Y-135688022D01*
X148453290Y-135687937D01*
X148453293Y-135681140D01*
X148444484Y-135654008D01*
X148423922Y-135590673D01*
X148423921Y-135590671D01*
X148385778Y-135538157D01*
X148368023Y-135513712D01*
X148368022Y-135513711D01*
X148368020Y-135513709D01*
X148291076Y-135457803D01*
X148291073Y-135457801D01*
X148200610Y-135428414D01*
X148200609Y-135428414D01*
X148195642Y-135428414D01*
X148160427Y-135413833D01*
X148145837Y-135378621D01*
X148160419Y-135343405D01*
X148180247Y-135331253D01*
X148187406Y-135328926D01*
X148187406Y-135328925D01*
X148187409Y-135328925D01*
X148264351Y-135273016D01*
X148283423Y-135246760D01*
X148315918Y-135226842D01*
X148352981Y-135235736D01*
G37*
%TD.AperFunction*%
%TA.AperFunction,Conductor*%
G36*
X138420031Y-137688471D02*
G01*
X138424107Y-137693553D01*
X138424333Y-137693380D01*
X138426318Y-137695967D01*
X138493964Y-137763613D01*
X138508550Y-137798827D01*
X138493964Y-137834041D01*
X138483651Y-137841954D01*
X138462139Y-137854374D01*
X138462139Y-137854375D01*
X138686395Y-138078631D01*
X138640032Y-138097836D01*
X138597836Y-138140032D01*
X138578631Y-138186395D01*
X138354375Y-137962139D01*
X138303432Y-138050376D01*
X138303428Y-138050384D01*
X138276403Y-138151245D01*
X138271950Y-138157047D01*
X138270824Y-138164274D01*
X138260774Y-138171612D01*
X138253200Y-138181484D01*
X138245948Y-138182438D01*
X138240042Y-138186752D01*
X138229730Y-138184573D01*
X138215411Y-138186459D01*
X138202382Y-138180880D01*
X138197636Y-138177987D01*
X138195969Y-138176320D01*
X138175694Y-138164614D01*
X138175182Y-138164302D01*
X138164263Y-138149350D01*
X138152997Y-138134667D01*
X138152877Y-138133757D01*
X138152704Y-138133520D01*
X138152780Y-138133026D01*
X138151300Y-138121778D01*
X138151300Y-137907403D01*
X138165886Y-137872189D01*
X138256216Y-137781859D01*
X138349604Y-137688470D01*
X138384817Y-137673885D01*
X138420031Y-137688471D01*
G37*
%TD.AperFunction*%
%TA.AperFunction,Conductor*%
G36*
X134511614Y-128314586D02*
G01*
X134526200Y-128349800D01*
X134526200Y-129202400D01*
X135215007Y-129202400D01*
X135215012Y-129202399D01*
X135233827Y-129198657D01*
X135271210Y-129206093D01*
X135274590Y-129208562D01*
X135278493Y-129211675D01*
X135400412Y-129270389D01*
X135400415Y-129270389D01*
X135400416Y-129270390D01*
X135532334Y-129300499D01*
X135532338Y-129300500D01*
X135532340Y-129300500D01*
X136717662Y-129300500D01*
X136717662Y-129300499D01*
X136846718Y-129271044D01*
X136884295Y-129277428D01*
X136906351Y-129308513D01*
X136907600Y-129319595D01*
X136907600Y-129555014D01*
X136916441Y-129599463D01*
X136916442Y-129599464D01*
X136950126Y-129649873D01*
X137000535Y-129683557D01*
X137000536Y-129683558D01*
X137044985Y-129692399D01*
X137044993Y-129692400D01*
X137173800Y-129692400D01*
X137173800Y-129089800D01*
X137188386Y-129054586D01*
X137223600Y-129040000D01*
X137276400Y-129040000D01*
X137311614Y-129054586D01*
X137326200Y-129089800D01*
X137326200Y-129692400D01*
X137455007Y-129692400D01*
X137455014Y-129692399D01*
X137499463Y-129683558D01*
X137499464Y-129683557D01*
X137548949Y-129650492D01*
X137576613Y-129642099D01*
X137950054Y-129642099D01*
X137950055Y-129642098D01*
X137950063Y-129642098D01*
X137974864Y-129637165D01*
X137979837Y-129636176D01*
X137979842Y-129636172D01*
X137980934Y-129635721D01*
X137982129Y-129635720D01*
X137984648Y-129635220D01*
X137984747Y-129635720D01*
X138015253Y-129635715D01*
X138015352Y-129635219D01*
X138017846Y-129635715D01*
X138019049Y-129635715D01*
X138019054Y-129635717D01*
X138020161Y-129636175D01*
X138020163Y-129636176D01*
X138049945Y-129642100D01*
X138340060Y-129642099D01*
X138375274Y-129656685D01*
X138389860Y-129691899D01*
X138375275Y-129727112D01*
X138352714Y-129749673D01*
X138296172Y-129847607D01*
X138296168Y-129847615D01*
X138266900Y-129956845D01*
X138266900Y-130069938D01*
X138296168Y-130179168D01*
X138296169Y-130179170D01*
X138296170Y-130179173D01*
X138352715Y-130277111D01*
X138432681Y-130357077D01*
X138530619Y-130413622D01*
X138639855Y-130442892D01*
X138752945Y-130442892D01*
X138862181Y-130413622D01*
X138960119Y-130357077D01*
X139040085Y-130277111D01*
X139060361Y-130241992D01*
X139090600Y-130218789D01*
X139103489Y-130217092D01*
X141469297Y-130217092D01*
X141488353Y-130220882D01*
X141488883Y-130221102D01*
X141569921Y-130221102D01*
X141692911Y-130221102D01*
X141728125Y-130235688D01*
X141736039Y-130246002D01*
X141753999Y-130277111D01*
X141756315Y-130281121D01*
X141836281Y-130361087D01*
X141934219Y-130417632D01*
X142043455Y-130446902D01*
X142156545Y-130446902D01*
X142265781Y-130417632D01*
X142363719Y-130361087D01*
X142443685Y-130281121D01*
X142500230Y-130183183D01*
X142529500Y-130073947D01*
X142529500Y-129960857D01*
X142500230Y-129851621D01*
X142447270Y-129759892D01*
X142445525Y-129756869D01*
X142440550Y-129719080D01*
X142463753Y-129688841D01*
X142498369Y-129683126D01*
X142544987Y-129692399D01*
X142544993Y-129692400D01*
X142673800Y-129692400D01*
X142673800Y-129089800D01*
X142688386Y-129054586D01*
X142723600Y-129040000D01*
X142776400Y-129040000D01*
X142811614Y-129054586D01*
X142826200Y-129089800D01*
X142826200Y-129692400D01*
X142867800Y-129692400D01*
X142903014Y-129706986D01*
X142917600Y-129742200D01*
X142917600Y-129803800D01*
X143922400Y-129803800D01*
X143922400Y-129350300D01*
X143936986Y-129315086D01*
X143972200Y-129300500D01*
X144467662Y-129300500D01*
X144467665Y-129300499D01*
X144596718Y-129271044D01*
X144599588Y-129270389D01*
X144721507Y-129211675D01*
X144725405Y-129208565D01*
X144762030Y-129198013D01*
X144766171Y-129198657D01*
X144784985Y-129202399D01*
X144784993Y-129202400D01*
X145473800Y-129202400D01*
X145473800Y-128349800D01*
X145488386Y-128314586D01*
X145523600Y-128300000D01*
X145576400Y-128300000D01*
X145611614Y-128314586D01*
X145626200Y-128349800D01*
X145626200Y-129202400D01*
X146165883Y-129202400D01*
X146201097Y-129216986D01*
X146210255Y-129229591D01*
X146287712Y-129381609D01*
X146323977Y-129431523D01*
X146408034Y-129547219D01*
X146552781Y-129691966D01*
X146718390Y-129812287D01*
X146900781Y-129905220D01*
X147095466Y-129968477D01*
X147297648Y-130000500D01*
X147360438Y-130000500D01*
X150952405Y-130000500D01*
X150997556Y-130000500D01*
X151002436Y-130000739D01*
X151131589Y-130013460D01*
X151141149Y-130015361D01*
X151262999Y-130052324D01*
X151272005Y-130056054D01*
X151384296Y-130116075D01*
X151392413Y-130121499D01*
X151490829Y-130202267D01*
X151497732Y-130209170D01*
X151578500Y-130307586D01*
X151583924Y-130315703D01*
X151638407Y-130417633D01*
X151643942Y-130427987D01*
X151647677Y-130437006D01*
X151653854Y-130457367D01*
X151684636Y-130558843D01*
X151686540Y-130568418D01*
X151699260Y-130697563D01*
X151699500Y-130702444D01*
X151699500Y-139449156D01*
X151684914Y-139484370D01*
X151649700Y-139498956D01*
X151614486Y-139484370D01*
X151608293Y-139476823D01*
X151598411Y-139462033D01*
X151493966Y-139357588D01*
X151395990Y-139292124D01*
X151371164Y-139275536D01*
X151371162Y-139275535D01*
X151371163Y-139275535D01*
X151234709Y-139219014D01*
X151234699Y-139219011D01*
X151089851Y-139190200D01*
X151089849Y-139190200D01*
X151012042Y-139190200D01*
X150976828Y-139175614D01*
X150962242Y-139140400D01*
X150964978Y-139133793D01*
X150963247Y-139133566D01*
X150966452Y-139109217D01*
X150635000Y-138777763D01*
X150303546Y-139109216D01*
X150303546Y-139109217D01*
X150424209Y-139178881D01*
X150424217Y-139178885D01*
X150563103Y-139216099D01*
X150563105Y-139216100D01*
X150585620Y-139216100D01*
X150620834Y-139230686D01*
X150635420Y-139265900D01*
X150620834Y-139301114D01*
X150613287Y-139307307D01*
X150538033Y-139357588D01*
X150538031Y-139357591D01*
X150433591Y-139462031D01*
X150433588Y-139462033D01*
X150351535Y-139584836D01*
X150295014Y-139721290D01*
X150295011Y-139721300D01*
X150266200Y-139866148D01*
X150266200Y-140013851D01*
X150295011Y-140158699D01*
X150295014Y-140158709D01*
X150351535Y-140295163D01*
X150433588Y-140417966D01*
X150538033Y-140522411D01*
X150582211Y-140551929D01*
X150660836Y-140604464D01*
X150797291Y-140660986D01*
X150797297Y-140660987D01*
X150797300Y-140660988D01*
X150828707Y-140667235D01*
X150942151Y-140689800D01*
X150942155Y-140689800D01*
X151089845Y-140689800D01*
X151089849Y-140689800D01*
X151234709Y-140660986D01*
X151371164Y-140604464D01*
X151493970Y-140522408D01*
X151598408Y-140417970D01*
X151608292Y-140403176D01*
X151639983Y-140382000D01*
X151677366Y-140389435D01*
X151698543Y-140421126D01*
X151699500Y-140430843D01*
X151699500Y-145149700D01*
X151684914Y-145184914D01*
X151649700Y-145199500D01*
X151192238Y-145199500D01*
X150979655Y-145234973D01*
X150775804Y-145304955D01*
X150586256Y-145407533D01*
X150416177Y-145539911D01*
X150270206Y-145698478D01*
X150152323Y-145878911D01*
X150065748Y-146076281D01*
X150065747Y-146076285D01*
X150012841Y-146285206D01*
X150012840Y-146285213D01*
X149995043Y-146500000D01*
X150012840Y-146714786D01*
X150012841Y-146714793D01*
X150065747Y-146923714D01*
X150065748Y-146923718D01*
X150152323Y-147121088D01*
X150162433Y-147136563D01*
X150270206Y-147301521D01*
X150416177Y-147460088D01*
X150586256Y-147592466D01*
X150775805Y-147695045D01*
X150979652Y-147765026D01*
X151192238Y-147800500D01*
X151260438Y-147800500D01*
X151649700Y-147800500D01*
X151684914Y-147815086D01*
X151699500Y-147850300D01*
X151699500Y-148849700D01*
X151684914Y-148884914D01*
X151649700Y-148899500D01*
X151347595Y-148899500D01*
X151300000Y-148899500D01*
X151198024Y-148899500D01*
X151131197Y-148911992D01*
X150997542Y-148936976D01*
X150807360Y-149010653D01*
X150633959Y-149118018D01*
X150483236Y-149255419D01*
X150483232Y-149255424D01*
X150360328Y-149418175D01*
X150360327Y-149418178D01*
X150269417Y-149600750D01*
X150213603Y-149796915D01*
X150194785Y-150000000D01*
X150213603Y-150203084D01*
X150269417Y-150399249D01*
X150360327Y-150581821D01*
X150360328Y-150581824D01*
X150483232Y-150744575D01*
X150483236Y-150744580D01*
X150633959Y-150881981D01*
X150807363Y-150989348D01*
X150997544Y-151063024D01*
X151198024Y-151100500D01*
X151260438Y-151100500D01*
X151649700Y-151100500D01*
X151684914Y-151115086D01*
X151699500Y-151150300D01*
X151699500Y-153547555D01*
X151699260Y-153552436D01*
X151686540Y-153681581D01*
X151684636Y-153691156D01*
X151647678Y-153812992D01*
X151643942Y-153822012D01*
X151583924Y-153934296D01*
X151578500Y-153942413D01*
X151497732Y-154040829D01*
X151490829Y-154047732D01*
X151392413Y-154128500D01*
X151384296Y-154133924D01*
X151272012Y-154193942D01*
X151262992Y-154197678D01*
X151141156Y-154234636D01*
X151131581Y-154236540D01*
X151002437Y-154249260D01*
X150997556Y-154249500D01*
X129002444Y-154249500D01*
X128997563Y-154249260D01*
X128868418Y-154236540D01*
X128858843Y-154234636D01*
X128737007Y-154197678D01*
X128727989Y-154193943D01*
X128615703Y-154133924D01*
X128607586Y-154128500D01*
X128509170Y-154047732D01*
X128502267Y-154040829D01*
X128421499Y-153942413D01*
X128416075Y-153934296D01*
X128356054Y-153822005D01*
X128352324Y-153812999D01*
X128315361Y-153691149D01*
X128313460Y-153681589D01*
X128300740Y-153552436D01*
X128300500Y-153547555D01*
X128300500Y-151150300D01*
X128315086Y-151115086D01*
X128350300Y-151100500D01*
X128801975Y-151100500D01*
X128801976Y-151100500D01*
X129002456Y-151063024D01*
X129192637Y-150989348D01*
X129366041Y-150881981D01*
X129516764Y-150744579D01*
X129564394Y-150681507D01*
X129639671Y-150581824D01*
X129639671Y-150581823D01*
X129639673Y-150581821D01*
X129730582Y-150399250D01*
X129786397Y-150203083D01*
X129805215Y-150000000D01*
X129786397Y-149796917D01*
X129730582Y-149600750D01*
X129639673Y-149418179D01*
X129639671Y-149418177D01*
X129639671Y-149418175D01*
X129516767Y-149255424D01*
X129516763Y-149255419D01*
X129366040Y-149118018D01*
X129192639Y-149010653D01*
X129192637Y-149010652D01*
X129122725Y-148983568D01*
X129002457Y-148936976D01*
X128902216Y-148918238D01*
X128801976Y-148899500D01*
X128801975Y-148899500D01*
X128350300Y-148899500D01*
X128315086Y-148884914D01*
X128300500Y-148849700D01*
X128300500Y-147850300D01*
X128315086Y-147815086D01*
X128350300Y-147800500D01*
X128807762Y-147800500D01*
X129020348Y-147765026D01*
X129224195Y-147695045D01*
X129413744Y-147592466D01*
X129583823Y-147460088D01*
X129729794Y-147301521D01*
X129847675Y-147121091D01*
X129934251Y-146923719D01*
X129987159Y-146714789D01*
X130004957Y-146500000D01*
X129987159Y-146285211D01*
X129982564Y-146267067D01*
X129934252Y-146076285D01*
X129934251Y-146076281D01*
X129847676Y-145878911D01*
X129844816Y-145874534D01*
X129773393Y-145765213D01*
X130740500Y-145765213D01*
X130740500Y-151950263D01*
X130767645Y-152015796D01*
X131200112Y-152448263D01*
X131214698Y-152483477D01*
X131213001Y-152496365D01*
X131199503Y-152546743D01*
X131199503Y-152653254D01*
X131227067Y-152756126D01*
X131227071Y-152756134D01*
X131279386Y-152846747D01*
X131280323Y-152848369D01*
X131355634Y-152923680D01*
X131447872Y-152976934D01*
X131550750Y-153004500D01*
X131657256Y-153004500D01*
X131760134Y-152976934D01*
X131852372Y-152923680D01*
X131927683Y-152848369D01*
X131980937Y-152756131D01*
X132008503Y-152653253D01*
X132008503Y-152546747D01*
X131980937Y-152443869D01*
X131927683Y-152351631D01*
X131852372Y-152276320D01*
X131852371Y-152276319D01*
X131760137Y-152223068D01*
X131760134Y-152223066D01*
X131760131Y-152223065D01*
X131760129Y-152223064D01*
X131657257Y-152195500D01*
X131657256Y-152195500D01*
X131550750Y-152195500D01*
X131550746Y-152195500D01*
X131500368Y-152208998D01*
X131462579Y-152204022D01*
X131452266Y-152196109D01*
X131111686Y-151855529D01*
X131097100Y-151820315D01*
X131097100Y-150546745D01*
X131591497Y-150546745D01*
X131591497Y-150653254D01*
X131619061Y-150756126D01*
X131619065Y-150756134D01*
X131672316Y-150848368D01*
X131747628Y-150923680D01*
X131792797Y-150949758D01*
X131816000Y-150979996D01*
X131817697Y-150992886D01*
X131817697Y-151060531D01*
X131817697Y-151131463D01*
X131844842Y-151196996D01*
X132999001Y-152351155D01*
X133064534Y-152378300D01*
X133135466Y-152378300D01*
X133258100Y-152378300D01*
X133293314Y-152392886D01*
X133307900Y-152428100D01*
X133307900Y-153807569D01*
X133321077Y-153873813D01*
X133321077Y-153873814D01*
X133371268Y-153948931D01*
X133371270Y-153948933D01*
X133446390Y-153999126D01*
X133512634Y-154012303D01*
X133512639Y-154012303D01*
X133807361Y-154012303D01*
X133807366Y-154012303D01*
X133873610Y-153999126D01*
X133948730Y-153948933D01*
X133998923Y-153873813D01*
X134008309Y-153826625D01*
X134527600Y-153826625D01*
X134530289Y-153849811D01*
X134530290Y-153849813D01*
X134572181Y-153944686D01*
X134645516Y-154018021D01*
X134679999Y-154033246D01*
X134680000Y-154033246D01*
X135180000Y-154033246D01*
X135214483Y-154018021D01*
X135287818Y-153944686D01*
X135329709Y-153849813D01*
X135329710Y-153849811D01*
X135332399Y-153826625D01*
X135797600Y-153826625D01*
X135800289Y-153849811D01*
X135800290Y-153849813D01*
X135842181Y-153944686D01*
X135915516Y-154018021D01*
X135949999Y-154033246D01*
X135950000Y-154033246D01*
X136450000Y-154033246D01*
X136484483Y-154018021D01*
X136557818Y-153944686D01*
X136599709Y-153849813D01*
X136599710Y-153849811D01*
X136602399Y-153826625D01*
X136602400Y-153826619D01*
X136602400Y-152310203D01*
X136450000Y-152310203D01*
X136450000Y-154033246D01*
X135950000Y-154033246D01*
X135950000Y-152310203D01*
X135797600Y-152310203D01*
X135797600Y-153826625D01*
X135332399Y-153826625D01*
X135332400Y-153826619D01*
X135332400Y-152310203D01*
X135180000Y-152310203D01*
X135180000Y-154033246D01*
X134680000Y-154033246D01*
X134680000Y-152310203D01*
X134527600Y-152310203D01*
X134527600Y-153826625D01*
X134008309Y-153826625D01*
X134012100Y-153807569D01*
X134012100Y-150312837D01*
X134008309Y-150293780D01*
X134527600Y-150293780D01*
X134527600Y-151810203D01*
X134680000Y-151810203D01*
X135180000Y-151810203D01*
X135332400Y-151810203D01*
X135332400Y-150293787D01*
X135332399Y-150293780D01*
X135797600Y-150293780D01*
X135797600Y-151810203D01*
X135950000Y-151810203D01*
X136450000Y-151810203D01*
X136602400Y-151810203D01*
X136602400Y-150293787D01*
X136602399Y-150293780D01*
X136599710Y-150270594D01*
X136599709Y-150270592D01*
X136557818Y-150175719D01*
X136484484Y-150102385D01*
X136450000Y-150087158D01*
X136450000Y-151810203D01*
X135950000Y-151810203D01*
X135950000Y-150087158D01*
X135915515Y-150102385D01*
X135842181Y-150175719D01*
X135800290Y-150270592D01*
X135800289Y-150270594D01*
X135797600Y-150293780D01*
X135332399Y-150293780D01*
X135329710Y-150270594D01*
X135329709Y-150270592D01*
X135287818Y-150175719D01*
X135214484Y-150102385D01*
X135180000Y-150087158D01*
X135180000Y-151810203D01*
X134680000Y-151810203D01*
X134680000Y-150087158D01*
X134645515Y-150102385D01*
X134572181Y-150175719D01*
X134530290Y-150270592D01*
X134530289Y-150270594D01*
X134527600Y-150293780D01*
X134008309Y-150293780D01*
X133998923Y-150246593D01*
X133980692Y-150219308D01*
X133978600Y-150213289D01*
X133979366Y-150200139D01*
X133976797Y-150187224D01*
X133980525Y-150180249D01*
X133980817Y-150175238D01*
X133985368Y-150171187D01*
X133990424Y-150161728D01*
X134259268Y-149892886D01*
X134294482Y-149878300D01*
X137429521Y-149878300D01*
X137464735Y-149892886D01*
X137479321Y-149928100D01*
X137464735Y-149963314D01*
X137369001Y-150059049D01*
X137369000Y-150059050D01*
X137329959Y-150098089D01*
X137304462Y-150111717D01*
X137256390Y-150121280D01*
X137256388Y-150121280D01*
X137181271Y-150171471D01*
X137181268Y-150171474D01*
X137131077Y-150246591D01*
X137131077Y-150246592D01*
X137117900Y-150312836D01*
X137117900Y-153807569D01*
X137131077Y-153873813D01*
X137131077Y-153873814D01*
X137181268Y-153948931D01*
X137181270Y-153948933D01*
X137256390Y-153999126D01*
X137322634Y-154012303D01*
X137322639Y-154012303D01*
X137617361Y-154012303D01*
X137617366Y-154012303D01*
X137683610Y-153999126D01*
X137758730Y-153948933D01*
X137808923Y-153873813D01*
X137822100Y-153807569D01*
X137822100Y-150312837D01*
X137811044Y-150257256D01*
X137818480Y-150219874D01*
X137850171Y-150198698D01*
X137859887Y-150197741D01*
X138350113Y-150197741D01*
X138385327Y-150212327D01*
X138399913Y-150247541D01*
X138398956Y-150257257D01*
X138387900Y-150312836D01*
X138387900Y-153807569D01*
X138401077Y-153873813D01*
X138401077Y-153873814D01*
X138451268Y-153948931D01*
X138451270Y-153948933D01*
X138526390Y-153999126D01*
X138592634Y-154012303D01*
X138592639Y-154012303D01*
X138887361Y-154012303D01*
X138887366Y-154012303D01*
X138953610Y-153999126D01*
X139028730Y-153948933D01*
X139078923Y-153873813D01*
X139092100Y-153807569D01*
X139092100Y-152120681D01*
X139106685Y-152085468D01*
X139690811Y-151501341D01*
X139713134Y-151488454D01*
X139756131Y-151476934D01*
X139848369Y-151423680D01*
X139923680Y-151348369D01*
X139928772Y-151339549D01*
X139959010Y-151316346D01*
X139996799Y-151321320D01*
X140020003Y-151351559D01*
X140021700Y-151364449D01*
X140021700Y-152507113D01*
X140007114Y-152542327D01*
X139996800Y-152550241D01*
X139951631Y-152576319D01*
X139876319Y-152651631D01*
X139823068Y-152743865D01*
X139823064Y-152743873D01*
X139795500Y-152846745D01*
X139795500Y-152953254D01*
X139823064Y-153056126D01*
X139823065Y-153056128D01*
X139823066Y-153056131D01*
X139876320Y-153148369D01*
X139951631Y-153223680D01*
X140043869Y-153276934D01*
X140146747Y-153304500D01*
X140253253Y-153304500D01*
X140356131Y-153276934D01*
X140448369Y-153223680D01*
X140523680Y-153148369D01*
X140576934Y-153056131D01*
X140604500Y-152953253D01*
X140604500Y-152846747D01*
X140576934Y-152743869D01*
X140523680Y-152651631D01*
X140448369Y-152576320D01*
X140448368Y-152576319D01*
X140403200Y-152550241D01*
X140379997Y-152520002D01*
X140378300Y-152507113D01*
X140378300Y-151150682D01*
X140392886Y-151115468D01*
X140428100Y-151100882D01*
X140463314Y-151115468D01*
X141730045Y-152382199D01*
X141780201Y-152432355D01*
X141845734Y-152459500D01*
X141845736Y-152459500D01*
X145654264Y-152459500D01*
X145654266Y-152459500D01*
X145719799Y-152432355D01*
X145948265Y-152203888D01*
X145983478Y-152189303D01*
X145996361Y-152190999D01*
X146046747Y-152204500D01*
X146046748Y-152204500D01*
X146153253Y-152204500D01*
X146256131Y-152176934D01*
X146348369Y-152123680D01*
X146423680Y-152048369D01*
X146476934Y-151956131D01*
X146504500Y-151853253D01*
X146504500Y-151746747D01*
X146476934Y-151643869D01*
X146423680Y-151551631D01*
X146348369Y-151476320D01*
X146348368Y-151476319D01*
X146256134Y-151423068D01*
X146256131Y-151423066D01*
X146256128Y-151423065D01*
X146256126Y-151423064D01*
X146153254Y-151395500D01*
X146153253Y-151395500D01*
X146046747Y-151395500D01*
X146046745Y-151395500D01*
X145943873Y-151423064D01*
X145943865Y-151423068D01*
X145851631Y-151476319D01*
X145776319Y-151551631D01*
X145723068Y-151643865D01*
X145723064Y-151643873D01*
X145695500Y-151746745D01*
X145695500Y-151853254D01*
X145708998Y-151903631D01*
X145704023Y-151941420D01*
X145696109Y-151951734D01*
X145559532Y-152088314D01*
X145524319Y-152102900D01*
X141975682Y-152102900D01*
X141940468Y-152088314D01*
X139982199Y-150130045D01*
X139980352Y-150129280D01*
X139916666Y-150102900D01*
X139916665Y-150102900D01*
X139695162Y-150102900D01*
X139659948Y-150088314D01*
X139120479Y-149548845D01*
X139054946Y-149521700D01*
X134235465Y-149521700D01*
X134164534Y-149521700D01*
X134131767Y-149535272D01*
X134099000Y-149548845D01*
X133554329Y-150093517D01*
X133519115Y-150108103D01*
X133512633Y-150108103D01*
X133446389Y-150121280D01*
X133446388Y-150121280D01*
X133371271Y-150171471D01*
X133371268Y-150171474D01*
X133321077Y-150246591D01*
X133321077Y-150246592D01*
X133307900Y-150312836D01*
X133307900Y-151971900D01*
X133293314Y-152007114D01*
X133258100Y-152021700D01*
X133194482Y-152021700D01*
X133159268Y-152007114D01*
X132188883Y-151036729D01*
X132174297Y-151001515D01*
X132174297Y-150992886D01*
X132188883Y-150957672D01*
X132199197Y-150949758D01*
X132209404Y-150943865D01*
X132244366Y-150923680D01*
X132319677Y-150848369D01*
X132372931Y-150756131D01*
X132400497Y-150653253D01*
X132400497Y-150546747D01*
X132372931Y-150443869D01*
X132319677Y-150351631D01*
X132244366Y-150276320D01*
X132244365Y-150276319D01*
X132152131Y-150223068D01*
X132152128Y-150223066D01*
X132152125Y-150223065D01*
X132152123Y-150223064D01*
X132049251Y-150195500D01*
X132049250Y-150195500D01*
X131942744Y-150195500D01*
X131942742Y-150195500D01*
X131839870Y-150223064D01*
X131839862Y-150223068D01*
X131747628Y-150276319D01*
X131672316Y-150351631D01*
X131619065Y-150443865D01*
X131619061Y-150443873D01*
X131591497Y-150546745D01*
X131097100Y-150546745D01*
X131097100Y-145895162D01*
X131111686Y-145859948D01*
X131297548Y-145674086D01*
X131332762Y-145659500D01*
X131634784Y-145659500D01*
X131634786Y-145659500D01*
X131700319Y-145632355D01*
X132151155Y-145181520D01*
X132175016Y-145123913D01*
X132178299Y-145115987D01*
X132178299Y-144938894D01*
X132192885Y-144903680D01*
X132203199Y-144895766D01*
X132206911Y-144893623D01*
X132248368Y-144869688D01*
X132323679Y-144794377D01*
X132376933Y-144702139D01*
X132404499Y-144599261D01*
X132404499Y-144492755D01*
X132376933Y-144389877D01*
X132323679Y-144297639D01*
X132248368Y-144222328D01*
X132248367Y-144222327D01*
X132184963Y-144185721D01*
X132156130Y-144169074D01*
X132156127Y-144169073D01*
X132156125Y-144169072D01*
X132053253Y-144141508D01*
X132053252Y-144141508D01*
X131946746Y-144141508D01*
X131946744Y-144141508D01*
X131843872Y-144169072D01*
X131843864Y-144169076D01*
X131751630Y-144222327D01*
X131676318Y-144297639D01*
X131623067Y-144389873D01*
X131623063Y-144389881D01*
X131595499Y-144492753D01*
X131595499Y-144599262D01*
X131623063Y-144702134D01*
X131623067Y-144702142D01*
X131661205Y-144768200D01*
X131676319Y-144794377D01*
X131751630Y-144869688D01*
X131790059Y-144891875D01*
X131796799Y-144895766D01*
X131800895Y-144901104D01*
X131807113Y-144903680D01*
X131812087Y-144915690D01*
X131820002Y-144926004D01*
X131821699Y-144938894D01*
X131821699Y-144986038D01*
X131807113Y-145021252D01*
X131540052Y-145288314D01*
X131504838Y-145302900D01*
X131273746Y-145302900D01*
X131202814Y-145302900D01*
X131170047Y-145316472D01*
X131137280Y-145330045D01*
X130767645Y-145699680D01*
X130740500Y-145765213D01*
X129773393Y-145765213D01*
X129729794Y-145698479D01*
X129583823Y-145539912D01*
X129583374Y-145539562D01*
X129413743Y-145407533D01*
X129224195Y-145304955D01*
X129195226Y-145295010D01*
X129020348Y-145234974D01*
X129020345Y-145234973D01*
X129020344Y-145234973D01*
X128845564Y-145205808D01*
X128813231Y-145185625D01*
X128804640Y-145148490D01*
X128824823Y-145116157D01*
X128853761Y-145106887D01*
X128860544Y-145106887D01*
X128963422Y-145079321D01*
X129055660Y-145026067D01*
X129130971Y-144950756D01*
X129184225Y-144858518D01*
X129211791Y-144755640D01*
X129211791Y-144649134D01*
X129184225Y-144546256D01*
X129130971Y-144454018D01*
X129055660Y-144378707D01*
X129055659Y-144378706D01*
X128969449Y-144328933D01*
X128963422Y-144325453D01*
X128963419Y-144325452D01*
X128963417Y-144325451D01*
X128860545Y-144297887D01*
X128860544Y-144297887D01*
X128855100Y-144297887D01*
X128819886Y-144283301D01*
X128805300Y-144248087D01*
X128805300Y-143074767D01*
X129533960Y-143074767D01*
X129533960Y-143181276D01*
X129561524Y-143284148D01*
X129561525Y-143284150D01*
X129561526Y-143284153D01*
X129614780Y-143376391D01*
X129690091Y-143451702D01*
X129782329Y-143504956D01*
X129885207Y-143532522D01*
X129991713Y-143532522D01*
X130094591Y-143504956D01*
X130186829Y-143451702D01*
X130262140Y-143376391D01*
X130315394Y-143284153D01*
X130342960Y-143181275D01*
X130342960Y-143129822D01*
X130357546Y-143094608D01*
X130449265Y-143002889D01*
X130551155Y-142900999D01*
X130578300Y-142835466D01*
X130578300Y-142764534D01*
X130578300Y-142753347D01*
X130592886Y-142718133D01*
X130628100Y-142703547D01*
X130663314Y-142718133D01*
X130890766Y-142945586D01*
X130948069Y-143002889D01*
X131022934Y-143033899D01*
X131022935Y-143033899D01*
X131022937Y-143033900D01*
X132672039Y-143033900D01*
X132707253Y-143048486D01*
X132707253Y-143048487D01*
X132740033Y-143081268D01*
X132740034Y-143081268D01*
X132797337Y-143138571D01*
X132872202Y-143169581D01*
X132872203Y-143169581D01*
X132872205Y-143169582D01*
X132872207Y-143169582D01*
X133412191Y-143169582D01*
X133412193Y-143169582D01*
X133487061Y-143138571D01*
X133544363Y-143081269D01*
X133544363Y-143081267D01*
X133843919Y-142781713D01*
X133879133Y-142767127D01*
X135977090Y-142767127D01*
X135977092Y-142767127D01*
X136051960Y-142736116D01*
X136109262Y-142678814D01*
X136109262Y-142678812D01*
X136425189Y-142362886D01*
X136460403Y-142348300D01*
X137472623Y-142348300D01*
X137507837Y-142362886D01*
X139174808Y-144029857D01*
X139189394Y-144065071D01*
X139189394Y-144476135D01*
X139220404Y-144551000D01*
X139220405Y-144551001D01*
X139277707Y-144608303D01*
X139277708Y-144608303D01*
X139964415Y-145295010D01*
X139979001Y-145330224D01*
X139979001Y-145985302D01*
X140010011Y-146060167D01*
X140010012Y-146060168D01*
X140067314Y-146117470D01*
X140067315Y-146117470D01*
X140513083Y-146563239D01*
X140570386Y-146620542D01*
X140645251Y-146651552D01*
X140645252Y-146651552D01*
X140645254Y-146651553D01*
X140645256Y-146651553D01*
X142392664Y-146651553D01*
X142392666Y-146651553D01*
X142467534Y-146620542D01*
X142524836Y-146563240D01*
X142524836Y-146563238D01*
X144210989Y-144877086D01*
X144246203Y-144862500D01*
X145753797Y-144862500D01*
X145789010Y-144877085D01*
X146060414Y-145148490D01*
X146318465Y-145406541D01*
X146393330Y-145437551D01*
X146393331Y-145437551D01*
X146393333Y-145437552D01*
X146432925Y-145437552D01*
X146468139Y-145452138D01*
X146476053Y-145462452D01*
X146487466Y-145482220D01*
X146562778Y-145557532D01*
X146583588Y-145569547D01*
X146606791Y-145599786D01*
X146601816Y-145637575D01*
X146583589Y-145655803D01*
X146550368Y-145674983D01*
X146475057Y-145750294D01*
X146421806Y-145842528D01*
X146421802Y-145842536D01*
X146394238Y-145945408D01*
X146394238Y-146051919D01*
X146407736Y-146102296D01*
X146402761Y-146140085D01*
X146394847Y-146150398D01*
X146230343Y-146314904D01*
X146195129Y-146329490D01*
X145354676Y-146329490D01*
X145319462Y-146314904D01*
X145156292Y-146151734D01*
X145141706Y-146116520D01*
X145143401Y-146103639D01*
X145156903Y-146053253D01*
X145156903Y-145946747D01*
X145129337Y-145843869D01*
X145076083Y-145751631D01*
X145000772Y-145676320D01*
X145000771Y-145676319D01*
X144924621Y-145632354D01*
X144908534Y-145623066D01*
X144908531Y-145623065D01*
X144908529Y-145623064D01*
X144805657Y-145595500D01*
X144805656Y-145595500D01*
X144699150Y-145595500D01*
X144699148Y-145595500D01*
X144596276Y-145623064D01*
X144596268Y-145623068D01*
X144504034Y-145676319D01*
X144428722Y-145751631D01*
X144375471Y-145843865D01*
X144375467Y-145843873D01*
X144347903Y-145946745D01*
X144347903Y-146053254D01*
X144375467Y-146156126D01*
X144375471Y-146156134D01*
X144414736Y-146224144D01*
X144428723Y-146248369D01*
X144504034Y-146323680D01*
X144596272Y-146376934D01*
X144699150Y-146404500D01*
X144805655Y-146404500D01*
X144805656Y-146404500D01*
X144856035Y-146391000D01*
X144893822Y-146395974D01*
X144904137Y-146403889D01*
X145074924Y-146574676D01*
X145089510Y-146609890D01*
X145074924Y-146645104D01*
X145039710Y-146659690D01*
X144373453Y-146659690D01*
X144307573Y-146659690D01*
X144277140Y-146672295D01*
X144246707Y-146684901D01*
X143223095Y-147708514D01*
X143187881Y-147723100D01*
X138498626Y-147723100D01*
X138463412Y-147708514D01*
X138448826Y-147673300D01*
X138463412Y-147638086D01*
X138470022Y-147631476D01*
X138481800Y-147619698D01*
X138561067Y-147482402D01*
X138602100Y-147329268D01*
X138602100Y-147170732D01*
X138561067Y-147017598D01*
X138481800Y-146880302D01*
X138369698Y-146768200D01*
X138369697Y-146768199D01*
X138232405Y-146688935D01*
X138232402Y-146688933D01*
X138232399Y-146688932D01*
X138079268Y-146647900D01*
X137920732Y-146647900D01*
X137767600Y-146688932D01*
X137767594Y-146688935D01*
X137630302Y-146768199D01*
X137518199Y-146880302D01*
X137438935Y-147017594D01*
X137438932Y-147017600D01*
X137397900Y-147170731D01*
X137397900Y-147329268D01*
X137438932Y-147482399D01*
X137438935Y-147482405D01*
X137518199Y-147619697D01*
X137536588Y-147638086D01*
X137551174Y-147673300D01*
X137536588Y-147708514D01*
X137501374Y-147723100D01*
X137486115Y-147723100D01*
X137450901Y-147708514D01*
X137057498Y-147315111D01*
X136996633Y-147289900D01*
X136546437Y-147289900D01*
X136480557Y-147289900D01*
X136472856Y-147293090D01*
X136419691Y-147315111D01*
X136163496Y-147571305D01*
X136128282Y-147585891D01*
X136115393Y-147584194D01*
X136050851Y-147566900D01*
X136050850Y-147566900D01*
X135944344Y-147566900D01*
X135944342Y-147566900D01*
X135841470Y-147594464D01*
X135841462Y-147594468D01*
X135749228Y-147647719D01*
X135673916Y-147723031D01*
X135620665Y-147815265D01*
X135620661Y-147815273D01*
X135593097Y-147918145D01*
X135593097Y-148024654D01*
X135620661Y-148127526D01*
X135620665Y-148127534D01*
X135673916Y-148219768D01*
X135690834Y-148236686D01*
X135705420Y-148271900D01*
X135690834Y-148307114D01*
X135655620Y-148321700D01*
X135375485Y-148321700D01*
X135340271Y-148307114D01*
X135156292Y-148123135D01*
X135141706Y-148087921D01*
X135143401Y-148075039D01*
X135156903Y-148024653D01*
X135156903Y-147918147D01*
X135129337Y-147815269D01*
X135076083Y-147723031D01*
X135000772Y-147647720D01*
X135000771Y-147647719D01*
X134908537Y-147594468D01*
X134908534Y-147594466D01*
X134908531Y-147594465D01*
X134908529Y-147594464D01*
X134805657Y-147566900D01*
X134805656Y-147566900D01*
X134699150Y-147566900D01*
X134699148Y-147566900D01*
X134596276Y-147594464D01*
X134596268Y-147594468D01*
X134504034Y-147647719D01*
X134428722Y-147723031D01*
X134419328Y-147739302D01*
X134389088Y-147762504D01*
X134351299Y-147757527D01*
X134333073Y-147739300D01*
X134323680Y-147723031D01*
X134248368Y-147647719D01*
X134156134Y-147594468D01*
X134156131Y-147594466D01*
X134156128Y-147594465D01*
X134156126Y-147594464D01*
X134053254Y-147566900D01*
X134053253Y-147566900D01*
X133946747Y-147566900D01*
X133946745Y-147566900D01*
X133898153Y-147579920D01*
X133891481Y-147579041D01*
X133885264Y-147581617D01*
X133873252Y-147576641D01*
X133860364Y-147574945D01*
X133856267Y-147569606D01*
X133850050Y-147567031D01*
X133845074Y-147555019D01*
X133837161Y-147544706D01*
X133835464Y-147531817D01*
X133835464Y-147480097D01*
X133850050Y-147444883D01*
X133872375Y-147431994D01*
X133889566Y-147427388D01*
X134026862Y-147348121D01*
X134138964Y-147236019D01*
X134218231Y-147098723D01*
X134259264Y-146945589D01*
X134259264Y-146787053D01*
X134247925Y-146744738D01*
X134245049Y-146734002D01*
X134218231Y-146633919D01*
X134138964Y-146496623D01*
X134026862Y-146384521D01*
X134026861Y-146384520D01*
X133921481Y-146323680D01*
X133889566Y-146305254D01*
X133872373Y-146300647D01*
X133842135Y-146277442D01*
X133835464Y-146252544D01*
X133835464Y-145965444D01*
X134040925Y-145965444D01*
X134040925Y-146071953D01*
X134068489Y-146174825D01*
X134068490Y-146174827D01*
X134068491Y-146174830D01*
X134081001Y-146196498D01*
X134121611Y-146266837D01*
X134121745Y-146267068D01*
X134197056Y-146342379D01*
X134289294Y-146395633D01*
X134335645Y-146408052D01*
X134357970Y-146420941D01*
X134681767Y-146744738D01*
X134728351Y-146791322D01*
X134789216Y-146816533D01*
X134789218Y-146816533D01*
X135682312Y-146816533D01*
X135682314Y-146816533D01*
X135743179Y-146791322D01*
X136323871Y-146210628D01*
X136359085Y-146196043D01*
X136394299Y-146210629D01*
X136433685Y-146250015D01*
X136525923Y-146303269D01*
X136628801Y-146330835D01*
X136735307Y-146330835D01*
X136838185Y-146303269D01*
X136930423Y-146250015D01*
X137005734Y-146174704D01*
X137058988Y-146082466D01*
X137086554Y-145979588D01*
X137086554Y-145873082D01*
X137064880Y-145792193D01*
X137069855Y-145754405D01*
X137100094Y-145731202D01*
X137137883Y-145736177D01*
X137267598Y-145811067D01*
X137420732Y-145852100D01*
X137579268Y-145852100D01*
X137732402Y-145811067D01*
X137869698Y-145731800D01*
X137981800Y-145619698D01*
X138061067Y-145482402D01*
X138102100Y-145329268D01*
X138102100Y-145170732D01*
X138096464Y-145149700D01*
X138083023Y-145099539D01*
X138061067Y-145017598D01*
X137981800Y-144880302D01*
X137869698Y-144768200D01*
X137869697Y-144768199D01*
X137785675Y-144719690D01*
X137732402Y-144688933D01*
X137732399Y-144688932D01*
X137579268Y-144647900D01*
X137420732Y-144647900D01*
X137267600Y-144688932D01*
X137267594Y-144688935D01*
X137130302Y-144768199D01*
X137018199Y-144880302D01*
X136938935Y-145017594D01*
X136938933Y-145017598D01*
X136938932Y-145017602D01*
X136934327Y-145034789D01*
X136911124Y-145065028D01*
X136886224Y-145071700D01*
X136535466Y-145071700D01*
X136464534Y-145071700D01*
X136431767Y-145085272D01*
X136399000Y-145098845D01*
X136071896Y-145425949D01*
X136044751Y-145491482D01*
X136044751Y-145569682D01*
X136030165Y-145604896D01*
X135692914Y-145942147D01*
X135657700Y-145956733D01*
X135581666Y-145956733D01*
X135546452Y-145942147D01*
X135538538Y-145931833D01*
X135512459Y-145886664D01*
X135437147Y-145811352D01*
X135380698Y-145778761D01*
X135344910Y-145758099D01*
X135344907Y-145758098D01*
X135344905Y-145758097D01*
X135242033Y-145730533D01*
X135242032Y-145730533D01*
X135135526Y-145730533D01*
X135135524Y-145730533D01*
X135032652Y-145758097D01*
X135032644Y-145758101D01*
X134940410Y-145811352D01*
X134892714Y-145859048D01*
X134857500Y-145873634D01*
X134822286Y-145859048D01*
X134814372Y-145848734D01*
X134769105Y-145770330D01*
X134693793Y-145695018D01*
X134625870Y-145655803D01*
X134601556Y-145641765D01*
X134601553Y-145641764D01*
X134601551Y-145641763D01*
X134498679Y-145614199D01*
X134498678Y-145614199D01*
X134392172Y-145614199D01*
X134392170Y-145614199D01*
X134289298Y-145641763D01*
X134289290Y-145641767D01*
X134197056Y-145695018D01*
X134121744Y-145770330D01*
X134068493Y-145862564D01*
X134068489Y-145862572D01*
X134040925Y-145965444D01*
X133835464Y-145965444D01*
X133835464Y-145835153D01*
X133835464Y-145835152D01*
X133808319Y-145769619D01*
X133758163Y-145719463D01*
X133634086Y-145595386D01*
X133619500Y-145560172D01*
X133619500Y-145310939D01*
X133634086Y-145275725D01*
X134068577Y-144841234D01*
X134103791Y-144826648D01*
X134284669Y-144826648D01*
X134319883Y-144841234D01*
X134327797Y-144851548D01*
X134352089Y-144893623D01*
X134353876Y-144896717D01*
X134429187Y-144972028D01*
X134521425Y-145025282D01*
X134624303Y-145052848D01*
X134730809Y-145052848D01*
X134833687Y-145025282D01*
X134925925Y-144972028D01*
X135001236Y-144896717D01*
X135054490Y-144804479D01*
X135082056Y-144701601D01*
X135082056Y-144595095D01*
X135054490Y-144492217D01*
X135001236Y-144399979D01*
X134925925Y-144324668D01*
X134925924Y-144324667D01*
X134833690Y-144271416D01*
X134833687Y-144271414D01*
X134833684Y-144271413D01*
X134833682Y-144271412D01*
X134730810Y-144243848D01*
X134730809Y-144243848D01*
X134624303Y-144243848D01*
X134624301Y-144243848D01*
X134521429Y-144271412D01*
X134521421Y-144271416D01*
X134429187Y-144324667D01*
X134353875Y-144399979D01*
X134327797Y-144445148D01*
X134297558Y-144468351D01*
X134284669Y-144470048D01*
X133973840Y-144470048D01*
X133967521Y-144472666D01*
X133929406Y-144472664D01*
X133902456Y-144445711D01*
X133900363Y-144413766D01*
X133902377Y-144406251D01*
X133902377Y-144247715D01*
X133902377Y-144247714D01*
X133902377Y-144247713D01*
X133902376Y-144247712D01*
X133902109Y-144246713D01*
X133902177Y-144246195D01*
X133901951Y-144244477D01*
X133902411Y-144244416D01*
X133907084Y-144208923D01*
X133937323Y-144185721D01*
X133963098Y-144185721D01*
X133989301Y-144192742D01*
X133989303Y-144192742D01*
X134095807Y-144192742D01*
X134198685Y-144165176D01*
X134290923Y-144111922D01*
X134366234Y-144036611D01*
X134419488Y-143944373D01*
X134447054Y-143841495D01*
X134447054Y-143734989D01*
X134419488Y-143632111D01*
X134366234Y-143539873D01*
X134290923Y-143464562D01*
X134290922Y-143464561D01*
X134219047Y-143423064D01*
X134198685Y-143411308D01*
X134198682Y-143411307D01*
X134198680Y-143411306D01*
X134095808Y-143383742D01*
X134095807Y-143383742D01*
X133989301Y-143383742D01*
X133989299Y-143383742D01*
X133886427Y-143411306D01*
X133886419Y-143411310D01*
X133794185Y-143464561D01*
X133718873Y-143539873D01*
X133665622Y-143632107D01*
X133665619Y-143632113D01*
X133640752Y-143724916D01*
X133627863Y-143747240D01*
X133608204Y-143766899D01*
X133572990Y-143781485D01*
X133548091Y-143774814D01*
X133547973Y-143774745D01*
X133532679Y-143765916D01*
X133532676Y-143765915D01*
X133379545Y-143724883D01*
X133221009Y-143724883D01*
X133067877Y-143765915D01*
X133067871Y-143765918D01*
X132930579Y-143845182D01*
X132818476Y-143957285D01*
X132739212Y-144094577D01*
X132739209Y-144094583D01*
X132698177Y-144247714D01*
X132698177Y-144406251D01*
X132733636Y-144538585D01*
X132739210Y-144559385D01*
X132759826Y-144595093D01*
X132814003Y-144688933D01*
X132818477Y-144696681D01*
X132930579Y-144808783D01*
X133067875Y-144888050D01*
X133221009Y-144929083D01*
X133356192Y-144929083D01*
X133391406Y-144943669D01*
X133405992Y-144978883D01*
X133391406Y-145014097D01*
X133290045Y-145115457D01*
X133262900Y-145180990D01*
X133262900Y-145690120D01*
X133290045Y-145755653D01*
X133464278Y-145929886D01*
X133478864Y-145965100D01*
X133478864Y-146252544D01*
X133464278Y-146287758D01*
X133441954Y-146300647D01*
X133424762Y-146305254D01*
X133424759Y-146305255D01*
X133424758Y-146305256D01*
X133287466Y-146384520D01*
X133175363Y-146496623D01*
X133096099Y-146633915D01*
X133096096Y-146633921D01*
X133055064Y-146787052D01*
X133055064Y-146945589D01*
X133092752Y-147086242D01*
X133096097Y-147098723D01*
X133114286Y-147130228D01*
X133144651Y-147182823D01*
X133175364Y-147236019D01*
X133287466Y-147348121D01*
X133424762Y-147427388D01*
X133441953Y-147431994D01*
X133472192Y-147455197D01*
X133478864Y-147480097D01*
X133478864Y-147664030D01*
X133506009Y-147729563D01*
X133596109Y-147819663D01*
X133610695Y-147854877D01*
X133608998Y-147867765D01*
X133595500Y-147918143D01*
X133595500Y-148024654D01*
X133623064Y-148127526D01*
X133623068Y-148127534D01*
X133664675Y-148199600D01*
X133669650Y-148237389D01*
X133646447Y-148267628D01*
X133621547Y-148274300D01*
X132747083Y-148274300D01*
X132711869Y-148259714D01*
X132703889Y-148251734D01*
X132689303Y-148216520D01*
X132690998Y-148203639D01*
X132704500Y-148153253D01*
X132704500Y-148046747D01*
X132676934Y-147943869D01*
X132623680Y-147851631D01*
X132548369Y-147776320D01*
X132548368Y-147776319D01*
X132457194Y-147723680D01*
X132456131Y-147723066D01*
X132456128Y-147723065D01*
X132456126Y-147723064D01*
X132353254Y-147695500D01*
X132353253Y-147695500D01*
X132246747Y-147695500D01*
X132246745Y-147695500D01*
X132143873Y-147723064D01*
X132143865Y-147723068D01*
X132051631Y-147776319D01*
X131976319Y-147851631D01*
X131923068Y-147943865D01*
X131923064Y-147943873D01*
X131895500Y-148046745D01*
X131895500Y-148153254D01*
X131923064Y-148256126D01*
X131923065Y-148256128D01*
X131923066Y-148256131D01*
X131932170Y-148271900D01*
X131968143Y-148334207D01*
X131976320Y-148348369D01*
X132051631Y-148423680D01*
X132143869Y-148476934D01*
X132246747Y-148504500D01*
X132353252Y-148504500D01*
X132353253Y-148504500D01*
X132403632Y-148491000D01*
X132441419Y-148495974D01*
X132451734Y-148503889D01*
X132551601Y-148603756D01*
X132597940Y-148622949D01*
X132597941Y-148622950D01*
X132607537Y-148626924D01*
X132617134Y-148630900D01*
X134306667Y-148630900D01*
X134306669Y-148630900D01*
X134372202Y-148603755D01*
X134600668Y-148375288D01*
X134635881Y-148360703D01*
X134648764Y-148362399D01*
X134699150Y-148375900D01*
X134699151Y-148375900D01*
X134805655Y-148375900D01*
X134805656Y-148375900D01*
X134856036Y-148362400D01*
X134893823Y-148367374D01*
X134904138Y-148375289D01*
X135129848Y-148600999D01*
X135180004Y-148651155D01*
X135245537Y-148678300D01*
X135245539Y-148678300D01*
X136256864Y-148678300D01*
X136256866Y-148678300D01*
X136322399Y-148651155D01*
X136598264Y-148375288D01*
X136633477Y-148360703D01*
X136646361Y-148362399D01*
X136696747Y-148375900D01*
X136696748Y-148375900D01*
X136803252Y-148375900D01*
X136803253Y-148375900D01*
X136884830Y-148354041D01*
X136916775Y-148356134D01*
X136923934Y-148359100D01*
X136994865Y-148359100D01*
X142917370Y-148359100D01*
X142952584Y-148373686D01*
X143281131Y-148702233D01*
X143346664Y-148729378D01*
X143346666Y-148729378D01*
X144132185Y-148729378D01*
X144132187Y-148729378D01*
X144197720Y-148702233D01*
X144473585Y-148426366D01*
X144508798Y-148411781D01*
X144521682Y-148413477D01*
X144572068Y-148426978D01*
X144572069Y-148426978D01*
X144678573Y-148426978D01*
X144678574Y-148426978D01*
X144728953Y-148413478D01*
X144766740Y-148418452D01*
X144777055Y-148426367D01*
X145037723Y-148687035D01*
X145074416Y-148702233D01*
X145103256Y-148714179D01*
X145103257Y-148714179D01*
X145103258Y-148714179D01*
X145956987Y-148714179D01*
X145956989Y-148714179D01*
X146022522Y-148687034D01*
X146283189Y-148426366D01*
X146318402Y-148411781D01*
X146331285Y-148413477D01*
X146381671Y-148426978D01*
X146381672Y-148426978D01*
X146471524Y-148426978D01*
X146506738Y-148441564D01*
X146521324Y-148476778D01*
X146521324Y-148580347D01*
X146548888Y-148683219D01*
X146548889Y-148683221D01*
X146548890Y-148683224D01*
X146602144Y-148775462D01*
X146677455Y-148850773D01*
X146769693Y-148904027D01*
X146872571Y-148931593D01*
X146979077Y-148931593D01*
X147081955Y-148904027D01*
X147174193Y-148850773D01*
X147249504Y-148775462D01*
X147275583Y-148730293D01*
X147305822Y-148707090D01*
X147318711Y-148705393D01*
X147988891Y-148705393D01*
X147988893Y-148705393D01*
X148054426Y-148678248D01*
X149004555Y-147728119D01*
X149031700Y-147662586D01*
X149031700Y-147591654D01*
X149031700Y-144941082D01*
X149046286Y-144905868D01*
X149159268Y-144792886D01*
X149194482Y-144778300D01*
X150002881Y-144778300D01*
X150002883Y-144778300D01*
X150068416Y-144751155D01*
X150609887Y-144209682D01*
X150645100Y-144195097D01*
X150657985Y-144196793D01*
X150686747Y-144204500D01*
X150686748Y-144204500D01*
X150793253Y-144204500D01*
X150896131Y-144176934D01*
X150988369Y-144123680D01*
X151063680Y-144048369D01*
X151116934Y-143956131D01*
X151144500Y-143853253D01*
X151144500Y-143746747D01*
X151116934Y-143643869D01*
X151063680Y-143551631D01*
X150988369Y-143476320D01*
X150988368Y-143476319D01*
X150921893Y-143437940D01*
X150896131Y-143423066D01*
X150896128Y-143423065D01*
X150896126Y-143423064D01*
X150793254Y-143395500D01*
X150793253Y-143395500D01*
X150747061Y-143395500D01*
X150711847Y-143380914D01*
X150697261Y-143345700D01*
X150701052Y-143326642D01*
X150710901Y-143302865D01*
X150710901Y-143231933D01*
X150710901Y-141851634D01*
X150725487Y-141816420D01*
X150760701Y-141801834D01*
X150795915Y-141816420D01*
X150803829Y-141826734D01*
X150807643Y-141833341D01*
X150816320Y-141848369D01*
X150891631Y-141923680D01*
X150983869Y-141976934D01*
X151086747Y-142004500D01*
X151193253Y-142004500D01*
X151296131Y-141976934D01*
X151388369Y-141923680D01*
X151463680Y-141848369D01*
X151516934Y-141756131D01*
X151544500Y-141653253D01*
X151544500Y-141546747D01*
X151516934Y-141443869D01*
X151463680Y-141351631D01*
X151388369Y-141276320D01*
X151388368Y-141276319D01*
X151324833Y-141239637D01*
X151296131Y-141223066D01*
X151296128Y-141223065D01*
X151296126Y-141223064D01*
X151193254Y-141195500D01*
X151193253Y-141195500D01*
X151086747Y-141195500D01*
X151086743Y-141195500D01*
X151036366Y-141208998D01*
X150998577Y-141204023D01*
X150988264Y-141196109D01*
X150759799Y-140967645D01*
X150751714Y-140964296D01*
X150694266Y-140940500D01*
X150694265Y-140940500D01*
X149088434Y-140940500D01*
X149053220Y-140925914D01*
X148902120Y-140774814D01*
X148887534Y-140739600D01*
X148902120Y-140704386D01*
X148937334Y-140689800D01*
X149057845Y-140689800D01*
X149057849Y-140689800D01*
X149202709Y-140660986D01*
X149339164Y-140604464D01*
X149461970Y-140522408D01*
X149566408Y-140417970D01*
X149576293Y-140403177D01*
X149597640Y-140371228D01*
X149648464Y-140295164D01*
X149704986Y-140158709D01*
X149733800Y-140013849D01*
X149733800Y-139866151D01*
X149712304Y-139758083D01*
X149704988Y-139721300D01*
X149704987Y-139721297D01*
X149704986Y-139721291D01*
X149648464Y-139584836D01*
X149605298Y-139520233D01*
X149566411Y-139462033D01*
X149461966Y-139357588D01*
X149363990Y-139292124D01*
X149339164Y-139275536D01*
X149339162Y-139275535D01*
X149339160Y-139275534D01*
X149305542Y-139261609D01*
X149278590Y-139234658D01*
X149278590Y-139196543D01*
X149305541Y-139169591D01*
X149324599Y-139165800D01*
X149430273Y-139165800D01*
X149556372Y-139132012D01*
X149669428Y-139066739D01*
X149761739Y-138974428D01*
X149827012Y-138861372D01*
X149860800Y-138735273D01*
X149860800Y-138719800D01*
X149875386Y-138684586D01*
X149910600Y-138670000D01*
X150039100Y-138670000D01*
X150074314Y-138684586D01*
X150088900Y-138719800D01*
X150088900Y-138741896D01*
X150126114Y-138880782D01*
X150126118Y-138880790D01*
X150195781Y-139001452D01*
X150195782Y-139001452D01*
X150512650Y-138684586D01*
X150547864Y-138670000D01*
X150635000Y-138670000D01*
X150635000Y-138669999D01*
X150742763Y-138669999D01*
X151074217Y-139001452D01*
X151143881Y-138880790D01*
X151143885Y-138880782D01*
X151181099Y-138741896D01*
X151181100Y-138741895D01*
X151181100Y-138598105D01*
X151181099Y-138598103D01*
X151143885Y-138459217D01*
X151143881Y-138459209D01*
X151074217Y-138338546D01*
X151074216Y-138338546D01*
X150742763Y-138669999D01*
X150635000Y-138669999D01*
X150635000Y-138582863D01*
X150649586Y-138547649D01*
X150966452Y-138230782D01*
X150966452Y-138230781D01*
X150845790Y-138161118D01*
X150845782Y-138161114D01*
X150706896Y-138123900D01*
X150684800Y-138123900D01*
X150649586Y-138109314D01*
X150635000Y-138074100D01*
X150635000Y-137945600D01*
X150649586Y-137910386D01*
X150684800Y-137895800D01*
X150700273Y-137895800D01*
X150826372Y-137862012D01*
X150939428Y-137796739D01*
X151031739Y-137704428D01*
X151097012Y-137591372D01*
X151130800Y-137465273D01*
X151130800Y-137334727D01*
X151097012Y-137208628D01*
X151031739Y-137095572D01*
X150939428Y-137003261D01*
X150937470Y-137001303D01*
X150922884Y-136966089D01*
X150937470Y-136930875D01*
X150953619Y-136920084D01*
X150993765Y-136903455D01*
X151408455Y-136488765D01*
X151435600Y-136423232D01*
X151435600Y-136352300D01*
X151435600Y-134216834D01*
X151408455Y-134151301D01*
X151358299Y-134101145D01*
X150788399Y-133531245D01*
X150722866Y-133504100D01*
X146883238Y-133504100D01*
X146822886Y-133529099D01*
X146817704Y-133531245D01*
X145579045Y-134769904D01*
X145551900Y-134835437D01*
X145551900Y-135194364D01*
X145537314Y-135229578D01*
X144920245Y-135846646D01*
X144893100Y-135912179D01*
X144893100Y-136537918D01*
X144920245Y-136603451D01*
X145871459Y-137554665D01*
X145886045Y-137589879D01*
X145871459Y-137625093D01*
X145836245Y-137639679D01*
X145823356Y-137637982D01*
X145802897Y-137632500D01*
X145802896Y-137632500D01*
X145696390Y-137632500D01*
X145696388Y-137632500D01*
X145593516Y-137660064D01*
X145593508Y-137660068D01*
X145501274Y-137713319D01*
X145425962Y-137788631D01*
X145372711Y-137880865D01*
X145372707Y-137880873D01*
X145345143Y-137983745D01*
X145345143Y-138090254D01*
X145372707Y-138193126D01*
X145372711Y-138193134D01*
X145425962Y-138285368D01*
X145477975Y-138337381D01*
X145492561Y-138372595D01*
X145477975Y-138407809D01*
X145289514Y-138596270D01*
X145254300Y-138610856D01*
X145219086Y-138596270D01*
X145204500Y-138561056D01*
X145204500Y-138546747D01*
X145204499Y-138546745D01*
X145201302Y-138534814D01*
X145176934Y-138443869D01*
X145123680Y-138351631D01*
X145048369Y-138276320D01*
X145048368Y-138276319D01*
X144983516Y-138238877D01*
X144956131Y-138223066D01*
X144956128Y-138223065D01*
X144956126Y-138223064D01*
X144853254Y-138195500D01*
X144853253Y-138195500D01*
X144746747Y-138195500D01*
X144746745Y-138195500D01*
X144643873Y-138223064D01*
X144643865Y-138223068D01*
X144551631Y-138276319D01*
X144476319Y-138351631D01*
X144423068Y-138443865D01*
X144423064Y-138443873D01*
X144395500Y-138546745D01*
X144395500Y-138653254D01*
X144423064Y-138756126D01*
X144423068Y-138756134D01*
X144476319Y-138848368D01*
X144506128Y-138878177D01*
X144520714Y-138913391D01*
X144506128Y-138948605D01*
X143138657Y-140316075D01*
X143103443Y-140330661D01*
X143068230Y-140316075D01*
X142935483Y-140183329D01*
X142920898Y-140148116D01*
X142924690Y-140129056D01*
X142925322Y-140127530D01*
X142934984Y-140091470D01*
X142952888Y-140024653D01*
X142952888Y-139918147D01*
X142925322Y-139815269D01*
X142872068Y-139723031D01*
X142796757Y-139647720D01*
X142796756Y-139647719D01*
X142704522Y-139594468D01*
X142704519Y-139594466D01*
X142704516Y-139594465D01*
X142704514Y-139594464D01*
X142601642Y-139566900D01*
X142601641Y-139566900D01*
X142495135Y-139566900D01*
X142495133Y-139566900D01*
X142392261Y-139594464D01*
X142392253Y-139594468D01*
X142300019Y-139647719D01*
X142224707Y-139723031D01*
X142171456Y-139815265D01*
X142171452Y-139815273D01*
X142143888Y-139918145D01*
X142143888Y-140024654D01*
X142171452Y-140127526D01*
X142171453Y-140127528D01*
X142171454Y-140127531D01*
X142180337Y-140142917D01*
X142220007Y-140211628D01*
X142224708Y-140219769D01*
X142300019Y-140295080D01*
X142392257Y-140348334D01*
X142495135Y-140375900D01*
X142603118Y-140375900D01*
X142638331Y-140390485D01*
X142816075Y-140568230D01*
X142830661Y-140603443D01*
X142816075Y-140638657D01*
X141294175Y-142160558D01*
X141258961Y-142175144D01*
X141166262Y-142175144D01*
X141131048Y-142160558D01*
X141004825Y-142034335D01*
X140990239Y-141999121D01*
X140991934Y-141986239D01*
X141005436Y-141935853D01*
X141005436Y-141829347D01*
X140977870Y-141726469D01*
X140924616Y-141634231D01*
X140849305Y-141558920D01*
X140849304Y-141558919D01*
X140757070Y-141505668D01*
X140757067Y-141505666D01*
X140757064Y-141505665D01*
X140757062Y-141505664D01*
X140654190Y-141478100D01*
X140654189Y-141478100D01*
X140547683Y-141478100D01*
X140547681Y-141478100D01*
X140444809Y-141505664D01*
X140444801Y-141505668D01*
X140352567Y-141558919D01*
X140277255Y-141634231D01*
X140224004Y-141726465D01*
X140224000Y-141726473D01*
X140196436Y-141829345D01*
X140196436Y-141935854D01*
X140224000Y-142038726D01*
X140224004Y-142038734D01*
X140271184Y-142120453D01*
X140277256Y-142130969D01*
X140352567Y-142206280D01*
X140444805Y-142259534D01*
X140547683Y-142287100D01*
X140654188Y-142287100D01*
X140654189Y-142287100D01*
X140704569Y-142273600D01*
X140742356Y-142278574D01*
X140752671Y-142286489D01*
X140920625Y-142454443D01*
X140970781Y-142504599D01*
X141036314Y-142531744D01*
X141233813Y-142531744D01*
X141269027Y-142546330D01*
X141283613Y-142581544D01*
X141269027Y-142616758D01*
X140878671Y-143007114D01*
X140843457Y-143021700D01*
X140496928Y-143021700D01*
X140461714Y-143007114D01*
X138764665Y-141310065D01*
X138750079Y-141274851D01*
X138764665Y-141239637D01*
X138786990Y-141226748D01*
X138899618Y-141196570D01*
X138899620Y-141196569D01*
X138987859Y-141145622D01*
X138763604Y-140921368D01*
X138809968Y-140902164D01*
X138852164Y-140859968D01*
X138871368Y-140813604D01*
X139095623Y-141037859D01*
X139146569Y-140949620D01*
X139146570Y-140949618D01*
X139177399Y-140834561D01*
X139177400Y-140834560D01*
X139177400Y-140715440D01*
X139177399Y-140715438D01*
X139547600Y-140715438D01*
X139547600Y-140834561D01*
X139578428Y-140949615D01*
X139578432Y-140949623D01*
X139629375Y-141037859D01*
X139853630Y-140813603D01*
X139872836Y-140859968D01*
X139915032Y-140902164D01*
X139961394Y-140921368D01*
X139737139Y-141145622D01*
X139825379Y-141196569D01*
X139825381Y-141196570D01*
X139940438Y-141227399D01*
X139940440Y-141227400D01*
X140059560Y-141227400D01*
X140059561Y-141227399D01*
X140174618Y-141196570D01*
X140174620Y-141196569D01*
X140262859Y-141145623D01*
X140038605Y-140921368D01*
X140084968Y-140902164D01*
X140127164Y-140859968D01*
X140146368Y-140813604D01*
X140370623Y-141037859D01*
X140421569Y-140949620D01*
X140421570Y-140949618D01*
X140452399Y-140834561D01*
X140452400Y-140834560D01*
X140452400Y-140715440D01*
X140452399Y-140715438D01*
X140822600Y-140715438D01*
X140822600Y-140834561D01*
X140853428Y-140949615D01*
X140853432Y-140949623D01*
X140904375Y-141037859D01*
X141128630Y-140813603D01*
X141147836Y-140859968D01*
X141190032Y-140902164D01*
X141236394Y-140921368D01*
X141012139Y-141145622D01*
X141100379Y-141196569D01*
X141100381Y-141196570D01*
X141215438Y-141227399D01*
X141215440Y-141227400D01*
X141334560Y-141227400D01*
X141334561Y-141227399D01*
X141449618Y-141196570D01*
X141449620Y-141196569D01*
X141537859Y-141145623D01*
X141313605Y-140921368D01*
X141359968Y-140902164D01*
X141402164Y-140859968D01*
X141421368Y-140813604D01*
X141645623Y-141037859D01*
X141696569Y-140949620D01*
X141696570Y-140949618D01*
X141727399Y-140834561D01*
X141727400Y-140834560D01*
X141727400Y-140715440D01*
X141727399Y-140715438D01*
X141696570Y-140600381D01*
X141696569Y-140600379D01*
X141645622Y-140512139D01*
X141421367Y-140736394D01*
X141402164Y-140690032D01*
X141359968Y-140647836D01*
X141313603Y-140628630D01*
X141537859Y-140404375D01*
X141449623Y-140353432D01*
X141449615Y-140353428D01*
X141334561Y-140322600D01*
X141215438Y-140322600D01*
X141100384Y-140353428D01*
X141100376Y-140353432D01*
X141012139Y-140404375D01*
X141236395Y-140628631D01*
X141190032Y-140647836D01*
X141147836Y-140690032D01*
X141128631Y-140736395D01*
X140904375Y-140512139D01*
X140853432Y-140600376D01*
X140853428Y-140600384D01*
X140822600Y-140715438D01*
X140452399Y-140715438D01*
X140421570Y-140600381D01*
X140421569Y-140600379D01*
X140370622Y-140512139D01*
X140146367Y-140736394D01*
X140127164Y-140690032D01*
X140084968Y-140647836D01*
X140038603Y-140628630D01*
X140262859Y-140404375D01*
X140174623Y-140353432D01*
X140174615Y-140353428D01*
X140059561Y-140322600D01*
X139940438Y-140322600D01*
X139825384Y-140353428D01*
X139825376Y-140353432D01*
X139737139Y-140404375D01*
X139961395Y-140628631D01*
X139915032Y-140647836D01*
X139872836Y-140690032D01*
X139853631Y-140736395D01*
X139629375Y-140512139D01*
X139578432Y-140600376D01*
X139578428Y-140600384D01*
X139547600Y-140715438D01*
X139177399Y-140715438D01*
X139146570Y-140600381D01*
X139146569Y-140600379D01*
X139095622Y-140512139D01*
X138871367Y-140736394D01*
X138852164Y-140690032D01*
X138809968Y-140647836D01*
X138763603Y-140628630D01*
X138987859Y-140404375D01*
X138899623Y-140353432D01*
X138899615Y-140353428D01*
X138784561Y-140322600D01*
X138665438Y-140322600D01*
X138550384Y-140353428D01*
X138550376Y-140353432D01*
X138462139Y-140404375D01*
X138686395Y-140628631D01*
X138640032Y-140647836D01*
X138597836Y-140690032D01*
X138578631Y-140736395D01*
X138354375Y-140512139D01*
X138303432Y-140600376D01*
X138303429Y-140600382D01*
X138272331Y-140716441D01*
X138249128Y-140746679D01*
X138211338Y-140751654D01*
X138205170Y-140749560D01*
X138203445Y-140748845D01*
X138137912Y-140721700D01*
X138137911Y-140721700D01*
X137881850Y-140721700D01*
X137846636Y-140707114D01*
X137832050Y-140671900D01*
X137846636Y-140636686D01*
X137856950Y-140628772D01*
X137860049Y-140626981D01*
X137865769Y-140623680D01*
X137941080Y-140548369D01*
X137994334Y-140456131D01*
X138008375Y-140403731D01*
X138014197Y-140382000D01*
X138021900Y-140353253D01*
X138021900Y-140246747D01*
X137994334Y-140143869D01*
X137941080Y-140051631D01*
X137865769Y-139976320D01*
X137865768Y-139976319D01*
X137773534Y-139923068D01*
X137773531Y-139923066D01*
X137773528Y-139923065D01*
X137773526Y-139923064D01*
X137690721Y-139900877D01*
X137670654Y-139895500D01*
X137670653Y-139895500D01*
X137564147Y-139895500D01*
X137564143Y-139895500D01*
X137513765Y-139908998D01*
X137475976Y-139904022D01*
X137465663Y-139896109D01*
X137437141Y-139867587D01*
X137433667Y-139866148D01*
X137371608Y-139840442D01*
X135288540Y-139840442D01*
X135269346Y-139848392D01*
X135223007Y-139867585D01*
X134126298Y-140964296D01*
X134076142Y-141014451D01*
X134048997Y-141079984D01*
X134048997Y-141965048D01*
X134076142Y-142030581D01*
X134320274Y-142274713D01*
X134334860Y-142309927D01*
X134320274Y-142345141D01*
X134285060Y-142359727D01*
X133733607Y-142359727D01*
X133658744Y-142390736D01*
X133658740Y-142390739D01*
X133631712Y-142417767D01*
X133596498Y-142432353D01*
X133561285Y-142417766D01*
X133546699Y-142382553D01*
X133546699Y-142358629D01*
X133546698Y-142358627D01*
X133544823Y-142351631D01*
X133519133Y-142255751D01*
X133465879Y-142163513D01*
X133390568Y-142088202D01*
X133390567Y-142088201D01*
X133304882Y-142038731D01*
X133298330Y-142034948D01*
X133298327Y-142034947D01*
X133298325Y-142034946D01*
X133195453Y-142007382D01*
X133195452Y-142007382D01*
X133088946Y-142007382D01*
X133088944Y-142007382D01*
X132986072Y-142034946D01*
X132986064Y-142034950D01*
X132893830Y-142088201D01*
X132818518Y-142163513D01*
X132765267Y-142255747D01*
X132765264Y-142255753D01*
X132757484Y-142284790D01*
X132734280Y-142315028D01*
X132709381Y-142321700D01*
X131294712Y-142321700D01*
X131259498Y-142307114D01*
X131253286Y-142300902D01*
X131238700Y-142265688D01*
X131238700Y-137521709D01*
X131253286Y-137486495D01*
X131288500Y-137471909D01*
X131323714Y-137486495D01*
X132743640Y-138906421D01*
X132758226Y-138941635D01*
X132755304Y-138956335D01*
X132755732Y-138956450D01*
X132727321Y-139062479D01*
X132727321Y-139168988D01*
X132754885Y-139271860D01*
X132754886Y-139271862D01*
X132754887Y-139271865D01*
X132771774Y-139301114D01*
X132804381Y-139357592D01*
X132808141Y-139364103D01*
X132883452Y-139439414D01*
X132975690Y-139492668D01*
X133078568Y-139520234D01*
X133185074Y-139520234D01*
X133287952Y-139492668D01*
X133378416Y-139440438D01*
X138272600Y-139440438D01*
X138272600Y-139559561D01*
X138303428Y-139674615D01*
X138303432Y-139674623D01*
X138354375Y-139762859D01*
X138578630Y-139538603D01*
X138597836Y-139584968D01*
X138640032Y-139627164D01*
X138686394Y-139646368D01*
X138462139Y-139870622D01*
X138550379Y-139921569D01*
X138550381Y-139921570D01*
X138665438Y-139952399D01*
X138665440Y-139952400D01*
X138784560Y-139952400D01*
X138784561Y-139952399D01*
X138899618Y-139921570D01*
X138899620Y-139921569D01*
X138987859Y-139870623D01*
X138763605Y-139646368D01*
X138809968Y-139627164D01*
X138852164Y-139584968D01*
X138871368Y-139538604D01*
X139095623Y-139762859D01*
X139146569Y-139674620D01*
X139146570Y-139674618D01*
X139177399Y-139559561D01*
X139177400Y-139559560D01*
X139177400Y-139440440D01*
X139177399Y-139440438D01*
X139547600Y-139440438D01*
X139547600Y-139559561D01*
X139578428Y-139674615D01*
X139578432Y-139674623D01*
X139629375Y-139762859D01*
X139853630Y-139538603D01*
X139872836Y-139584968D01*
X139915032Y-139627164D01*
X139961394Y-139646368D01*
X139737139Y-139870622D01*
X139825379Y-139921569D01*
X139825381Y-139921570D01*
X139940438Y-139952399D01*
X139940440Y-139952400D01*
X140059560Y-139952400D01*
X140059561Y-139952399D01*
X140174618Y-139921570D01*
X140174620Y-139921569D01*
X140262859Y-139870623D01*
X140038605Y-139646368D01*
X140084968Y-139627164D01*
X140127164Y-139584968D01*
X140146368Y-139538605D01*
X140370623Y-139762859D01*
X140421569Y-139674620D01*
X140421570Y-139674618D01*
X140452399Y-139559561D01*
X140452400Y-139559560D01*
X140452400Y-139440440D01*
X140452399Y-139440438D01*
X140822600Y-139440438D01*
X140822600Y-139559561D01*
X140853428Y-139674615D01*
X140853432Y-139674623D01*
X140904375Y-139762859D01*
X141128630Y-139538603D01*
X141147836Y-139584968D01*
X141190032Y-139627164D01*
X141236394Y-139646368D01*
X141012139Y-139870622D01*
X141100379Y-139921569D01*
X141100381Y-139921570D01*
X141215438Y-139952399D01*
X141215440Y-139952400D01*
X141334560Y-139952400D01*
X141334561Y-139952399D01*
X141449618Y-139921570D01*
X141449620Y-139921569D01*
X141537859Y-139870623D01*
X141313605Y-139646368D01*
X141359968Y-139627164D01*
X141402164Y-139584968D01*
X141421368Y-139538604D01*
X141645623Y-139762859D01*
X141696569Y-139674620D01*
X141696570Y-139674618D01*
X141727399Y-139559561D01*
X141727400Y-139559560D01*
X141727400Y-139440440D01*
X141727399Y-139440438D01*
X141696570Y-139325381D01*
X141696569Y-139325379D01*
X141645622Y-139237139D01*
X141421367Y-139461394D01*
X141402164Y-139415032D01*
X141359968Y-139372836D01*
X141313603Y-139353630D01*
X141537859Y-139129375D01*
X141449623Y-139078432D01*
X141449615Y-139078428D01*
X141334561Y-139047600D01*
X141215438Y-139047600D01*
X141100384Y-139078428D01*
X141100376Y-139078432D01*
X141012139Y-139129375D01*
X141236395Y-139353631D01*
X141190032Y-139372836D01*
X141147836Y-139415032D01*
X141128631Y-139461395D01*
X140904375Y-139237139D01*
X140853432Y-139325376D01*
X140853428Y-139325384D01*
X140822600Y-139440438D01*
X140452399Y-139440438D01*
X140421570Y-139325381D01*
X140421569Y-139325379D01*
X140370622Y-139237139D01*
X140146367Y-139461393D01*
X140127164Y-139415032D01*
X140084968Y-139372836D01*
X140038603Y-139353630D01*
X140262859Y-139129375D01*
X140174623Y-139078432D01*
X140174615Y-139078428D01*
X140059561Y-139047600D01*
X139940438Y-139047600D01*
X139825384Y-139078428D01*
X139825376Y-139078432D01*
X139737139Y-139129375D01*
X139961395Y-139353631D01*
X139915032Y-139372836D01*
X139872836Y-139415032D01*
X139853631Y-139461395D01*
X139629375Y-139237139D01*
X139578432Y-139325376D01*
X139578428Y-139325384D01*
X139547600Y-139440438D01*
X139177399Y-139440438D01*
X139146570Y-139325381D01*
X139146569Y-139325379D01*
X139095622Y-139237139D01*
X138871367Y-139461394D01*
X138852164Y-139415032D01*
X138809968Y-139372836D01*
X138763603Y-139353630D01*
X138987859Y-139129375D01*
X138899623Y-139078432D01*
X138899615Y-139078428D01*
X138784561Y-139047600D01*
X138665438Y-139047600D01*
X138550384Y-139078428D01*
X138550376Y-139078432D01*
X138462139Y-139129375D01*
X138686395Y-139353631D01*
X138640032Y-139372836D01*
X138597836Y-139415032D01*
X138578631Y-139461395D01*
X138354375Y-139237139D01*
X138303432Y-139325376D01*
X138303428Y-139325384D01*
X138272600Y-139440438D01*
X133378416Y-139440438D01*
X133380190Y-139439414D01*
X133455501Y-139364103D01*
X133508755Y-139271865D01*
X133536321Y-139168987D01*
X133536321Y-139062481D01*
X133508755Y-138959603D01*
X133455501Y-138867365D01*
X133380190Y-138792054D01*
X133380189Y-138792053D01*
X133293314Y-138741896D01*
X133287952Y-138738800D01*
X133287949Y-138738799D01*
X133287947Y-138738798D01*
X133185075Y-138711234D01*
X133185074Y-138711234D01*
X133078568Y-138711234D01*
X133075304Y-138711234D01*
X133075304Y-138709749D01*
X133043274Y-138701149D01*
X133038397Y-138696870D01*
X132746238Y-138404711D01*
X132731652Y-138369497D01*
X132746238Y-138334283D01*
X132781452Y-138319697D01*
X132805377Y-138319697D01*
X132908255Y-138292131D01*
X133000493Y-138238877D01*
X133075804Y-138163566D01*
X133129058Y-138071328D01*
X133156624Y-137968450D01*
X133156624Y-137861944D01*
X133129058Y-137759066D01*
X133075804Y-137666828D01*
X133000493Y-137591517D01*
X133000492Y-137591516D01*
X132923907Y-137547300D01*
X132908255Y-137538263D01*
X132908252Y-137538262D01*
X132908250Y-137538261D01*
X132805378Y-137510697D01*
X132805377Y-137510697D01*
X132698871Y-137510697D01*
X132698867Y-137510697D01*
X132648489Y-137524195D01*
X132610700Y-137519219D01*
X132600387Y-137511306D01*
X132388086Y-137299005D01*
X132373500Y-137263791D01*
X132373500Y-136405432D01*
X132373500Y-136405431D01*
X132361226Y-136375799D01*
X132350770Y-136350554D01*
X132350770Y-136350541D01*
X132348677Y-136318610D01*
X132364629Y-136259079D01*
X132364629Y-136152573D01*
X132337063Y-136049695D01*
X132283809Y-135957457D01*
X132208498Y-135882146D01*
X132208497Y-135882145D01*
X132130568Y-135837153D01*
X132116260Y-135828892D01*
X132116257Y-135828891D01*
X132116255Y-135828890D01*
X132013383Y-135801326D01*
X132013382Y-135801326D01*
X131906876Y-135801326D01*
X131906874Y-135801326D01*
X131804002Y-135828890D01*
X131803994Y-135828894D01*
X131711760Y-135882145D01*
X131694843Y-135899063D01*
X131659629Y-135913649D01*
X131624415Y-135899063D01*
X131609829Y-135863849D01*
X131609829Y-134446745D01*
X132620500Y-134446745D01*
X132620500Y-134553254D01*
X132648064Y-134656126D01*
X132648068Y-134656134D01*
X132695517Y-134738319D01*
X132701320Y-134748369D01*
X132776631Y-134823680D01*
X132796400Y-134835093D01*
X132819603Y-134865331D01*
X132821300Y-134878221D01*
X132821300Y-135405989D01*
X132852310Y-135480854D01*
X132852311Y-135480855D01*
X132909613Y-135538157D01*
X132909614Y-135538157D01*
X133630602Y-136259145D01*
X133630605Y-136259149D01*
X133633444Y-136261988D01*
X133690746Y-136319290D01*
X133712674Y-136328373D01*
X133765614Y-136350302D01*
X133765616Y-136350302D01*
X133852446Y-136350302D01*
X133852454Y-136350301D01*
X134041598Y-136350301D01*
X134076812Y-136364887D01*
X135629710Y-137917786D01*
X135687013Y-137975089D01*
X135761878Y-138006099D01*
X135761879Y-138006099D01*
X135761881Y-138006100D01*
X137694100Y-138006100D01*
X137729314Y-138020686D01*
X137743900Y-138055900D01*
X137743900Y-138121778D01*
X137729314Y-138156992D01*
X137719000Y-138164906D01*
X137699231Y-138176319D01*
X137623919Y-138251631D01*
X137570668Y-138343865D01*
X137570664Y-138343873D01*
X137543100Y-138446745D01*
X137543100Y-138553254D01*
X137570664Y-138656126D01*
X137570668Y-138656134D01*
X137620182Y-138741896D01*
X137623920Y-138748369D01*
X137699231Y-138823680D01*
X137791469Y-138876934D01*
X137894347Y-138904500D01*
X138000853Y-138904500D01*
X138103731Y-138876934D01*
X138195969Y-138823680D01*
X138271280Y-138748369D01*
X138324534Y-138656131D01*
X138352100Y-138553253D01*
X138352100Y-138510764D01*
X138366686Y-138475550D01*
X138578631Y-138263604D01*
X138597836Y-138309968D01*
X138640032Y-138352164D01*
X138686394Y-138371368D01*
X138462139Y-138595622D01*
X138550379Y-138646569D01*
X138550381Y-138646570D01*
X138665438Y-138677399D01*
X138665440Y-138677400D01*
X138784560Y-138677400D01*
X138784561Y-138677399D01*
X138899618Y-138646570D01*
X138899620Y-138646569D01*
X138987859Y-138595623D01*
X138763605Y-138371368D01*
X138809968Y-138352164D01*
X138852164Y-138309968D01*
X138871368Y-138263604D01*
X139095623Y-138487859D01*
X139146569Y-138399620D01*
X139146570Y-138399618D01*
X139177399Y-138284561D01*
X139177400Y-138284560D01*
X139177400Y-138165440D01*
X139177399Y-138165438D01*
X139146570Y-138050381D01*
X139146569Y-138050379D01*
X139095622Y-137962139D01*
X138871367Y-138186394D01*
X138852164Y-138140032D01*
X138809968Y-138097836D01*
X138763603Y-138078630D01*
X138987860Y-137854374D01*
X138986938Y-137847373D01*
X138972648Y-137828750D01*
X138977623Y-137790961D01*
X138995856Y-137772730D01*
X138998369Y-137771280D01*
X139073680Y-137695969D01*
X139081872Y-137681779D01*
X139112110Y-137658577D01*
X139149900Y-137663552D01*
X139168128Y-137681780D01*
X139176318Y-137695967D01*
X139176320Y-137695969D01*
X139251631Y-137771280D01*
X139343869Y-137824534D01*
X139446747Y-137852100D01*
X139553253Y-137852100D01*
X139656131Y-137824534D01*
X139660598Y-137821954D01*
X139698386Y-137816977D01*
X139728626Y-137840178D01*
X139730037Y-137847273D01*
X139961395Y-138078631D01*
X139915032Y-138097836D01*
X139872836Y-138140032D01*
X139853631Y-138186395D01*
X139629375Y-137962139D01*
X139578432Y-138050376D01*
X139578428Y-138050384D01*
X139547600Y-138165438D01*
X139547600Y-138284561D01*
X139578428Y-138399615D01*
X139578432Y-138399623D01*
X139629375Y-138487859D01*
X139853630Y-138263603D01*
X139872836Y-138309968D01*
X139915032Y-138352164D01*
X139961394Y-138371368D01*
X139737139Y-138595622D01*
X139825379Y-138646569D01*
X139825381Y-138646570D01*
X139940438Y-138677399D01*
X139940440Y-138677400D01*
X140059560Y-138677400D01*
X140059561Y-138677399D01*
X140174618Y-138646570D01*
X140174620Y-138646569D01*
X140262859Y-138595623D01*
X140038605Y-138371368D01*
X140084968Y-138352164D01*
X140127164Y-138309968D01*
X140146368Y-138263605D01*
X140370623Y-138487859D01*
X140421569Y-138399620D01*
X140421570Y-138399618D01*
X140452399Y-138284561D01*
X140452400Y-138284560D01*
X140452400Y-138165440D01*
X140452399Y-138165438D01*
X140421570Y-138050381D01*
X140421569Y-138050379D01*
X140370622Y-137962139D01*
X140146367Y-138186393D01*
X140127164Y-138140032D01*
X140084968Y-138097836D01*
X140038603Y-138078630D01*
X140262859Y-137854375D01*
X140174623Y-137803432D01*
X140174615Y-137803428D01*
X140059561Y-137772600D01*
X139940438Y-137772600D01*
X139855786Y-137795282D01*
X139817997Y-137790307D01*
X139794794Y-137760068D01*
X139799769Y-137722279D01*
X139807680Y-137711968D01*
X139823680Y-137695969D01*
X139876934Y-137603731D01*
X139902537Y-137508178D01*
X139925740Y-137477940D01*
X139963529Y-137472965D01*
X139985854Y-137485854D01*
X140000000Y-137500000D01*
X140651098Y-137500000D01*
X140675998Y-137506672D01*
X140698622Y-137519734D01*
X140801500Y-137547300D01*
X140908004Y-137547300D01*
X140908006Y-137547300D01*
X140931840Y-137540913D01*
X140969626Y-137545887D01*
X140979942Y-137553802D01*
X141104739Y-137678599D01*
X141125053Y-137687013D01*
X141150483Y-137697546D01*
X141157361Y-137704425D01*
X141177433Y-137724497D01*
X141177434Y-137724499D01*
X141177433Y-137762614D01*
X141170401Y-137769645D01*
X141150482Y-137789564D01*
X141150480Y-137789564D01*
X141150480Y-137789565D01*
X141150479Y-137789564D01*
X141144314Y-137791658D01*
X141100382Y-137803429D01*
X141100376Y-137803432D01*
X141012139Y-137854375D01*
X141236395Y-138078631D01*
X141190032Y-138097836D01*
X141147836Y-138140032D01*
X141128631Y-138186395D01*
X140904375Y-137962139D01*
X140853432Y-138050376D01*
X140853428Y-138050384D01*
X140822600Y-138165438D01*
X140822600Y-138284561D01*
X140853428Y-138399615D01*
X140853432Y-138399623D01*
X140904375Y-138487859D01*
X141128630Y-138263603D01*
X141147836Y-138309968D01*
X141190032Y-138352164D01*
X141236394Y-138371368D01*
X141012139Y-138595622D01*
X141100379Y-138646569D01*
X141100381Y-138646570D01*
X141215438Y-138677399D01*
X141215440Y-138677400D01*
X141334560Y-138677400D01*
X141334561Y-138677399D01*
X141449618Y-138646570D01*
X141449620Y-138646569D01*
X141537859Y-138595623D01*
X141313605Y-138371368D01*
X141359968Y-138352164D01*
X141402164Y-138309968D01*
X141421368Y-138263604D01*
X141645623Y-138487859D01*
X141696569Y-138399620D01*
X141696570Y-138399618D01*
X141727399Y-138284561D01*
X141727400Y-138284560D01*
X141727400Y-138165440D01*
X141727399Y-138165438D01*
X141696570Y-138050381D01*
X141696569Y-138050379D01*
X141645622Y-137962139D01*
X141421367Y-138186394D01*
X141402164Y-138140032D01*
X141359968Y-138097836D01*
X141313603Y-138078630D01*
X141537859Y-137854375D01*
X141447654Y-137802295D01*
X141424451Y-137772056D01*
X141429426Y-137734267D01*
X141459665Y-137711064D01*
X141472554Y-137709367D01*
X141852315Y-137709367D01*
X141852317Y-137709367D01*
X141926598Y-137678599D01*
X142285074Y-137320123D01*
X142320288Y-137305537D01*
X142355502Y-137320123D01*
X142370088Y-137355337D01*
X142370088Y-137807113D01*
X142355502Y-137842327D01*
X142345188Y-137850241D01*
X142300019Y-137876319D01*
X142224707Y-137951631D01*
X142171456Y-138043865D01*
X142171452Y-138043873D01*
X142143888Y-138146745D01*
X142143888Y-138253254D01*
X142171452Y-138356126D01*
X142171453Y-138356128D01*
X142171454Y-138356131D01*
X142176905Y-138365572D01*
X142223771Y-138446747D01*
X142224708Y-138448369D01*
X142300019Y-138523680D01*
X142392257Y-138576934D01*
X142495135Y-138604500D01*
X142601641Y-138604500D01*
X142704519Y-138576934D01*
X142796757Y-138523680D01*
X142872068Y-138448369D01*
X142925322Y-138356131D01*
X142952888Y-138253253D01*
X142952888Y-138146747D01*
X142925322Y-138043869D01*
X142872068Y-137951631D01*
X142796757Y-137876320D01*
X142796756Y-137876319D01*
X142751588Y-137850241D01*
X142728385Y-137820002D01*
X142726688Y-137807113D01*
X142726688Y-136512923D01*
X142726688Y-136512922D01*
X142699543Y-136447389D01*
X142649387Y-136397233D01*
X142177642Y-135925488D01*
X142163056Y-135890274D01*
X142163056Y-134899291D01*
X142163056Y-134899290D01*
X142140568Y-134845002D01*
X142138475Y-134813057D01*
X142154500Y-134753253D01*
X142154500Y-134646747D01*
X142126934Y-134543869D01*
X142073680Y-134451631D01*
X141998369Y-134376320D01*
X141998368Y-134376319D01*
X141906134Y-134323068D01*
X141906131Y-134323066D01*
X141906128Y-134323065D01*
X141906126Y-134323064D01*
X141803254Y-134295500D01*
X141803253Y-134295500D01*
X141696747Y-134295500D01*
X141696745Y-134295500D01*
X141593873Y-134323064D01*
X141593865Y-134323068D01*
X141501631Y-134376319D01*
X141426319Y-134451631D01*
X141373068Y-134543865D01*
X141373064Y-134543873D01*
X141345500Y-134646745D01*
X141345500Y-134753254D01*
X141373064Y-134856126D01*
X141373065Y-134856128D01*
X141373066Y-134856131D01*
X141426320Y-134948369D01*
X141501631Y-135023680D01*
X141593869Y-135076934D01*
X141696747Y-135104500D01*
X141756656Y-135104500D01*
X141769981Y-135110019D01*
X141784144Y-135112773D01*
X141787057Y-135117092D01*
X141791870Y-135119086D01*
X141797389Y-135132412D01*
X141805457Y-135144373D01*
X141806456Y-135154300D01*
X141806456Y-135278161D01*
X141791870Y-135313375D01*
X141756656Y-135327961D01*
X141721443Y-135313376D01*
X141703377Y-135295311D01*
X141672123Y-135264057D01*
X141672108Y-135264044D01*
X141671443Y-135263379D01*
X141671442Y-135263378D01*
X141671440Y-135263376D01*
X141671435Y-135263373D01*
X141593221Y-135218217D01*
X141593216Y-135218215D01*
X141593214Y-135218214D01*
X141537922Y-135203399D01*
X141505965Y-135194836D01*
X141505964Y-135194836D01*
X141415637Y-135194836D01*
X141415633Y-135194836D01*
X141328394Y-135218210D01*
X141328387Y-135218213D01*
X141278949Y-135246755D01*
X141250165Y-135263373D01*
X141250156Y-135263378D01*
X141249477Y-135264057D01*
X141246644Y-135266889D01*
X141246643Y-135266890D01*
X141232067Y-135281466D01*
X141213736Y-135299797D01*
X141184887Y-135328646D01*
X141149673Y-135343232D01*
X141114459Y-135328646D01*
X141016686Y-135230873D01*
X141002100Y-135195659D01*
X141002100Y-134304341D01*
X141016686Y-134269127D01*
X141990397Y-133295416D01*
X142025611Y-133280830D01*
X142096113Y-133280830D01*
X142131327Y-133295416D01*
X142139240Y-133305727D01*
X142151579Y-133327099D01*
X142226890Y-133402410D01*
X142319128Y-133455664D01*
X142422006Y-133483230D01*
X142528512Y-133483230D01*
X142631390Y-133455664D01*
X142723628Y-133402410D01*
X142798939Y-133327099D01*
X142852193Y-133234861D01*
X142879759Y-133131983D01*
X142879759Y-133025477D01*
X142852193Y-132922599D01*
X142798939Y-132830361D01*
X142723628Y-132755050D01*
X142723627Y-132755049D01*
X142631393Y-132701798D01*
X142631390Y-132701796D01*
X142631387Y-132701795D01*
X142631385Y-132701794D01*
X142528513Y-132674230D01*
X142528512Y-132674230D01*
X142422006Y-132674230D01*
X142422004Y-132674230D01*
X142319132Y-132701794D01*
X142319124Y-132701798D01*
X142226890Y-132755049D01*
X142151579Y-132830360D01*
X142139241Y-132851731D01*
X142109002Y-132874933D01*
X142096113Y-132876630D01*
X141881070Y-132876630D01*
X141837557Y-132894653D01*
X141837556Y-132894653D01*
X141816880Y-132903216D01*
X141816875Y-132903219D01*
X141806789Y-132907398D01*
X141773371Y-132940815D01*
X141773357Y-132940828D01*
X141416059Y-133298127D01*
X141380845Y-133312713D01*
X141345631Y-133298127D01*
X141331045Y-133262913D01*
X141337712Y-133238023D01*
X141377056Y-133169853D01*
X141400630Y-133081827D01*
X141400620Y-132990698D01*
X141400620Y-132990696D01*
X141398602Y-132983169D01*
X141403572Y-132945380D01*
X141433808Y-132922173D01*
X141459591Y-132922171D01*
X141467159Y-132924198D01*
X141467163Y-132924199D01*
X141558298Y-132924190D01*
X141558307Y-132924190D01*
X141587651Y-132916322D01*
X141646341Y-132900588D01*
X141725264Y-132855002D01*
X141754301Y-132825954D01*
X141813443Y-132766807D01*
X141878455Y-132701796D01*
X142763565Y-131816686D01*
X142798779Y-131802100D01*
X143220854Y-131802100D01*
X143256068Y-131816686D01*
X143263981Y-131826997D01*
X143276320Y-131848369D01*
X143351631Y-131923680D01*
X143443869Y-131976934D01*
X143546747Y-132004500D01*
X143653253Y-132004500D01*
X143756131Y-131976934D01*
X143848369Y-131923680D01*
X143923680Y-131848369D01*
X143976934Y-131756131D01*
X144004500Y-131653253D01*
X144004500Y-131546747D01*
X143976934Y-131443869D01*
X143923680Y-131351631D01*
X143848369Y-131276320D01*
X143848368Y-131276319D01*
X143782330Y-131238192D01*
X143756131Y-131223066D01*
X143756128Y-131223065D01*
X143756126Y-131223064D01*
X143653254Y-131195500D01*
X143653253Y-131195500D01*
X143546747Y-131195500D01*
X143546745Y-131195500D01*
X143443873Y-131223064D01*
X143443865Y-131223068D01*
X143351631Y-131276319D01*
X143276320Y-131351630D01*
X143263982Y-131373001D01*
X143233743Y-131396203D01*
X143220854Y-131397900D01*
X142654237Y-131397900D01*
X142579956Y-131428668D01*
X141550969Y-132457656D01*
X141550966Y-132457658D01*
X141544097Y-132464526D01*
X141508882Y-132479110D01*
X141483984Y-132472437D01*
X141417412Y-132433997D01*
X141329400Y-132410405D01*
X141329401Y-132410405D01*
X141238289Y-132410395D01*
X141238285Y-132410395D01*
X141150273Y-132433961D01*
X141150268Y-132433964D01*
X141071358Y-132479500D01*
X141071351Y-132479504D01*
X141070718Y-132480138D01*
X141067546Y-132483308D01*
X141067524Y-132483318D01*
X141039457Y-132511383D01*
X141039434Y-132511407D01*
X141039133Y-132511708D01*
X141007431Y-132543393D01*
X141007360Y-132543479D01*
X140989786Y-132561053D01*
X140988218Y-132562622D01*
X140988207Y-132562633D01*
X140956516Y-132594323D01*
X140956414Y-132594446D01*
X140956005Y-132594855D01*
X140955999Y-132594862D01*
X140910420Y-132673784D01*
X140886824Y-132761808D01*
X140886818Y-132852940D01*
X140886818Y-132852941D01*
X140888868Y-132860593D01*
X140883890Y-132898381D01*
X140853649Y-132921582D01*
X140827863Y-132921578D01*
X140820340Y-132919560D01*
X140729204Y-132919540D01*
X140641181Y-132943110D01*
X140641176Y-132943113D01*
X140562246Y-132988670D01*
X140561287Y-132989629D01*
X140558450Y-132992465D01*
X140558440Y-132992470D01*
X140534552Y-133016357D01*
X140530021Y-133020887D01*
X140530022Y-133020887D01*
X140499453Y-133051450D01*
X140499429Y-133051477D01*
X140493723Y-133057184D01*
X140493594Y-133057237D01*
X140446839Y-133103996D01*
X140446834Y-133104002D01*
X140401267Y-133182940D01*
X140377687Y-133270990D01*
X140377704Y-133362138D01*
X140401315Y-133450175D01*
X140439732Y-133516672D01*
X140444718Y-133554460D01*
X140431825Y-133576798D01*
X140334714Y-133673910D01*
X140299500Y-133688496D01*
X140264286Y-133673910D01*
X140249700Y-133638696D01*
X140249700Y-131204540D01*
X140241749Y-131185346D01*
X140222556Y-131139007D01*
X140069586Y-130986037D01*
X140055000Y-130950823D01*
X140056695Y-130937942D01*
X140070197Y-130887556D01*
X140070197Y-130781050D01*
X140042631Y-130678172D01*
X139989377Y-130585934D01*
X139914066Y-130510623D01*
X139914065Y-130510622D01*
X139857616Y-130478031D01*
X139843730Y-130470014D01*
X142917600Y-130470014D01*
X142926441Y-130514463D01*
X142926442Y-130514464D01*
X142960126Y-130564873D01*
X143010535Y-130598557D01*
X143010536Y-130598558D01*
X143054985Y-130607399D01*
X143054993Y-130607400D01*
X143343800Y-130607400D01*
X143496200Y-130607400D01*
X143785007Y-130607400D01*
X143785014Y-130607399D01*
X143829463Y-130598558D01*
X143829464Y-130598557D01*
X143879873Y-130564873D01*
X143913557Y-130514464D01*
X143913558Y-130514463D01*
X143922399Y-130470014D01*
X143922400Y-130470007D01*
X143922400Y-129956200D01*
X143496200Y-129956200D01*
X143496200Y-130607400D01*
X143343800Y-130607400D01*
X143343800Y-129956200D01*
X142917600Y-129956200D01*
X142917600Y-130470014D01*
X139843730Y-130470014D01*
X139821828Y-130457369D01*
X139821825Y-130457368D01*
X139821823Y-130457367D01*
X139718951Y-130429803D01*
X139718950Y-130429803D01*
X139612444Y-130429803D01*
X139612442Y-130429803D01*
X139509570Y-130457367D01*
X139509562Y-130457371D01*
X139417328Y-130510622D01*
X139342016Y-130585934D01*
X139288765Y-130678168D01*
X139288761Y-130678176D01*
X139261197Y-130781048D01*
X139261197Y-130887557D01*
X139288761Y-130990429D01*
X139288762Y-130990431D01*
X139288763Y-130990434D01*
X139342017Y-131082672D01*
X139417328Y-131157983D01*
X139509566Y-131211237D01*
X139612444Y-131238803D01*
X139718950Y-131238803D01*
X139769330Y-131225303D01*
X139776000Y-131226181D01*
X139782218Y-131223606D01*
X139794227Y-131228580D01*
X139807117Y-131230277D01*
X139817428Y-131238189D01*
X139855559Y-131276319D01*
X139878514Y-131299274D01*
X139893100Y-131334488D01*
X139893100Y-132899138D01*
X139878514Y-132934352D01*
X139843300Y-132948938D01*
X139808086Y-132934352D01*
X139795197Y-132912027D01*
X139776935Y-132843873D01*
X139776934Y-132843869D01*
X139723680Y-132751631D01*
X139648369Y-132676320D01*
X139648368Y-132676319D01*
X139556134Y-132623068D01*
X139556131Y-132623066D01*
X139556128Y-132623065D01*
X139556126Y-132623064D01*
X139453254Y-132595500D01*
X139453253Y-132595500D01*
X139346747Y-132595500D01*
X139346745Y-132595500D01*
X139243873Y-132623064D01*
X139243865Y-132623068D01*
X139151631Y-132676319D01*
X139076319Y-132751631D01*
X139023068Y-132843865D01*
X139023064Y-132843873D01*
X138995500Y-132946745D01*
X138995500Y-133053254D01*
X139023064Y-133156126D01*
X139023065Y-133156128D01*
X139023066Y-133156131D01*
X139076320Y-133248369D01*
X139151631Y-133323680D01*
X139243869Y-133376934D01*
X139284789Y-133387898D01*
X139315027Y-133411099D01*
X139321700Y-133436000D01*
X139321700Y-134693824D01*
X139307114Y-134729038D01*
X139296802Y-134736950D01*
X139295921Y-134737459D01*
X139294430Y-134738320D01*
X139219119Y-134813631D01*
X139165868Y-134905865D01*
X139165864Y-134905873D01*
X139138300Y-135008745D01*
X139138300Y-135115254D01*
X139165864Y-135218126D01*
X139165865Y-135218128D01*
X139165866Y-135218131D01*
X139171305Y-135227552D01*
X139210970Y-135296254D01*
X139219120Y-135310369D01*
X139294431Y-135385680D01*
X139386669Y-135438934D01*
X139489547Y-135466500D01*
X139596053Y-135466500D01*
X139698931Y-135438934D01*
X139791169Y-135385680D01*
X139808086Y-135368763D01*
X139843300Y-135354177D01*
X139878514Y-135368763D01*
X139893100Y-135403977D01*
X139893100Y-136781716D01*
X139878514Y-136816930D01*
X139651734Y-137043709D01*
X139616520Y-137058295D01*
X139603631Y-137056598D01*
X139553254Y-137043100D01*
X139553253Y-137043100D01*
X139446747Y-137043100D01*
X139446745Y-137043100D01*
X139343873Y-137070664D01*
X139343865Y-137070668D01*
X139251631Y-137123919D01*
X139176320Y-137199230D01*
X139168128Y-137213420D01*
X139137888Y-137236622D01*
X139100099Y-137231647D01*
X139081872Y-137213420D01*
X139075992Y-137203236D01*
X139073680Y-137199231D01*
X138998369Y-137123920D01*
X138998368Y-137123919D01*
X138906134Y-137070668D01*
X138906131Y-137070666D01*
X138906128Y-137070665D01*
X138906126Y-137070664D01*
X138803254Y-137043100D01*
X138803253Y-137043100D01*
X138696747Y-137043100D01*
X138696745Y-137043100D01*
X138593873Y-137070664D01*
X138593865Y-137070668D01*
X138501631Y-137123919D01*
X138426319Y-137199231D01*
X138414906Y-137219000D01*
X138409567Y-137223096D01*
X138406992Y-137229314D01*
X138394980Y-137234289D01*
X138384667Y-137242203D01*
X138371778Y-137243900D01*
X138348721Y-137243900D01*
X138348713Y-137243899D01*
X138342919Y-137243899D01*
X138261881Y-137243899D01*
X138261878Y-137243899D01*
X138208942Y-137265825D01*
X138208943Y-137265826D01*
X138187013Y-137274910D01*
X138156757Y-137305167D01*
X138129711Y-137332213D01*
X138129710Y-137332214D01*
X137996651Y-137465274D01*
X137877811Y-137584114D01*
X137842597Y-137598700D01*
X135907404Y-137598700D01*
X135872190Y-137584114D01*
X134319290Y-136031215D01*
X134319290Y-136031214D01*
X134261988Y-135973912D01*
X134261987Y-135973911D01*
X134187122Y-135942901D01*
X134187120Y-135942901D01*
X133911136Y-135942901D01*
X133875922Y-135928315D01*
X133243286Y-135295679D01*
X133228700Y-135260465D01*
X133228700Y-134878221D01*
X133243286Y-134843007D01*
X133253598Y-134835094D01*
X133273369Y-134823680D01*
X133348680Y-134748369D01*
X133401934Y-134656131D01*
X133429500Y-134553253D01*
X133429500Y-134446747D01*
X133401934Y-134343869D01*
X133348680Y-134251631D01*
X133273369Y-134176320D01*
X133273368Y-134176319D01*
X133216919Y-134143728D01*
X133181131Y-134123066D01*
X133181128Y-134123065D01*
X133181126Y-134123064D01*
X133078254Y-134095500D01*
X133078253Y-134095500D01*
X132971747Y-134095500D01*
X132971745Y-134095500D01*
X132868873Y-134123064D01*
X132868865Y-134123068D01*
X132776631Y-134176319D01*
X132701319Y-134251631D01*
X132648068Y-134343865D01*
X132648064Y-134343873D01*
X132620500Y-134446745D01*
X131609829Y-134446745D01*
X131609829Y-133225858D01*
X131624414Y-133190645D01*
X132353211Y-132461847D01*
X132388424Y-132447262D01*
X132401308Y-132448958D01*
X132451694Y-132462459D01*
X132451695Y-132462459D01*
X132558200Y-132462459D01*
X132661078Y-132434893D01*
X132753316Y-132381639D01*
X132828627Y-132306328D01*
X132879364Y-132218449D01*
X134573379Y-132218449D01*
X134573379Y-132324958D01*
X134600943Y-132427830D01*
X134600944Y-132427832D01*
X134600945Y-132427835D01*
X134604484Y-132433964D01*
X134654198Y-132520072D01*
X134731818Y-132597692D01*
X134731122Y-132598387D01*
X134748352Y-132628223D01*
X134748779Y-132634728D01*
X134748779Y-133681036D01*
X134758994Y-133705696D01*
X134783656Y-133765237D01*
X134783657Y-133765238D01*
X135402080Y-134383661D01*
X136013109Y-134994689D01*
X136027695Y-135029903D01*
X136013109Y-135065117D01*
X135962829Y-135115397D01*
X135909578Y-135207631D01*
X135909574Y-135207639D01*
X135882010Y-135310511D01*
X135882010Y-135417020D01*
X135909574Y-135519892D01*
X135909575Y-135519894D01*
X135909576Y-135519897D01*
X135930238Y-135555685D01*
X135961481Y-135609800D01*
X135962830Y-135612135D01*
X136038141Y-135687446D01*
X136130379Y-135740700D01*
X136233257Y-135768266D01*
X136339763Y-135768266D01*
X136442641Y-135740700D01*
X136534879Y-135687446D01*
X136610190Y-135612135D01*
X136663444Y-135519897D01*
X136691010Y-135417019D01*
X136691010Y-135310513D01*
X136663444Y-135207635D01*
X136610190Y-135115397D01*
X136534879Y-135040086D01*
X136532571Y-135037778D01*
X136533263Y-135037085D01*
X136516035Y-135007233D01*
X136515610Y-135000741D01*
X136515610Y-134898524D01*
X136515610Y-134898523D01*
X136497667Y-134855205D01*
X136480732Y-134814320D01*
X136480731Y-134814319D01*
X136480732Y-134814319D01*
X135221565Y-133555152D01*
X135206979Y-133519938D01*
X135206979Y-132634728D01*
X135221565Y-132599514D01*
X135226053Y-132595578D01*
X135226245Y-132595385D01*
X135226248Y-132595384D01*
X135301559Y-132520073D01*
X135354813Y-132427835D01*
X135382379Y-132324957D01*
X135382379Y-132218451D01*
X135354813Y-132115573D01*
X135301559Y-132023335D01*
X135226248Y-131948024D01*
X135226247Y-131948023D01*
X135169798Y-131915432D01*
X135134010Y-131894770D01*
X135134007Y-131894769D01*
X135134005Y-131894768D01*
X135031133Y-131867204D01*
X135031132Y-131867204D01*
X134924626Y-131867204D01*
X134924624Y-131867204D01*
X134821752Y-131894768D01*
X134821744Y-131894772D01*
X134729510Y-131948023D01*
X134654198Y-132023335D01*
X134600947Y-132115569D01*
X134600943Y-132115577D01*
X134573379Y-132218449D01*
X132879364Y-132218449D01*
X132881881Y-132214090D01*
X132909447Y-132111212D01*
X132909447Y-132004706D01*
X132881881Y-131901828D01*
X132828627Y-131809590D01*
X132811710Y-131792673D01*
X132797124Y-131757459D01*
X132811710Y-131722245D01*
X132846924Y-131707659D01*
X136262277Y-131707659D01*
X136297491Y-131722245D01*
X136423509Y-131848263D01*
X136438095Y-131883477D01*
X136436398Y-131896365D01*
X136422900Y-131946743D01*
X136422900Y-132053254D01*
X136450464Y-132156126D01*
X136450465Y-132156128D01*
X136450466Y-132156131D01*
X136465705Y-132182526D01*
X136486445Y-132218449D01*
X136503720Y-132248369D01*
X136579031Y-132323680D01*
X136671269Y-132376934D01*
X136774147Y-132404500D01*
X136880653Y-132404500D01*
X136983531Y-132376934D01*
X137075769Y-132323680D01*
X137151080Y-132248369D01*
X137204334Y-132156131D01*
X137231900Y-132053253D01*
X137231900Y-131946747D01*
X137204334Y-131843869D01*
X137151080Y-131751631D01*
X137075769Y-131676320D01*
X137075768Y-131676319D01*
X136983534Y-131623068D01*
X136983531Y-131623066D01*
X136983528Y-131623065D01*
X136983526Y-131623064D01*
X136880654Y-131595500D01*
X136880653Y-131595500D01*
X136774147Y-131595500D01*
X136774143Y-131595500D01*
X136723765Y-131608998D01*
X136685976Y-131604022D01*
X136675663Y-131596109D01*
X136457758Y-131378204D01*
X136445197Y-131373001D01*
X136392225Y-131351059D01*
X132321458Y-131351059D01*
X132250527Y-131351059D01*
X132217760Y-131364631D01*
X132184993Y-131378204D01*
X130909245Y-132653952D01*
X130882100Y-132719485D01*
X130882100Y-136973797D01*
X130867514Y-137009011D01*
X130832300Y-137023597D01*
X130797086Y-137009011D01*
X130786480Y-136998405D01*
X130771894Y-136963191D01*
X130773591Y-136950304D01*
X130779500Y-136928253D01*
X130779500Y-136821747D01*
X130751934Y-136718869D01*
X130698680Y-136626631D01*
X130623369Y-136551320D01*
X130623368Y-136551319D01*
X130531134Y-136498068D01*
X130531131Y-136498066D01*
X130531128Y-136498065D01*
X130531126Y-136498064D01*
X130428254Y-136470500D01*
X130428253Y-136470500D01*
X130321747Y-136470500D01*
X130321745Y-136470500D01*
X130218873Y-136498064D01*
X130218865Y-136498068D01*
X130126631Y-136551319D01*
X130051319Y-136626631D01*
X129998068Y-136718865D01*
X129998064Y-136718873D01*
X129970500Y-136821745D01*
X129970500Y-136928254D01*
X129998064Y-137031126D01*
X129998065Y-137031128D01*
X129998066Y-137031131D01*
X130013296Y-137057510D01*
X130034377Y-137094024D01*
X130051320Y-137123369D01*
X130126631Y-137198680D01*
X130218869Y-137251934D01*
X130321747Y-137279500D01*
X130428254Y-137279500D01*
X130428254Y-137279499D01*
X130450300Y-137273592D01*
X130456971Y-137274470D01*
X130463191Y-137271894D01*
X130475202Y-137276869D01*
X130488089Y-137278565D01*
X130498405Y-137286480D01*
X130511914Y-137299989D01*
X130526500Y-137335203D01*
X130526500Y-137738537D01*
X130511914Y-137773751D01*
X130476700Y-137788337D01*
X130441486Y-137773751D01*
X130424568Y-137756833D01*
X130346852Y-137711964D01*
X130332331Y-137703580D01*
X130332328Y-137703579D01*
X130332326Y-137703578D01*
X130229454Y-137676014D01*
X130229453Y-137676014D01*
X130122947Y-137676014D01*
X130122945Y-137676014D01*
X130020073Y-137703578D01*
X130020065Y-137703582D01*
X129927831Y-137756833D01*
X129852519Y-137832145D01*
X129799268Y-137924379D01*
X129799264Y-137924387D01*
X129771700Y-138027259D01*
X129771700Y-138133768D01*
X129799264Y-138236640D01*
X129799268Y-138236648D01*
X129847215Y-138319696D01*
X129852520Y-138328883D01*
X129927831Y-138404194D01*
X130020069Y-138457448D01*
X130122947Y-138485014D01*
X130171900Y-138485014D01*
X130207114Y-138499600D01*
X130221700Y-138534814D01*
X130221700Y-142705518D01*
X130217142Y-142716521D01*
X130207114Y-142740731D01*
X130207113Y-142740732D01*
X130186381Y-142761463D01*
X130151167Y-142776048D01*
X130126269Y-142769377D01*
X130122370Y-142767126D01*
X130094591Y-142751088D01*
X130094588Y-142751087D01*
X130094586Y-142751086D01*
X129991714Y-142723522D01*
X129991713Y-142723522D01*
X129885207Y-142723522D01*
X129885205Y-142723522D01*
X129782333Y-142751086D01*
X129782325Y-142751090D01*
X129690091Y-142804341D01*
X129614779Y-142879653D01*
X129561528Y-142971887D01*
X129561524Y-142971895D01*
X129533960Y-143074767D01*
X128805300Y-143074767D01*
X128805300Y-133483185D01*
X128819885Y-133447972D01*
X129119885Y-133147971D01*
X129155098Y-133133386D01*
X129179998Y-133140058D01*
X129243869Y-133176934D01*
X129346747Y-133204500D01*
X129453253Y-133204500D01*
X129556131Y-133176934D01*
X129648369Y-133123680D01*
X129723680Y-133048369D01*
X129776934Y-132956131D01*
X129804500Y-132853253D01*
X129804500Y-132746747D01*
X129776934Y-132643869D01*
X129723680Y-132551631D01*
X129648369Y-132476320D01*
X129648368Y-132476319D01*
X129588091Y-132441518D01*
X129556131Y-132423066D01*
X129556128Y-132423065D01*
X129556126Y-132423064D01*
X129453254Y-132395500D01*
X129453253Y-132395500D01*
X129346747Y-132395500D01*
X129346745Y-132395500D01*
X129243873Y-132423064D01*
X129243865Y-132423068D01*
X129151631Y-132476319D01*
X129076319Y-132551631D01*
X129023068Y-132643864D01*
X129023063Y-132643875D01*
X129017450Y-132664821D01*
X129004562Y-132687143D01*
X128486214Y-133205493D01*
X128428911Y-133262795D01*
X128396309Y-133341505D01*
X128369358Y-133368456D01*
X128331242Y-133368456D01*
X128304291Y-133341505D01*
X128300500Y-133322447D01*
X128300500Y-130702444D01*
X128300740Y-130697563D01*
X128313460Y-130568408D01*
X128315361Y-130558852D01*
X128352325Y-130436997D01*
X128356052Y-130427997D01*
X128416078Y-130315697D01*
X128421495Y-130307591D01*
X128502271Y-130209165D01*
X128509165Y-130202271D01*
X128607591Y-130121495D01*
X128615697Y-130116078D01*
X128727997Y-130056052D01*
X128736997Y-130052325D01*
X128858852Y-130015361D01*
X128868408Y-130013460D01*
X128997563Y-130000739D01*
X129002444Y-130000500D01*
X132702351Y-130000500D01*
X132702352Y-130000500D01*
X132904534Y-129968477D01*
X133099219Y-129905220D01*
X133281610Y-129812287D01*
X133447219Y-129691966D01*
X133591966Y-129547219D01*
X133712287Y-129381610D01*
X133763238Y-129281613D01*
X133789745Y-129229591D01*
X133818728Y-129204837D01*
X133834117Y-129202400D01*
X134373800Y-129202400D01*
X134373800Y-128349800D01*
X134388386Y-128314586D01*
X134423600Y-128300000D01*
X134476400Y-128300000D01*
X134511614Y-128314586D01*
G37*
%TD.AperFunction*%
%TD*%
M02*
